<svg width="1312" height="840" viewBox="0 0 1312 840" fill="none" xmlns="http://www.w3.org/2000/svg">
<rect width="1312" height="840" rx="30" fill="#FEFAEF"/>
<rect x="369" y="187" width="79" height="4" rx="2" fill="#D9D9D9"/>
<rect x="468" y="187" width="79" height="4" rx="2" fill="#0209AA"/>
<rect x="567" y="187" width="79" height="4" rx="2" fill="#D9D9D9"/>
<rect x="666" y="187" width="79" height="4" rx="2" fill="#D9D9D9"/>
<rect x="765" y="187" width="79" height="4" rx="2" fill="#D9D9D9"/>
<rect x="864" y="187" width="79" height="4" rx="2" fill="#D9D9D9"/>
<path d="M374.764 272.24C369.868 272.24 366.46 269.024 366.46 263.936C366.46 258.968 370.252 254.96 375.22 254.96C376.708 254.96 377.572 255.368 378.148 255.368C378.748 255.368 378.916 254.984 379.468 254.984C379.9 254.984 380.164 255.224 380.452 256.256C380.716 257.096 380.98 258.104 381.196 259.544C381.292 260.192 381.172 260.576 380.644 260.624C380.14 260.672 379.924 260.288 379.444 259.568C378.34 257.96 376.948 256.568 374.836 256.568C371.764 256.568 369.916 259.136 369.916 262.424C369.916 266.576 372.148 270.104 375.916 270.104C377.908 270.104 379.348 269.24 380.62 267.872C381.196 267.248 381.868 267.92 381.46 268.688C380.572 270.512 378.052 272.24 374.764 272.24ZM395.073 265.184L395.889 269.288C396.201 270.752 397.161 270.56 397.161 271.4C397.161 271.88 396.753 272 396.105 272H392.745C392.073 272 391.665 271.856 391.665 271.376C391.665 270.584 392.913 270.656 392.601 269.096L391.857 265.304C391.569 263.792 391.113 262.304 389.529 262.328C388.257 262.328 387.105 263.48 387.105 265.592V268.664C387.105 270.896 388.257 270.344 388.257 271.4C388.257 271.88 387.873 272 387.201 272H383.769C383.097 272 382.665 271.856 382.665 271.376C382.665 270.344 383.865 270.896 383.865 268.664L383.841 258.968C383.841 257.312 382.689 257.48 382.689 256.76C382.689 256.448 382.881 256.28 383.457 256.016C384.441 255.536 386.169 254.96 386.553 254.96C386.961 254.96 387.129 255.176 387.129 255.68L387.105 258.968V261.944C388.017 260.816 389.337 260.24 390.681 260.24C393.417 260.24 394.449 262.016 395.073 265.184ZM399.763 258.92C398.851 258.896 398.299 258.248 398.323 257.456C398.347 256.352 399.619 255.128 400.843 255.176C401.707 255.2 402.355 255.872 402.355 256.688C402.307 257.864 401.011 258.944 399.763 258.92ZM398.947 268.664V264.272C398.947 262.616 397.795 262.784 397.795 262.064C397.795 261.728 397.963 261.56 398.539 261.296C399.547 260.84 401.275 260.264 401.659 260.264C402.043 260.24 402.211 260.48 402.211 260.984L402.187 264.272V268.664C402.187 270.896 403.363 270.344 403.363 271.4C403.363 271.88 402.955 272 402.307 272H398.875C398.179 272 397.771 271.856 397.771 271.376C397.771 270.344 398.947 270.896 398.947 268.664ZM405.71 268.664L405.686 258.968C405.686 257.312 404.534 257.48 404.534 256.76C404.534 256.448 404.726 256.28 405.302 256.016C406.286 255.536 408.014 254.96 408.398 254.96C408.806 254.96 408.974 255.176 408.974 255.68L408.95 258.968V268.664C408.95 270.896 410.102 270.344 410.102 271.4C410.102 271.88 409.718 272 409.046 272H405.614C404.942 272 404.51 271.856 404.51 271.376C404.51 270.344 405.71 270.896 405.71 268.664ZM422.846 255.68L422.822 258.968L422.774 268.376C422.774 270.152 424.19 269.768 424.19 270.464C424.19 270.8 423.95 271.04 423.398 271.352C422.702 271.712 421.334 272.192 420.662 272.192C419.99 272.192 419.726 271.784 419.654 270.776L419.63 270.296C418.862 271.4 417.614 272.288 415.742 272.216C412.934 272.168 410.942 269.984 410.942 266.888C410.942 262.736 414.206 260.24 417.014 260.24C417.998 260.24 418.886 260.48 419.558 260.864V258.992C419.558 257.336 418.43 257.48 418.43 256.76C418.43 256.448 418.598 256.28 419.174 256.016C420.182 255.536 421.91 254.96 422.294 254.96C422.678 254.96 422.846 255.176 422.846 255.68ZM417.158 270.152C418.598 270.152 419.414 268.952 419.558 267.488V266.048C419.51 265.064 419.366 264.08 419.03 263.408C418.526 262.304 417.686 261.752 416.63 261.752C414.998 261.752 414.038 263.192 414.038 265.424C414.038 268.376 415.502 270.152 417.158 270.152ZM426.94 262.016C426.484 262.016 426.292 261.584 426.22 261.152C425.932 260 425.524 257.24 425.524 256.568C425.524 255.776 425.836 254.936 426.94 254.936C428.044 254.936 428.356 255.776 428.356 256.544C428.356 257.192 427.9 259.928 427.636 261.104C427.516 261.632 427.372 262.016 426.94 262.016ZM432.035 272.24C431.603 272.24 431.435 272.048 431.123 271.28C430.715 270.296 430.451 269.624 430.235 268.808C430.115 268.28 430.259 268.016 430.547 267.872C430.883 267.704 431.267 267.968 431.795 268.448C433.355 269.984 434.699 270.872 436.115 270.872C436.931 270.872 437.507 270.416 437.507 269.72C437.507 268.856 436.259 268.208 434.171 267.32C432.323 266.528 430.571 265.592 430.571 263.6C430.571 261.296 432.707 260.24 434.579 260.24C435.923 260.24 436.739 260.552 437.435 260.576C437.939 260.576 438.011 260.24 438.443 260.24C438.827 260.24 438.995 260.504 439.379 261.176C439.691 261.776 439.835 262.112 440.051 262.616C440.291 263.264 440.195 263.6 439.883 263.744C439.427 263.984 439.019 263.552 438.251 263C437.315 262.328 436.091 261.632 435.035 261.632C434.051 261.632 433.571 262.16 433.571 262.736C433.571 263.576 434.579 264.08 436.547 264.92C439.091 266.048 440.723 267.008 440.723 268.736C440.723 270.824 438.731 272.24 436.211 272.24C434.315 272.24 433.475 271.76 432.971 271.76C432.611 271.76 432.491 272.24 432.035 272.24ZM459.827 255.224H461.939C462.755 255.224 463.067 255.344 463.067 255.848C463.067 256.64 461.771 256.568 461.771 258.2V270.992C461.771 271.736 461.507 272 460.907 272C460.307 272 460.043 271.664 460.043 271.256C460.043 270.68 459.803 270.248 459.299 269.696L449.315 259.472L449.363 269C449.363 270.632 450.659 270.536 450.659 271.376C450.659 271.88 450.323 271.976 449.555 271.976H447.443C446.627 271.976 446.315 271.832 446.315 271.352C446.315 270.56 447.611 270.632 447.611 269V259.28C447.611 256.16 446.027 257.12 446.027 255.872C446.027 255.344 446.411 255.2 447.371 255.2H449.291C449.795 255.2 450.083 255.416 450.443 255.776L460.019 265.688V258.2C460.019 256.568 458.699 256.664 458.699 255.824C458.699 255.32 459.059 255.224 459.827 255.224ZM476.194 270.152C476.458 270.152 476.65 270.272 476.65 270.56C476.65 271.376 475.33 272.192 474.178 272.192C473.122 272.192 472.498 271.616 472.138 270.416C471.01 271.664 469.378 272.216 467.938 272.216C465.274 272.216 463.546 270.68 463.546 268.688C463.546 266.384 465.562 264.728 468.97 264.728C469.594 264.728 470.074 264.8 470.89 264.92C470.458 263.408 469.978 262.208 468.178 262.208C467.098 262.208 466.114 262.664 465.25 263.144C464.794 263.432 464.29 263.072 464.65 262.472C465.25 261.464 467.074 260.24 469.378 260.24C472.45 260.24 473.362 262.352 473.89 264.344L475.066 268.856C475.33 269.84 475.666 270.176 476.194 270.152ZM469.234 270.536C470.578 270.536 471.922 269.6 471.73 268.616C471.658 268.208 471.442 267.608 471.226 266.768C471.058 266.216 470.122 265.976 469.354 265.976C467.65 265.976 466.642 266.84 466.642 268.16C466.666 269.528 467.674 270.536 469.234 270.536ZM497.222 265.184L498.038 269.288C498.326 270.752 499.286 270.56 499.286 271.4C499.286 271.88 498.902 272 498.254 272H494.894C494.222 272 493.79 271.856 493.79 271.376C493.79 270.584 495.062 270.656 494.75 269.096L494.006 265.304C493.718 263.792 493.454 262.304 491.798 262.328C490.598 262.328 489.398 263.408 489.398 265.592V268.664C489.398 270.896 490.574 270.344 490.574 271.4C490.574 271.88 490.166 272 489.518 272H486.086C485.39 272 484.982 271.856 484.982 271.376C484.982 270.344 486.158 270.896 486.158 268.664V265.52C486.158 263.744 485.846 262.232 484.118 262.256C482.822 262.28 481.55 263.48 481.55 265.592V268.664C481.55 270.896 482.702 270.344 482.702 271.4C482.702 271.88 482.318 272 481.646 272H478.214C477.542 272 477.11 271.856 477.11 271.376C477.11 270.344 478.31 270.896 478.31 268.664V264.104C478.31 263.432 478.046 263 477.566 262.64C477.326 262.472 477.11 262.304 477.11 261.968C477.11 261.584 477.302 261.416 477.878 261.152C478.766 260.72 480.254 260.288 480.638 260.264C481.046 260.264 481.214 260.504 481.214 260.984V262.544C482.15 261.008 483.638 260.24 485.198 260.24C487.142 260.24 488.366 261.08 488.966 262.544C489.878 261.032 491.318 260.24 492.926 260.24C495.71 260.24 496.574 262.016 497.222 265.184ZM510.042 268.328C510.522 267.848 511.05 268.232 510.81 268.928C510.33 270.272 508.338 272.24 505.146 272.24C501.738 272.24 499.434 269.888 499.434 266.6C499.434 262.904 502.29 260.24 505.65 260.24C508.53 260.24 510.186 261.968 510.522 264.032C510.594 264.416 510.426 264.752 509.97 264.968C507.522 266.072 505.578 266.816 503.082 267.728C503.586 268.832 504.69 269.912 506.538 269.912C508.002 269.912 509.178 269.168 510.042 268.328ZM504.594 261.824C503.202 261.992 502.458 263.312 502.458 264.848C502.458 265.376 502.53 265.952 502.65 266.36C504.042 265.88 505.41 265.4 506.706 264.848C507.114 264.656 507.426 264.488 507.258 263.864C506.922 262.472 505.746 261.608 504.594 261.824Z" fill="#231F20"/>
<rect x="366" y="290.5" width="581" height="54" rx="11.5" fill="white"/>
<rect x="366" y="290.5" width="581" height="54" rx="11.5" stroke="#C9C9C9"/>
<path d="M380.832 324V311.04H383.046L389.922 322.128L389.49 322.218V311.04H391.326V324H389.112L382.236 312.912L382.668 312.822V324H380.832ZM399.668 324C399.608 323.772 399.566 323.52 399.542 323.244C399.53 322.968 399.524 322.632 399.524 322.236H399.434V317.862C399.434 317.274 399.284 316.836 398.984 316.548C398.696 316.248 398.234 316.098 397.598 316.098C396.986 316.098 396.494 316.218 396.122 316.458C395.762 316.698 395.552 317.04 395.492 317.484H393.71C393.794 316.62 394.184 315.93 394.88 315.414C395.576 314.898 396.506 314.64 397.67 314.64C398.87 314.64 399.77 314.922 400.37 315.486C400.97 316.038 401.27 316.854 401.27 317.934V322.236C401.27 322.512 401.288 322.794 401.324 323.082C401.36 323.37 401.414 323.676 401.486 324H399.668ZM396.5 324.18C395.564 324.18 394.82 323.952 394.268 323.496C393.716 323.028 393.44 322.398 393.44 321.606C393.44 320.79 393.728 320.148 394.304 319.68C394.892 319.2 395.732 318.876 396.824 318.708L399.848 318.222V319.536L397.112 319.968C396.5 320.064 396.038 320.226 395.726 320.454C395.426 320.682 395.276 321.012 395.276 321.444C395.276 321.864 395.414 322.182 395.69 322.398C395.978 322.602 396.392 322.704 396.932 322.704C397.652 322.704 398.246 322.53 398.714 322.182C399.194 321.834 399.434 321.396 399.434 320.868L399.668 322.2C399.452 322.836 399.068 323.328 398.516 323.676C397.964 324.012 397.292 324.18 396.5 324.18ZM403.806 324V314.82H405.588V316.98H405.678V324H403.806ZM409.998 324V318.006C409.998 317.382 409.854 316.926 409.566 316.638C409.278 316.35 408.864 316.206 408.324 316.206C407.82 316.206 407.364 316.326 406.956 316.566C406.56 316.794 406.248 317.118 406.02 317.538C405.792 317.946 405.678 318.432 405.678 318.996L405.444 316.854C405.744 316.17 406.194 315.63 406.794 315.234C407.406 314.838 408.09 314.64 408.846 314.64C409.758 314.64 410.484 314.904 411.024 315.432C411.576 315.96 411.852 316.656 411.852 317.52V324H409.998ZM416.19 324V318.006C416.19 317.382 416.04 316.926 415.74 316.638C415.452 316.35 415.038 316.206 414.498 316.206C414.006 316.206 413.556 316.326 413.148 316.566C412.752 316.794 412.434 317.118 412.194 317.538C411.966 317.946 411.852 318.432 411.852 318.996L411.474 316.854C411.786 316.17 412.254 315.63 412.878 315.234C413.514 314.838 414.222 314.64 415.002 314.64C415.926 314.64 416.664 314.91 417.216 315.45C417.768 315.978 418.044 316.686 418.044 317.574V324H416.19ZM424.518 324.18C423.594 324.18 422.778 323.976 422.07 323.568C421.374 323.16 420.828 322.596 420.432 321.876C420.036 321.156 419.838 320.328 419.838 319.392C419.838 318.444 420.03 317.616 420.414 316.908C420.81 316.188 421.362 315.63 422.07 315.234C422.778 314.838 423.588 314.64 424.5 314.64C425.388 314.64 426.156 314.832 426.804 315.216C427.464 315.588 427.968 316.11 428.316 316.782C428.676 317.454 428.856 318.252 428.856 319.176C428.856 319.32 428.85 319.458 428.838 319.59C428.838 319.71 428.826 319.836 428.802 319.968H421.098V318.564H427.488L427.02 319.122C427.02 318.138 426.798 317.388 426.354 316.872C425.91 316.356 425.292 316.098 424.5 316.098C423.648 316.098 422.97 316.392 422.466 316.98C421.974 317.556 421.728 318.36 421.728 319.392C421.728 320.436 421.974 321.252 422.466 321.84C422.97 322.428 423.666 322.722 424.554 322.722C425.094 322.722 425.562 322.614 425.958 322.398C426.354 322.17 426.648 321.84 426.84 321.408H428.604C428.304 322.272 427.794 322.95 427.074 323.442C426.366 323.934 425.514 324.18 424.518 324.18Z" fill="#141414" fill-opacity="0.6"/>
<path d="M374.764 390.24C369.868 390.24 366.46 387.024 366.46 381.936C366.46 376.968 370.252 372.96 375.22 372.96C376.708 372.96 377.572 373.368 378.148 373.368C378.748 373.368 378.916 372.984 379.468 372.984C379.9 372.984 380.164 373.224 380.452 374.256C380.716 375.096 380.98 376.104 381.196 377.544C381.292 378.192 381.172 378.576 380.644 378.624C380.14 378.672 379.924 378.288 379.444 377.568C378.34 375.96 376.948 374.568 374.836 374.568C371.764 374.568 369.916 377.136 369.916 380.424C369.916 384.576 372.148 388.104 375.916 388.104C377.908 388.104 379.348 387.24 380.62 385.872C381.196 385.248 381.868 385.92 381.46 386.688C380.572 388.512 378.052 390.24 374.764 390.24ZM395.073 383.184L395.889 387.288C396.201 388.752 397.161 388.56 397.161 389.4C397.161 389.88 396.753 390 396.105 390H392.745C392.073 390 391.665 389.856 391.665 389.376C391.665 388.584 392.913 388.656 392.601 387.096L391.857 383.304C391.569 381.792 391.113 380.304 389.529 380.328C388.257 380.328 387.105 381.48 387.105 383.592V386.664C387.105 388.896 388.257 388.344 388.257 389.4C388.257 389.88 387.873 390 387.201 390H383.769C383.097 390 382.665 389.856 382.665 389.376C382.665 388.344 383.865 388.896 383.865 386.664L383.841 376.968C383.841 375.312 382.689 375.48 382.689 374.76C382.689 374.448 382.881 374.28 383.457 374.016C384.441 373.536 386.169 372.96 386.553 372.96C386.961 372.96 387.129 373.176 387.129 373.68L387.105 376.968V379.944C388.017 378.816 389.337 378.24 390.681 378.24C393.417 378.24 394.449 380.016 395.073 383.184ZM399.763 376.92C398.851 376.896 398.299 376.248 398.323 375.456C398.347 374.352 399.619 373.128 400.843 373.176C401.707 373.2 402.355 373.872 402.355 374.688C402.307 375.864 401.011 376.944 399.763 376.92ZM398.947 386.664V382.272C398.947 380.616 397.795 380.784 397.795 380.064C397.795 379.728 397.963 379.56 398.539 379.296C399.547 378.84 401.275 378.264 401.659 378.264C402.043 378.24 402.211 378.48 402.211 378.984L402.187 382.272V386.664C402.187 388.896 403.363 388.344 403.363 389.4C403.363 389.88 402.955 390 402.307 390H398.875C398.179 390 397.771 389.856 397.771 389.376C397.771 388.344 398.947 388.896 398.947 386.664ZM405.71 386.664L405.686 376.968C405.686 375.312 404.534 375.48 404.534 374.76C404.534 374.448 404.726 374.28 405.302 374.016C406.286 373.536 408.014 372.96 408.398 372.96C408.806 372.96 408.974 373.176 408.974 373.68L408.95 376.968V386.664C408.95 388.896 410.102 388.344 410.102 389.4C410.102 389.88 409.718 390 409.046 390H405.614C404.942 390 404.51 389.856 404.51 389.376C404.51 388.344 405.71 388.896 405.71 386.664ZM422.846 373.68L422.822 376.968L422.774 386.376C422.774 388.152 424.19 387.768 424.19 388.464C424.19 388.8 423.95 389.04 423.398 389.352C422.702 389.712 421.334 390.192 420.662 390.192C419.99 390.192 419.726 389.784 419.654 388.776L419.63 388.296C418.862 389.4 417.614 390.288 415.742 390.216C412.934 390.168 410.942 387.984 410.942 384.888C410.942 380.736 414.206 378.24 417.014 378.24C417.998 378.24 418.886 378.48 419.558 378.864V376.992C419.558 375.336 418.43 375.48 418.43 374.76C418.43 374.448 418.598 374.28 419.174 374.016C420.182 373.536 421.91 372.96 422.294 372.96C422.678 372.96 422.846 373.176 422.846 373.68ZM417.158 388.152C418.598 388.152 419.414 386.952 419.558 385.488V384.048C419.51 383.064 419.366 382.08 419.03 381.408C418.526 380.304 417.686 379.752 416.63 379.752C414.998 379.752 414.038 381.192 414.038 383.424C414.038 386.376 415.502 388.152 417.158 388.152ZM426.94 380.016C426.484 380.016 426.292 379.584 426.22 379.152C425.932 378 425.524 375.24 425.524 374.568C425.524 373.776 425.836 372.936 426.94 372.936C428.044 372.936 428.356 373.776 428.356 374.544C428.356 375.192 427.9 377.928 427.636 379.104C427.516 379.632 427.372 380.016 426.94 380.016ZM432.035 390.24C431.603 390.24 431.435 390.048 431.123 389.28C430.715 388.296 430.451 387.624 430.235 386.808C430.115 386.28 430.259 386.016 430.547 385.872C430.883 385.704 431.267 385.968 431.795 386.448C433.355 387.984 434.699 388.872 436.115 388.872C436.931 388.872 437.507 388.416 437.507 387.72C437.507 386.856 436.259 386.208 434.171 385.32C432.323 384.528 430.571 383.592 430.571 381.6C430.571 379.296 432.707 378.24 434.579 378.24C435.923 378.24 436.739 378.552 437.435 378.576C437.939 378.576 438.011 378.24 438.443 378.24C438.827 378.24 438.995 378.504 439.379 379.176C439.691 379.776 439.835 380.112 440.051 380.616C440.291 381.264 440.195 381.6 439.883 381.744C439.427 381.984 439.019 381.552 438.251 381C437.315 380.328 436.091 379.632 435.035 379.632C434.051 379.632 433.571 380.16 433.571 380.736C433.571 381.576 434.579 382.08 436.547 382.92C439.091 384.048 440.723 385.008 440.723 386.736C440.723 388.824 438.731 390.24 436.211 390.24C434.315 390.24 433.475 389.76 432.971 389.76C432.611 389.76 432.491 390.24 432.035 390.24ZM454.787 390.24C449.723 390.264 446.339 386.832 446.339 381.936C446.339 376.968 450.011 372.96 454.955 372.96C456.803 372.96 457.715 373.368 458.291 373.368C458.891 373.368 459.011 372.984 459.587 372.984C460.019 372.984 460.355 373.224 460.571 374.256C460.763 375.096 460.955 376.128 461.171 377.592C461.267 378.24 461.123 378.624 460.571 378.672C460.067 378.72 459.803 378.336 459.299 377.616C458.195 376.08 457.115 374.568 454.547 374.544C451.475 374.544 449.795 377.208 449.795 380.376C449.795 385.032 451.955 388.464 455.579 388.464C456.803 388.464 458.435 387.936 458.435 386.808V385.008C458.435 382.68 456.011 383.352 456.011 382.224C455.987 381.72 456.323 381.552 457.331 381.552L461.651 381.504C462.371 381.504 462.731 381.672 462.755 382.176C462.755 383.112 461.843 382.704 461.843 384.984V386.64C461.843 388.344 458.747 390.216 454.787 390.24ZM474.885 386.328C475.365 385.848 475.893 386.232 475.653 386.928C475.173 388.272 473.181 390.24 469.989 390.24C466.581 390.24 464.277 387.888 464.277 384.6C464.277 380.904 467.133 378.24 470.493 378.24C473.373 378.24 475.029 379.968 475.365 382.032C475.437 382.416 475.269 382.752 474.813 382.968C472.365 384.072 470.421 384.816 467.925 385.728C468.429 386.832 469.533 387.912 471.381 387.912C472.845 387.912 474.021 387.168 474.885 386.328ZM469.437 379.824C468.045 379.992 467.301 381.312 467.301 382.848C467.301 383.376 467.373 383.952 467.493 384.36C468.885 383.88 470.253 383.4 471.549 382.848C471.957 382.656 472.269 382.488 472.101 381.864C471.765 380.472 470.589 379.608 469.437 379.824ZM489.096 383.184L489.912 387.288C490.224 388.752 491.184 388.56 491.184 389.4C491.184 389.88 490.776 390 490.128 390H486.768C486.096 390 485.688 389.856 485.688 389.376C485.688 388.584 486.936 388.656 486.624 387.096L485.88 383.304C485.592 381.792 485.136 380.304 483.552 380.328C482.28 380.328 481.128 381.48 481.128 383.592V386.664C481.128 388.896 482.28 388.344 482.28 389.4C482.28 389.88 481.896 390 481.224 390H477.792C477.12 390 476.688 389.856 476.688 389.376C476.688 388.344 477.888 388.896 477.888 386.664V382.104C477.888 381.432 477.624 381 477.144 380.64C476.904 380.472 476.688 380.304 476.688 379.968C476.688 379.584 476.88 379.416 477.456 379.152C478.344 378.72 479.832 378.288 480.216 378.264C480.624 378.264 480.792 378.504 480.792 378.984V380.424C481.704 378.984 483.168 378.24 484.704 378.24C487.44 378.24 488.472 380.016 489.096 383.184ZM503.205 373.68L503.181 376.968L503.133 386.376C503.133 388.152 504.549 387.768 504.549 388.464C504.549 388.8 504.309 389.04 503.757 389.352C503.061 389.712 501.693 390.192 501.021 390.192C500.349 390.192 500.085 389.784 500.013 388.776L499.989 388.296C499.221 389.4 497.973 390.288 496.101 390.216C493.293 390.168 491.301 387.984 491.301 384.888C491.301 380.736 494.565 378.24 497.373 378.24C498.357 378.24 499.245 378.48 499.917 378.864V376.992C499.917 375.336 498.789 375.48 498.789 374.76C498.789 374.448 498.957 374.28 499.533 374.016C500.541 373.536 502.269 372.96 502.653 372.96C503.037 372.96 503.205 373.176 503.205 373.68ZM497.517 388.152C498.957 388.152 499.773 386.952 499.917 385.488V384.048C499.869 383.064 499.725 382.08 499.389 381.408C498.885 380.304 498.045 379.752 496.989 379.752C495.357 379.752 494.397 381.192 494.397 383.424C494.397 386.376 495.861 388.152 497.517 388.152ZM515.656 386.328C516.136 385.848 516.664 386.232 516.424 386.928C515.944 388.272 513.952 390.24 510.76 390.24C507.352 390.24 505.048 387.888 505.048 384.6C505.048 380.904 507.904 378.24 511.264 378.24C514.144 378.24 515.8 379.968 516.136 382.032C516.208 382.416 516.04 382.752 515.584 382.968C513.136 384.072 511.192 384.816 508.696 385.728C509.2 386.832 510.304 387.912 512.152 387.912C513.616 387.912 514.792 387.168 515.656 386.328ZM510.208 379.824C508.816 379.992 508.072 381.312 508.072 382.848C508.072 383.376 508.144 383.952 508.264 384.36C509.656 383.88 511.024 383.4 512.32 382.848C512.728 382.656 513.04 382.488 512.872 381.864C512.536 380.472 511.36 379.608 510.208 379.824ZM524.875 378.24C526.243 378.24 527.011 379.128 527.011 380.304C527.011 381.264 526.507 381.888 525.835 381.912C524.659 381.912 524.707 380.664 523.555 380.664C522.691 380.664 521.899 381.672 521.899 383.424V386.664C521.899 388.896 523.051 388.344 523.051 389.4C523.051 389.88 522.667 390 521.995 390H518.563C517.891 390 517.459 389.856 517.459 389.376C517.459 388.344 518.659 388.896 518.659 386.664V382.104C518.659 381.432 518.395 381 517.915 380.64C517.675 380.472 517.459 380.304 517.459 379.968C517.459 379.584 517.651 379.416 518.227 379.152C519.115 378.72 520.603 378.288 520.987 378.264C521.395 378.264 521.563 378.504 521.563 378.984V380.4C522.451 378.936 523.723 378.24 524.875 378.24Z" fill="#231F20"/>
<rect x="366" y="408.5" width="581" height="54" rx="11.5" fill="white"/>
<rect x="366" y="408.5" width="581" height="54" rx="11.5" stroke="#C9C9C9"/>
<path d="M380.076 442L384.954 429.04H386.61L381.948 442H380.076ZM390.102 442L385.44 429.04H387.186L392.082 442H390.102ZM382.542 436.834H389.49V438.418H382.542V436.834ZM397.498 445.87C396.346 445.87 395.392 445.606 394.636 445.078C393.892 444.562 393.442 443.872 393.286 443.008H395.05C395.17 443.404 395.434 443.716 395.842 443.944C396.262 444.172 396.82 444.286 397.516 444.286C398.416 444.286 399.088 444.064 399.532 443.62C399.976 443.176 400.198 442.516 400.198 441.64V439.66L400.36 439.696C400.18 440.392 399.79 440.944 399.19 441.352C398.59 441.748 397.87 441.946 397.03 441.946C396.226 441.946 395.518 441.754 394.906 441.37C394.294 440.986 393.82 440.452 393.484 439.768C393.148 439.072 392.98 438.262 392.98 437.338C392.98 436.402 393.154 435.58 393.502 434.872C393.85 434.164 394.336 433.618 394.96 433.234C395.596 432.85 396.334 432.658 397.174 432.658C398.038 432.658 398.752 432.868 399.316 433.288C399.892 433.696 400.258 434.278 400.414 435.034L400.27 435.052V432.82H402.052V441.622C402.052 442.942 401.644 443.98 400.828 444.736C400.024 445.492 398.914 445.87 397.498 445.87ZM397.588 440.434C398.392 440.434 399.034 440.152 399.514 439.588C400.006 439.024 400.252 438.25 400.252 437.266C400.252 436.306 400.006 435.55 399.514 434.998C399.034 434.446 398.386 434.17 397.57 434.17C396.754 434.17 396.106 434.452 395.626 435.016C395.146 435.568 394.906 436.336 394.906 437.32C394.906 438.28 395.146 439.042 395.626 439.606C396.118 440.158 396.772 440.434 397.588 440.434ZM408.645 442.18C407.721 442.18 406.905 441.976 406.197 441.568C405.501 441.16 404.955 440.596 404.559 439.876C404.163 439.156 403.965 438.328 403.965 437.392C403.965 436.444 404.157 435.616 404.541 434.908C404.937 434.188 405.489 433.63 406.197 433.234C406.905 432.838 407.715 432.64 408.627 432.64C409.515 432.64 410.283 432.832 410.931 433.216C411.591 433.588 412.095 434.11 412.443 434.782C412.803 435.454 412.983 436.252 412.983 437.176C412.983 437.32 412.977 437.458 412.965 437.59C412.965 437.71 412.953 437.836 412.929 437.968H405.225V436.564H411.615L411.147 437.122C411.147 436.138 410.925 435.388 410.481 434.872C410.037 434.356 409.419 434.098 408.627 434.098C407.775 434.098 407.097 434.392 406.593 434.98C406.101 435.556 405.855 436.36 405.855 437.392C405.855 438.436 406.101 439.252 406.593 439.84C407.097 440.428 407.793 440.722 408.681 440.722C409.221 440.722 409.689 440.614 410.085 440.398C410.481 440.17 410.775 439.84 410.967 439.408H412.731C412.431 440.272 411.921 440.95 411.201 441.442C410.493 441.934 409.641 442.18 408.645 442.18Z" fill="#141414" fill-opacity="0.6"/>
<path opacity="0.8" fill-rule="evenodd" clip-rule="evenodd" d="M925.634 440.03C925.341 440.323 924.866 440.323 924.573 440.03L916.927 432.384C916.634 432.091 916.634 431.616 916.927 431.323L917.28 430.97C917.573 430.677 918.048 430.677 918.341 430.97L925.103 437.732L931.866 430.97C932.159 430.677 932.634 430.677 932.927 430.97L933.28 431.323C933.573 431.616 933.573 432.091 933.28 432.384L925.634 440.03Z" fill="black"/>
<rect x="365" y="487" width="582" height="48" rx="5" fill="url(#paint0_linear_18249_2540)"/>
<path d="M590.684 517V505.48H592.652L598.764 515.336L598.38 515.416V505.48H600.012V517H598.044L591.932 507.144L592.316 507.064V517H590.684ZM605.891 517.16C605.07 517.16 604.344 516.979 603.715 516.616C603.096 516.253 602.611 515.752 602.259 515.112C601.907 514.472 601.731 513.736 601.731 512.904C601.731 512.061 601.902 511.325 602.243 510.696C602.595 510.056 603.086 509.56 603.715 509.208C604.344 508.856 605.064 508.68 605.875 508.68C606.664 508.68 607.347 508.851 607.923 509.192C608.51 509.523 608.958 509.987 609.267 510.584C609.587 511.181 609.747 511.891 609.747 512.712C609.747 512.84 609.742 512.963 609.731 513.08C609.731 513.187 609.72 513.299 609.699 513.416H602.851V512.168H608.531L608.115 512.664C608.115 511.789 607.918 511.123 607.523 510.664C607.128 510.205 606.579 509.976 605.875 509.976C605.118 509.976 604.515 510.237 604.067 510.76C603.63 511.272 603.411 511.987 603.411 512.904C603.411 513.832 603.63 514.557 604.067 515.08C604.515 515.603 605.134 515.864 605.923 515.864C606.403 515.864 606.819 515.768 607.171 515.576C607.523 515.373 607.784 515.08 607.955 514.696H609.523C609.256 515.464 608.803 516.067 608.163 516.504C607.534 516.941 606.776 517.16 605.891 517.16ZM616.424 517L613.816 513.272L610.504 508.84H612.392L614.776 512.248L618.312 517H616.424ZM613.928 512.248L616.36 508.84H618.184L614.76 513.384L613.928 512.248ZM614.6 513.432L611.976 517H610.136L613.8 512.264L614.6 513.432ZM623.406 517.16C622.456 517.16 621.758 516.941 621.31 516.504C620.872 516.056 620.654 515.4 620.654 514.536V506.968L622.302 506.344V514.552C622.302 514.979 622.414 515.293 622.638 515.496C622.862 515.699 623.224 515.8 623.726 515.8C623.918 515.8 624.088 515.784 624.238 515.752C624.387 515.72 624.515 515.683 624.622 515.64V516.984C624.504 517.037 624.339 517.08 624.126 517.112C623.912 517.144 623.672 517.16 623.406 517.16ZM619.022 510.168V508.84H624.622V510.168H619.022ZM634.7 517.16C633.516 517.16 632.486 516.909 631.612 516.408C630.737 515.896 630.06 515.192 629.58 514.296C629.11 513.389 628.876 512.355 628.876 511.192C628.876 510.04 629.116 509.021 629.596 508.136C630.076 507.251 630.737 506.563 631.58 506.072C632.433 505.571 633.404 505.32 634.492 505.32C635.601 505.32 636.577 505.571 637.42 506.072C638.262 506.563 638.924 507.251 639.404 508.136C639.894 509.021 640.14 510.045 640.14 511.208C640.14 512.029 640.001 512.792 639.724 513.496C639.457 514.2 639.046 514.797 638.492 515.288C637.948 515.779 637.26 516.12 636.428 516.312L634.7 517.16ZM634.492 515.8C635.281 515.8 635.964 515.603 636.54 515.208C637.126 514.813 637.585 514.269 637.916 513.576C638.246 512.883 638.412 512.083 638.412 511.176C638.412 510.301 638.246 509.533 637.916 508.872C637.585 508.2 637.126 507.683 636.54 507.32C635.953 506.947 635.27 506.76 634.492 506.76C633.713 506.76 633.03 506.947 632.444 507.32C631.868 507.683 631.414 508.195 631.084 508.856C630.764 509.517 630.604 510.291 630.604 511.176C630.604 512.093 630.769 512.899 631.1 513.592C631.43 514.275 631.884 514.813 632.46 515.208C633.046 515.603 633.724 515.8 634.492 515.8ZM634.7 517.16L634.508 516.008L640.62 515.608V517C639.958 517 639.388 517.005 638.908 517.016C638.438 517.037 637.996 517.059 637.58 517.08C637.174 517.101 636.748 517.117 636.3 517.128C635.852 517.149 635.318 517.16 634.7 517.16ZM644.871 517.16C644.327 517.16 643.847 517.048 643.431 516.824C643.015 516.589 642.69 516.269 642.455 515.864C642.231 515.459 642.119 514.995 642.119 514.472V508.84H643.783V514.088C643.783 514.653 643.922 515.075 644.199 515.352C644.476 515.629 644.871 515.768 645.383 515.768C645.842 515.768 646.247 515.661 646.599 515.448C646.962 515.235 647.244 514.941 647.447 514.568C647.66 514.184 647.767 513.741 647.767 513.24L647.975 515.192C647.708 515.789 647.298 516.269 646.743 516.632C646.199 516.984 645.575 517.16 644.871 517.16ZM647.831 517V515.08H647.767V508.84H649.415V517H647.831ZM655.235 517.16C654.414 517.16 653.688 516.979 653.059 516.616C652.44 516.253 651.955 515.752 651.603 515.112C651.251 514.472 651.075 513.736 651.075 512.904C651.075 512.061 651.246 511.325 651.587 510.696C651.939 510.056 652.43 509.56 653.059 509.208C653.688 508.856 654.408 508.68 655.219 508.68C656.008 508.68 656.691 508.851 657.267 509.192C657.854 509.523 658.302 509.987 658.611 510.584C658.931 511.181 659.091 511.891 659.091 512.712C659.091 512.84 659.086 512.963 659.075 513.08C659.075 513.187 659.064 513.299 659.043 513.416H652.195V512.168H657.875L657.459 512.664C657.459 511.789 657.262 511.123 656.867 510.664C656.472 510.205 655.923 509.976 655.219 509.976C654.462 509.976 653.859 510.237 653.411 510.76C652.974 511.272 652.755 511.987 652.755 512.904C652.755 513.832 652.974 514.557 653.411 515.08C653.859 515.603 654.478 515.864 655.267 515.864C655.747 515.864 656.163 515.768 656.515 515.576C656.867 515.373 657.128 515.08 657.299 514.696H658.867C658.6 515.464 658.147 516.067 657.507 516.504C656.878 516.941 656.12 517.16 655.235 517.16ZM663.768 517.16C662.702 517.16 661.854 516.925 661.224 516.456C660.595 515.987 660.238 515.325 660.152 514.472H661.688C661.763 514.941 661.976 515.304 662.328 515.56C662.691 515.805 663.182 515.928 663.8 515.928C664.344 515.928 664.76 515.832 665.048 515.64C665.336 515.448 665.48 515.176 665.48 514.824C665.48 514.568 665.395 514.355 665.224 514.184C665.064 514.003 664.744 513.853 664.264 513.736L662.952 513.432C662.131 513.229 661.518 512.931 661.112 512.536C660.718 512.131 660.52 511.635 660.52 511.048C660.52 510.312 660.792 509.736 661.336 509.32C661.891 508.893 662.648 508.68 663.608 508.68C664.558 508.68 665.32 508.893 665.896 509.32C666.483 509.747 666.814 510.344 666.888 511.112H665.352C665.288 510.728 665.102 510.435 664.792 510.232C664.494 510.019 664.083 509.912 663.56 509.912C663.07 509.912 662.691 510.003 662.424 510.184C662.168 510.355 662.04 510.595 662.04 510.904C662.04 511.16 662.136 511.373 662.328 511.544C662.531 511.715 662.862 511.859 663.32 511.976L664.664 512.312C665.443 512.504 666.03 512.819 666.424 513.256C666.819 513.683 667.016 514.2 667.016 514.808C667.016 515.544 666.728 516.12 666.152 516.536C665.587 516.952 664.792 517.16 663.768 517.16ZM672.015 517.16C671.066 517.16 670.367 516.941 669.919 516.504C669.482 516.056 669.263 515.4 669.263 514.536V506.968L670.911 506.344V514.552C670.911 514.979 671.023 515.293 671.247 515.496C671.471 515.699 671.834 515.8 672.335 515.8C672.527 515.8 672.698 515.784 672.847 515.752C672.996 515.72 673.124 515.683 673.231 515.64V516.984C673.114 517.037 672.948 517.08 672.735 517.112C672.522 517.144 672.282 517.16 672.015 517.16ZM667.631 510.168V508.84H673.231V510.168H667.631ZM674.777 517V508.84H676.441V517H674.777ZM674.697 507.24V505.368H676.537V507.24H674.697ZM682.298 517.16C681.466 517.16 680.735 516.979 680.106 516.616C679.477 516.243 678.986 515.736 678.634 515.096C678.282 514.445 678.106 513.709 678.106 512.888C678.106 512.056 678.282 511.325 678.634 510.696C678.997 510.067 679.487 509.576 680.106 509.224C680.735 508.861 681.466 508.68 682.298 508.68C683.141 508.68 683.877 508.861 684.506 509.224C685.135 509.576 685.621 510.067 685.962 510.696C686.314 511.325 686.49 512.056 686.49 512.888C686.49 513.709 686.314 514.445 685.962 515.096C685.621 515.736 685.135 516.243 684.506 516.616C683.877 516.979 683.141 517.16 682.298 517.16ZM682.298 515.8C682.799 515.8 683.231 515.677 683.594 515.432C683.967 515.187 684.261 514.845 684.474 514.408C684.687 513.971 684.794 513.459 684.794 512.872C684.794 511.997 684.559 511.309 684.09 510.808C683.631 510.296 683.034 510.04 682.298 510.04C681.573 510.04 680.975 510.296 680.506 510.808C680.047 511.32 679.818 512.008 679.818 512.872C679.818 513.459 679.919 513.971 680.122 514.408C680.335 514.845 680.629 515.187 681.002 515.432C681.386 515.677 681.818 515.8 682.298 515.8ZM688.199 517V508.84H689.783V510.76H689.863V517H688.199ZM693.991 517V511.752C693.991 511.187 693.847 510.765 693.559 510.488C693.282 510.211 692.866 510.072 692.311 510.072C691.831 510.072 691.405 510.179 691.031 510.392C690.669 510.605 690.381 510.899 690.167 511.272C689.965 511.645 689.863 512.088 689.863 512.6L689.655 510.648C689.922 510.04 690.333 509.56 690.887 509.208C691.442 508.856 692.087 508.68 692.823 508.68C693.698 508.68 694.386 508.925 694.887 509.416C695.389 509.907 695.639 510.557 695.639 511.368V517H693.991Z" fill="white"/>
<path d="M709.5 511L721.318 511" stroke="white" stroke-width="1.5" stroke-linecap="square"/>
<path d="M717.086 505.586L722.5 511L717.086 516.414" stroke="white" stroke-width="1.5" stroke-linecap="square"/>
<rect x="47.5" y="40.5" width="68" height="68" rx="34" stroke="#747474"/>
<g clip-path="url(#clip0_18249_2540)">
<path d="M61.8699 75.4824C61.3273 74.9398 61.3273 74.0602 61.8699 73.5176L70.7116 64.6759C71.2542 64.1333 72.1338 64.1333 72.6764 64.6759C73.219 65.2184 73.219 66.0981 72.6764 66.6407L64.8171 74.5L72.6764 82.3593C73.219 82.9019 73.219 83.7816 72.6764 84.3241C72.1338 84.8667 71.2542 84.8667 70.7116 84.3241L61.8699 75.4824ZM101.754 75.8893H62.8523V73.1107H101.754V75.8893Z" fill="url(#paint1_linear_18249_2540)"/>
</g>
<defs>
<linearGradient id="paint0_linear_18249_2540" x1="365" y1="511" x2="947" y2="511" gradientUnits="userSpaceOnUse">
<stop stop-color="#650B9B"/>
<stop offset="1" stop-color="#300C96"/>
</linearGradient>
<linearGradient id="paint1_linear_18249_2540" x1="101.754" y1="75" x2="62.8523" y2="75" gradientUnits="userSpaceOnUse">
<stop stop-color="#650B9B"/>
<stop offset="1" stop-color="#300C96"/>
</linearGradient>
<clipPath id="clip0_18249_2540">
<rect width="40.7541" height="40.7541" fill="white" transform="matrix(-1 0 0 1 101.754 54.1229)"/>
</clipPath>
</defs>
</svg>
