<svg width="1312" height="840" viewBox="0 0 1312 840" fill="none" xmlns="http://www.w3.org/2000/svg">
<rect width="1312" height="840" rx="30" fill="#FEFAEF"/>
<rect x="369" y="280" width="79" height="4" rx="2" fill="#D9D9D9"/>
<rect x="468" y="280" width="79" height="4" rx="2" fill="#D9D9D9"/>
<rect x="567" y="280" width="79" height="4" rx="2" fill="#D9D9D9"/>
<rect x="666" y="280" width="79" height="4" rx="2" fill="#D9D9D9"/>
<rect x="765" y="280" width="79" height="4" rx="2" fill="#0209AA"/>
<rect x="864" y="280" width="79" height="4" rx="2" fill="#D9D9D9"/>
<path d="M367.564 352.2H372.7C377.812 352.2 380.74 354.768 380.74 358.464C380.74 362.064 378.196 363.888 373.396 363.888H371.668C371.284 363.888 371.188 363.936 371.188 364.368V364.992C371.188 367.848 372.7 367.176 372.7 368.328C372.7 368.832 372.364 369 371.38 369H367.564C366.604 369 366.22 368.832 366.22 368.328C366.22 367.176 367.804 367.848 367.804 364.992V356.28C367.804 353.16 366.22 354.12 366.22 352.872C366.22 352.344 366.604 352.2 367.564 352.2ZM373.228 362.424C375.724 362.424 377.284 361.248 377.284 358.848C377.284 355.56 375.148 353.616 372.652 353.616C371.308 353.616 371.188 353.76 371.188 354.264V361.656C371.188 362.208 371.572 362.424 373.228 362.424ZM382.764 365.664L382.74 355.968C382.74 354.312 381.588 354.48 381.588 353.76C381.588 353.448 381.78 353.28 382.356 353.016C383.34 352.536 385.068 351.96 385.452 351.96C385.86 351.96 386.028 352.176 386.028 352.68L386.004 355.968V365.664C386.004 367.896 387.156 367.344 387.156 368.4C387.156 368.88 386.772 369 386.1 369H382.668C381.996 369 381.564 368.856 381.564 368.376C381.564 367.344 382.764 367.896 382.764 365.664ZM398.604 365.328C399.084 364.848 399.612 365.232 399.372 365.928C398.892 367.272 396.9 369.24 393.708 369.24C390.3 369.24 387.996 366.888 387.996 363.6C387.996 359.904 390.852 357.24 394.212 357.24C397.092 357.24 398.748 358.968 399.084 361.032C399.156 361.416 398.988 361.752 398.532 361.968C396.084 363.072 394.14 363.816 391.644 364.728C392.148 365.832 393.252 366.912 395.1 366.912C396.564 366.912 397.74 366.168 398.604 365.328ZM393.156 358.824C391.764 358.992 391.02 360.312 391.02 361.848C391.02 362.376 391.092 362.952 391.212 363.36C392.604 362.88 393.972 362.4 395.268 361.848C395.676 361.656 395.988 361.488 395.82 360.864C395.484 359.472 394.308 358.608 393.156 358.824ZM412.816 367.152C413.08 367.152 413.272 367.272 413.272 367.56C413.272 368.376 411.952 369.192 410.8 369.192C409.744 369.192 409.12 368.616 408.76 367.416C407.632 368.664 406 369.216 404.56 369.216C401.896 369.216 400.168 367.68 400.168 365.688C400.168 363.384 402.184 361.728 405.592 361.728C406.216 361.728 406.696 361.8 407.512 361.92C407.08 360.408 406.6 359.208 404.8 359.208C403.72 359.208 402.736 359.664 401.872 360.144C401.416 360.432 400.912 360.072 401.272 359.472C401.872 358.464 403.696 357.24 406 357.24C409.072 357.24 409.984 359.352 410.512 361.344L411.688 365.856C411.952 366.84 412.288 367.176 412.816 367.152ZM405.856 367.536C407.2 367.536 408.544 366.6 408.352 365.616C408.28 365.208 408.064 364.608 407.848 363.768C407.68 363.216 406.744 362.976 405.976 362.976C404.272 362.976 403.264 363.84 403.264 365.16C403.288 366.528 404.296 367.536 405.856 367.536ZM415.605 369.24C415.173 369.24 415.005 369.048 414.693 368.28C414.285 367.296 414.021 366.624 413.805 365.808C413.685 365.28 413.829 365.016 414.117 364.872C414.453 364.704 414.837 364.968 415.365 365.448C416.925 366.984 418.269 367.872 419.685 367.872C420.501 367.872 421.077 367.416 421.077 366.72C421.077 365.856 419.829 365.208 417.741 364.32C415.893 363.528 414.141 362.592 414.141 360.6C414.141 358.296 416.277 357.24 418.149 357.24C419.493 357.24 420.309 357.552 421.005 357.576C421.509 357.576 421.581 357.24 422.013 357.24C422.397 357.24 422.565 357.504 422.949 358.176C423.261 358.776 423.405 359.112 423.621 359.616C423.861 360.264 423.765 360.6 423.453 360.744C422.997 360.984 422.589 360.552 421.821 360C420.885 359.328 419.661 358.632 418.605 358.632C417.621 358.632 417.141 359.16 417.141 359.736C417.141 360.576 418.149 361.08 420.117 361.92C422.661 363.048 424.293 364.008 424.293 365.736C424.293 367.824 422.301 369.24 419.781 369.24C417.885 369.24 417.045 368.76 416.541 368.76C416.181 368.76 416.061 369.24 415.605 369.24ZM435.883 365.328C436.363 364.848 436.891 365.232 436.651 365.928C436.171 367.272 434.179 369.24 430.987 369.24C427.579 369.24 425.275 366.888 425.275 363.6C425.275 359.904 428.131 357.24 431.491 357.24C434.371 357.24 436.027 358.968 436.363 361.032C436.435 361.416 436.267 361.752 435.811 361.968C433.363 363.072 431.419 363.816 428.923 364.728C429.427 365.832 430.531 366.912 432.379 366.912C433.843 366.912 435.019 366.168 435.883 365.328ZM430.435 358.824C429.043 358.992 428.299 360.312 428.299 361.848C428.299 362.376 428.371 362.952 428.491 363.36C429.883 362.88 431.251 362.4 432.547 361.848C432.955 361.656 433.267 361.488 433.099 360.864C432.763 359.472 431.587 358.608 430.435 358.824ZM445.515 364.896L445.083 365.928C444.339 367.8 445.707 367.488 445.707 368.352C445.707 368.88 445.227 368.976 444.603 368.976H442.467C441.699 368.976 441.219 368.856 441.219 368.376C441.219 367.488 442.515 367.728 443.235 365.928L447.555 355.176C448.155 353.664 446.739 353.76 446.739 352.848C446.739 352.416 447.003 352.2 447.507 352.2H450.219C450.651 352.2 450.939 352.392 451.107 352.8L456.267 365.832C457.059 367.824 458.043 367.416 458.043 368.304C458.043 368.832 457.707 369 456.771 369H452.907C452.139 369 451.755 368.832 451.755 368.328C451.755 367.392 453.339 367.728 452.619 365.832L452.259 364.968C451.971 364.224 451.971 364.224 448.899 364.224C445.779 364.224 445.779 364.224 445.515 364.896ZM448.923 362.712C451.371 362.712 451.371 362.712 451.131 362.064L448.899 356.328L446.667 361.992C446.379 362.712 446.379 362.712 448.923 362.712ZM469.84 352.68L469.816 355.968L469.768 365.376C469.768 367.152 471.184 366.768 471.184 367.464C471.184 367.8 470.944 368.04 470.392 368.352C469.696 368.712 468.328 369.192 467.656 369.192C466.984 369.192 466.72 368.784 466.648 367.776L466.624 367.296C465.856 368.4 464.608 369.288 462.736 369.216C459.928 369.168 457.936 366.984 457.936 363.888C457.936 359.736 461.2 357.24 464.008 357.24C464.992 357.24 465.88 357.48 466.552 357.864V355.992C466.552 354.336 465.424 354.48 465.424 353.76C465.424 353.448 465.592 353.28 466.168 353.016C467.176 352.536 468.904 351.96 469.288 351.96C469.672 351.96 469.84 352.176 469.84 352.68ZM464.152 367.152C465.592 367.152 466.408 365.952 466.552 364.488V363.048C466.504 362.064 466.36 361.08 466.024 360.408C465.52 359.304 464.68 358.752 463.624 358.752C461.992 358.752 461.032 360.192 461.032 362.424C461.032 365.376 462.496 367.152 464.152 367.152ZM483.587 352.68L483.563 355.968L483.515 365.376C483.515 367.152 484.931 366.768 484.931 367.464C484.931 367.8 484.691 368.04 484.139 368.352C483.443 368.712 482.075 369.192 481.403 369.192C480.731 369.192 480.467 368.784 480.395 367.776L480.371 367.296C479.603 368.4 478.355 369.288 476.483 369.216C473.675 369.168 471.683 366.984 471.683 363.888C471.683 359.736 474.947 357.24 477.755 357.24C478.739 357.24 479.627 357.48 480.299 357.864V355.992C480.299 354.336 479.171 354.48 479.171 353.76C479.171 353.448 479.339 353.28 479.915 353.016C480.923 352.536 482.651 351.96 483.035 351.96C483.419 351.96 483.587 352.176 483.587 352.68ZM477.899 367.152C479.339 367.152 480.155 365.952 480.299 364.488V363.048C480.251 362.064 480.107 361.08 479.771 360.408C479.267 359.304 478.427 358.752 477.371 358.752C475.739 358.752 474.779 360.192 474.779 362.424C474.779 365.376 476.243 367.152 477.899 367.152ZM493.494 364.896L493.062 365.928C492.318 367.8 493.686 367.488 493.686 368.352C493.686 368.88 493.206 368.976 492.582 368.976H490.446C489.678 368.976 489.198 368.856 489.198 368.376C489.198 367.488 490.494 367.728 491.214 365.928L495.534 355.176C496.134 353.664 494.718 353.76 494.718 352.848C494.718 352.416 494.982 352.2 495.486 352.2H498.198C498.63 352.2 498.918 352.392 499.086 352.8L504.246 365.832C505.038 367.824 506.022 367.416 506.022 368.304C506.022 368.832 505.686 369 504.75 369H500.886C500.118 369 499.734 368.832 499.734 368.328C499.734 367.392 501.318 367.728 500.598 365.832L500.238 364.968C499.95 364.224 499.95 364.224 496.878 364.224C493.758 364.224 493.758 364.224 493.494 364.896ZM496.902 362.712C499.35 362.712 499.35 362.712 499.11 362.064L496.878 356.328L494.646 361.992C494.358 362.712 494.358 362.712 496.902 362.712ZM519.097 362.184L519.913 366.288C520.225 367.752 521.185 367.56 521.185 368.4C521.185 368.88 520.777 369 520.129 369H516.769C516.097 369 515.689 368.856 515.689 368.376C515.689 367.584 516.937 367.656 516.625 366.096L515.881 362.304C515.593 360.792 515.137 359.304 513.553 359.328C512.281 359.328 511.129 360.48 511.129 362.592V365.664C511.129 367.896 512.281 367.344 512.281 368.4C512.281 368.88 511.897 369 511.225 369H507.793C507.121 369 506.689 368.856 506.689 368.376C506.689 367.344 507.889 367.896 507.889 365.664V361.104C507.889 360.432 507.625 360 507.145 359.64C506.905 359.472 506.689 359.304 506.689 358.968C506.689 358.584 506.881 358.416 507.457 358.152C508.345 357.72 509.833 357.288 510.217 357.264C510.625 357.264 510.793 357.504 510.793 357.984V359.424C511.705 357.984 513.169 357.24 514.705 357.24C517.441 357.24 518.473 359.016 519.097 362.184ZM527.42 364.992V356.208C527.42 353.352 525.884 354.024 525.884 352.872C525.884 352.368 526.22 352.2 527.228 352.2H531.044C531.98 352.2 532.364 352.368 532.364 352.872C532.364 354.024 530.804 353.352 530.804 356.208V364.992C530.804 367.848 532.316 367.176 532.316 368.328C532.316 368.832 531.98 369 530.996 369H527.18C526.22 369 525.836 368.832 525.836 368.328C525.836 367.176 527.42 367.848 527.42 364.992ZM553.557 362.184L554.373 366.288C554.661 367.752 555.621 367.56 555.621 368.4C555.621 368.88 555.237 369 554.589 369H551.229C550.557 369 550.125 368.856 550.125 368.376C550.125 367.584 551.397 367.656 551.085 366.096L550.341 362.304C550.053 360.792 549.789 359.304 548.133 359.328C546.933 359.328 545.733 360.408 545.733 362.592V365.664C545.733 367.896 546.909 367.344 546.909 368.4C546.909 368.88 546.501 369 545.853 369H542.421C541.725 369 541.317 368.856 541.317 368.376C541.317 367.344 542.493 367.896 542.493 365.664V362.52C542.493 360.744 542.181 359.232 540.453 359.256C539.157 359.28 537.885 360.48 537.885 362.592V365.664C537.885 367.896 539.037 367.344 539.037 368.4C539.037 368.88 538.653 369 537.981 369H534.549C533.877 369 533.445 368.856 533.445 368.376C533.445 367.344 534.645 367.896 534.645 365.664V361.104C534.645 360.432 534.381 360 533.901 359.64C533.661 359.472 533.445 359.304 533.445 358.968C533.445 358.584 533.637 358.416 534.213 358.152C535.101 357.72 536.589 357.288 536.973 357.264C537.381 357.264 537.549 357.504 537.549 357.984V359.544C538.485 358.008 539.973 357.24 541.533 357.24C543.477 357.24 544.701 358.08 545.301 359.544C546.213 358.032 547.653 357.24 549.261 357.24C552.045 357.24 552.909 359.016 553.557 362.184ZM568.506 367.152C568.77 367.152 568.962 367.272 568.962 367.56C568.962 368.376 567.642 369.192 566.49 369.192C565.434 369.192 564.81 368.616 564.45 367.416C563.322 368.664 561.69 369.216 560.25 369.216C557.586 369.216 555.858 367.68 555.858 365.688C555.858 363.384 557.874 361.728 561.282 361.728C561.906 361.728 562.386 361.8 563.202 361.92C562.77 360.408 562.29 359.208 560.49 359.208C559.41 359.208 558.426 359.664 557.562 360.144C557.106 360.432 556.602 360.072 556.962 359.472C557.562 358.464 559.386 357.24 561.69 357.24C564.762 357.24 565.674 359.352 566.202 361.344L567.378 365.856C567.642 366.84 567.978 367.176 568.506 367.152ZM561.546 367.536C562.89 367.536 564.234 366.6 564.042 365.616C563.97 365.208 563.754 364.608 563.538 363.768C563.37 363.216 562.434 362.976 561.666 362.976C559.962 362.976 558.954 363.84 558.954 365.16C558.978 366.528 559.986 367.536 561.546 367.536ZM578.542 366.984C580.774 366.984 581.974 368.184 581.974 369.816C581.974 372.384 579.19 374.064 574.99 374.064C572.422 374.064 569.542 373.224 569.542 371.16C569.542 370.416 570.07 369.6 571.054 369.216C570.19 368.784 569.566 368.088 569.566 367.104C569.566 366.216 570.118 365.424 571.438 364.848C570.406 364.176 569.782 363.168 569.782 361.896C569.782 359.376 572.182 357.312 575.398 357.24H575.902C576.478 357.264 576.742 357.312 577.222 357.312C577.75 357.312 578.542 357.048 579.382 356.04C579.646 355.704 579.958 355.464 580.39 355.464C580.918 355.464 581.374 355.872 581.374 356.472C581.374 357.552 580.198 358.176 579.094 358.344C579.934 359.04 580.414 360.024 580.414 361.2C580.414 363.744 578.206 365.616 574.966 365.688C574.078 365.712 573.262 365.592 572.566 365.376C572.302 365.568 572.11 365.856 572.11 366.168C572.11 366.984 573.07 367.224 574.222 367.224C575.59 367.224 577.51 366.984 578.542 366.984ZM574.87 358.536C573.718 358.536 572.902 359.52 572.902 360.912C572.902 362.736 573.742 364.416 575.374 364.416C576.502 364.416 577.27 363.456 577.27 361.992C577.246 360.384 576.478 358.536 574.87 358.536ZM575.638 372.648C577.942 372.648 579.07 371.952 579.07 370.872C579.07 370.296 578.71 369.72 577.51 369.792C576.214 369.792 575.134 369.936 573.67 369.912C572.95 369.888 572.206 370.2 572.206 371.016C572.206 372.096 573.55 372.648 575.638 372.648ZM592.557 365.328C593.037 364.848 593.565 365.232 593.325 365.928C592.845 367.272 590.853 369.24 587.661 369.24C584.253 369.24 581.949 366.888 581.949 363.6C581.949 359.904 584.805 357.24 588.165 357.24C591.045 357.24 592.701 358.968 593.037 361.032C593.109 361.416 592.941 361.752 592.485 361.968C590.037 363.072 588.093 363.816 585.597 364.728C586.101 365.832 587.205 366.912 589.053 366.912C590.517 366.912 591.693 366.168 592.557 365.328ZM587.109 358.824C585.717 358.992 584.973 360.312 584.973 361.848C584.973 362.376 585.045 362.952 585.165 363.36C586.557 362.88 587.925 362.4 589.221 361.848C589.629 361.656 589.941 361.488 589.773 360.864C589.437 359.472 588.261 358.608 587.109 358.824ZM606.725 369.24C602.165 369.24 598.805 365.928 598.805 361.248C598.805 356.112 602.597 351.96 607.733 351.96C612.557 351.96 615.653 355.488 615.653 360.12C615.653 365.304 611.933 369.24 606.725 369.24ZM607.973 367.344C611.021 367.344 612.341 364.896 612.341 361.944C612.341 357.888 610.157 353.664 606.605 353.664C603.605 353.664 602.117 356.256 602.117 359.064C602.117 363.216 604.349 367.344 607.973 367.344ZM622.066 353.544C621.394 353.544 620.842 354.096 620.842 355.368C620.842 356.256 621.13 357.48 621.778 357.48H624.058C624.49 357.48 624.946 357.6 624.802 358.32C624.682 359.04 624.25 359.16 623.77 359.136L621.778 359.064V365.688C621.778 368.16 623.434 367.344 623.434 368.4C623.434 368.88 623.026 369 622.378 369H618.466C617.794 369 617.386 368.856 617.386 368.376C617.386 367.464 618.562 367.896 618.562 365.688V358.92L617.89 358.896C617.41 358.872 616.978 358.8 617.074 358.2C617.17 357.576 617.602 357.48 618.106 357.48H618.562C618.562 353.76 620.41 351.96 622.834 351.96C624.61 351.96 625.762 353.112 625.762 354.6C625.762 355.536 625.066 355.968 624.514 355.968C623.818 355.968 623.506 355.488 623.338 354.96C623.098 354.168 622.762 353.544 622.066 353.544ZM642.25 352.224H644.602C645.37 352.224 645.85 352.344 645.85 352.824C645.85 353.712 644.458 353.424 643.402 355.128L639.346 361.56V364.992C639.346 367.848 640.858 367.176 640.858 368.328C640.858 368.832 640.522 369 639.538 369H635.722C634.762 369 634.378 368.832 634.378 368.328C634.378 367.176 635.962 367.848 635.962 364.992V361.56L631.594 355.128C630.394 353.376 629.362 353.712 629.362 352.824C629.362 352.32 629.794 352.2 630.514 352.2H634.978C635.674 352.2 636.082 352.344 636.082 352.824C636.082 353.712 634.642 353.448 635.722 355.152L638.698 359.712L641.434 355.152C642.49 353.376 641.17 353.712 641.17 352.848C641.17 352.32 641.65 352.224 642.25 352.224ZM648.6 369.24C645.408 369.24 642.96 367.104 642.96 363.696C642.96 360.096 645.768 357.24 649.584 357.24C652.896 357.24 655.176 359.688 655.176 362.88C655.176 366.504 652.416 369.24 648.6 369.24ZM649.632 367.656C651.264 367.656 651.984 366.216 651.984 364.56C651.984 361.776 650.568 358.824 648.504 358.824C646.776 358.824 646.128 360.456 646.128 362.16C646.128 364.968 647.568 367.656 649.632 367.656ZM668.36 357.96L668.336 361.248V365.424C668.336 367.176 669.728 366.792 669.728 367.488C669.728 367.824 669.488 368.088 668.96 368.376C668.24 368.76 666.896 369.216 666.224 369.216C665.552 369.216 665.264 368.832 665.216 367.824L665.192 367.176C664.208 368.496 662.672 369.216 661.376 369.216C658.784 369.216 657.32 367.464 657.32 364.392V361.248C657.32 359.592 656.168 359.76 656.168 359.04C656.168 358.728 656.336 358.56 656.912 358.296C657.92 357.816 659.648 357.24 660.032 357.24C660.416 357.24 660.584 357.456 660.584 357.96L660.56 361.248V364.224C660.56 366.048 661.064 367.2 662.504 367.176C663.776 367.152 665.096 365.808 665.096 363.768V361.248C665.096 359.592 663.944 359.76 663.944 359.04C663.944 358.728 664.112 358.56 664.688 358.296C665.696 357.816 667.424 357.24 667.808 357.24C668.192 357.24 668.36 357.456 668.36 357.96ZM677.565 357.24C678.933 357.24 679.701 358.128 679.701 359.304C679.701 360.264 679.197 360.888 678.525 360.912C677.349 360.912 677.397 359.664 676.245 359.664C675.381 359.664 674.589 360.672 674.589 362.424V365.664C674.589 367.896 675.741 367.344 675.741 368.4C675.741 368.88 675.357 369 674.685 369H671.253C670.581 369 670.149 368.856 670.149 368.376C670.149 367.344 671.349 367.896 671.349 365.664V361.104C671.349 360.432 671.085 360 670.605 359.64C670.365 359.472 670.149 359.304 670.149 358.968C670.149 358.584 670.341 358.416 670.917 358.152C671.805 357.72 673.293 357.288 673.677 357.264C674.085 357.264 674.253 357.504 674.253 357.984V359.4C675.141 357.936 676.413 357.24 677.565 357.24ZM693.551 369.24C688.655 369.24 685.247 366.024 685.247 360.936C685.247 355.968 689.039 351.96 694.007 351.96C695.495 351.96 696.359 352.368 696.935 352.368C697.535 352.368 697.703 351.984 698.255 351.984C698.687 351.984 698.951 352.224 699.239 353.256C699.503 354.096 699.767 355.104 699.983 356.544C700.079 357.192 699.959 357.576 699.431 357.624C698.927 357.672 698.711 357.288 698.231 356.568C697.127 354.96 695.735 353.568 693.623 353.568C690.551 353.568 688.703 356.136 688.703 359.424C688.703 363.576 690.935 367.104 694.703 367.104C696.695 367.104 698.135 366.24 699.407 364.872C699.983 364.248 700.655 364.92 700.247 365.688C699.359 367.512 696.839 369.24 693.551 369.24ZM713.86 362.184L714.676 366.288C714.988 367.752 715.948 367.56 715.948 368.4C715.948 368.88 715.54 369 714.892 369H711.532C710.86 369 710.452 368.856 710.452 368.376C710.452 367.584 711.7 367.656 711.388 366.096L710.644 362.304C710.356 360.792 709.9 359.304 708.316 359.328C707.044 359.328 705.892 360.48 705.892 362.592V365.664C705.892 367.896 707.044 367.344 707.044 368.4C707.044 368.88 706.66 369 705.988 369H702.556C701.884 369 701.452 368.856 701.452 368.376C701.452 367.344 702.652 367.896 702.652 365.664L702.628 355.968C702.628 354.312 701.476 354.48 701.476 353.76C701.476 353.448 701.668 353.28 702.244 353.016C703.228 352.536 704.956 351.96 705.34 351.96C705.748 351.96 705.916 352.176 705.916 352.68L705.892 355.968V358.944C706.804 357.816 708.124 357.24 709.468 357.24C712.204 357.24 713.236 359.016 713.86 362.184ZM718.55 355.92C717.638 355.896 717.086 355.248 717.11 354.456C717.134 353.352 718.406 352.128 719.63 352.176C720.494 352.2 721.142 352.872 721.142 353.688C721.094 354.864 719.798 355.944 718.55 355.92ZM717.734 365.664V361.272C717.734 359.616 716.582 359.784 716.582 359.064C716.582 358.728 716.75 358.56 717.326 358.296C718.334 357.84 720.062 357.264 720.446 357.264C720.83 357.24 720.998 357.48 720.998 357.984L720.974 361.272V365.664C720.974 367.896 722.15 367.344 722.15 368.4C722.15 368.88 721.742 369 721.094 369H717.662C716.966 369 716.558 368.856 716.558 368.376C716.558 367.344 717.734 367.896 717.734 365.664ZM724.496 365.664L724.472 355.968C724.472 354.312 723.32 354.48 723.32 353.76C723.32 353.448 723.512 353.28 724.088 353.016C725.072 352.536 726.8 351.96 727.184 351.96C727.592 351.96 727.76 352.176 727.76 352.68L727.736 355.968V365.664C727.736 367.896 728.888 367.344 728.888 368.4C728.888 368.88 728.504 369 727.832 369H724.4C723.728 369 723.296 368.856 723.296 368.376C723.296 367.344 724.496 367.896 724.496 365.664ZM741.633 352.68L741.609 355.968L741.561 365.376C741.561 367.152 742.977 366.768 742.977 367.464C742.977 367.8 742.737 368.04 742.185 368.352C741.489 368.712 740.121 369.192 739.449 369.192C738.777 369.192 738.513 368.784 738.441 367.776L738.417 367.296C737.649 368.4 736.401 369.288 734.529 369.216C731.721 369.168 729.729 366.984 729.729 363.888C729.729 359.736 732.993 357.24 735.801 357.24C736.785 357.24 737.673 357.48 738.345 357.864V355.992C738.345 354.336 737.217 354.48 737.217 353.76C737.217 353.448 737.385 353.28 737.961 353.016C738.969 352.536 740.697 351.96 741.081 351.96C741.465 351.96 741.633 352.176 741.633 352.68ZM735.945 367.152C737.385 367.152 738.201 365.952 738.345 364.488V363.048C738.297 362.064 738.153 361.08 737.817 360.408C737.313 359.304 736.473 358.752 735.417 358.752C733.785 358.752 732.825 360.192 732.825 362.424C732.825 365.376 734.289 367.152 735.945 367.152ZM757.996 358.944C760.708 359.52 762.196 361.248 762.196 363.528C762.196 366.864 759.556 369 754.876 369H749.26C748.3 369 747.916 368.856 747.916 368.328C747.916 367.08 749.5 368.04 749.5 364.92V356.28C749.5 353.16 747.916 354.12 747.916 352.872C747.916 352.344 748.3 352.2 749.26 352.2H754.156C757.756 352.2 760.276 353.184 760.3 355.848C760.324 357.288 759.532 358.416 757.996 358.944ZM752.884 354.48V357.816C752.884 358.392 753.58 358.344 754.132 358.344C756.052 358.344 756.964 357.672 756.964 356.304C756.964 354.864 755.764 353.712 753.892 353.712C753.292 353.712 752.884 353.856 752.884 354.48ZM754.828 367.488C757.3 367.488 758.524 366.456 758.524 364.152C758.524 361.8 756.868 359.928 753.892 359.928C753.028 359.928 752.884 360.144 752.884 360.72V365.808C752.884 366.984 753.172 367.488 754.828 367.488ZM773.725 365.328C774.205 364.848 774.733 365.232 774.493 365.928C774.013 367.272 772.021 369.24 768.829 369.24C765.421 369.24 763.117 366.888 763.117 363.6C763.117 359.904 765.973 357.24 769.333 357.24C772.213 357.24 773.869 358.968 774.205 361.032C774.277 361.416 774.109 361.752 773.653 361.968C771.205 363.072 769.261 363.816 766.765 364.728C767.269 365.832 768.373 366.912 770.221 366.912C771.685 366.912 772.861 366.168 773.725 365.328ZM768.277 358.824C766.885 358.992 766.141 360.312 766.141 361.848C766.141 362.376 766.213 362.952 766.333 363.36C767.725 362.88 769.093 362.4 770.389 361.848C770.797 361.656 771.109 361.488 770.941 360.864C770.605 359.472 769.429 358.608 768.277 358.824ZM776.753 365.664L776.729 355.968C776.729 354.312 775.577 354.48 775.577 353.76C775.577 353.448 775.769 353.28 776.345 353.016C777.329 352.536 779.057 351.96 779.441 351.96C779.849 351.96 780.017 352.176 780.017 352.68L779.993 355.968V365.664C779.993 367.896 781.145 367.344 781.145 368.4C781.145 368.88 780.761 369 780.089 369H776.657C775.985 369 775.553 368.856 775.553 368.376C775.553 367.344 776.753 367.896 776.753 365.664ZM787.625 369.24C784.433 369.24 781.985 367.104 781.985 363.696C781.985 360.096 784.793 357.24 788.609 357.24C791.921 357.24 794.201 359.688 794.201 362.88C794.201 366.504 791.441 369.24 787.625 369.24ZM788.657 367.656C790.289 367.656 791.009 366.216 791.009 364.56C791.009 361.776 789.593 358.824 787.529 358.824C785.801 358.824 785.153 360.456 785.153 362.16C785.153 364.968 786.593 367.656 788.657 367.656ZM811.338 357.456H813.042C813.714 357.456 814.122 357.6 814.122 358.08C814.122 358.968 813.162 358.632 812.322 360.576L809.01 368.28C808.866 368.592 808.698 368.856 807.786 369.024C806.946 369.168 806.634 369.072 806.49 368.664L803.922 361.752L801.474 368.28C801.354 368.592 800.994 368.856 800.322 369.024C799.41 369.24 799.098 369.072 798.93 368.664L795.69 360.6C794.922 358.632 793.938 358.968 793.938 358.056C793.938 357.576 794.346 357.456 794.994 357.456H798.666C799.338 357.456 799.77 357.6 799.77 358.08C799.77 358.968 798.378 358.632 799.17 360.6L801.066 365.304L803.754 358.152C803.874 357.84 804.018 357.6 804.642 357.456C805.458 357.264 805.746 357.432 805.89 357.84L808.746 365.328L810.786 360.576C811.602 358.632 810.306 358.968 810.306 358.056C810.306 357.576 810.69 357.456 811.338 357.456ZM825.302 369.216C823.502 369.216 822.446 368.784 821.798 368.784C821.102 368.784 821.006 369.24 820.526 369.24C820.07 369.24 819.782 368.952 819.614 367.92C819.422 366.768 819.23 365.664 819.134 364.416C819.11 363.768 819.23 363.36 819.686 363.36C820.118 363.36 820.31 363.648 820.742 364.368C821.438 365.712 822.854 367.656 825.566 367.656C827.342 367.656 828.086 366.576 828.134 365.448C828.182 363.792 826.166 362.904 824.15 361.872C821.534 360.552 819.398 359.592 819.398 356.76C819.398 354.144 821.846 351.984 825.398 351.984C826.574 351.984 827.558 352.32 828.11 352.32C828.71 352.32 828.854 351.984 829.334 351.984C829.766 351.984 830.03 352.224 830.246 353.256C830.438 354.096 830.63 355.08 830.726 356.136C830.774 356.784 830.63 357.192 830.126 357.192C829.742 357.192 829.454 356.88 828.998 356.184C828.206 355.008 826.91 353.496 825.038 353.496C823.502 353.496 822.662 354.36 822.662 355.56C822.662 357.096 824.03 357.84 826.526 359.112C829.286 360.504 831.566 361.44 831.59 364.128C831.638 367.344 828.542 369.216 825.302 369.216ZM838.627 369.24C835.435 369.24 832.987 367.104 832.987 363.696C832.987 360.096 835.795 357.24 839.611 357.24C842.923 357.24 845.203 359.688 845.203 362.88C845.203 366.504 842.443 369.24 838.627 369.24ZM839.659 367.656C841.291 367.656 842.011 366.216 842.011 364.56C842.011 361.776 840.595 358.824 838.531 358.824C836.803 358.824 836.155 360.456 836.155 362.16C836.155 364.968 837.595 367.656 839.659 367.656ZM872.02 352.2H874.18C874.924 352.2 875.428 352.32 875.428 352.824C875.428 353.712 874.084 353.448 873.46 355.272L869.02 368.256C868.9 368.592 868.66 368.904 867.7 369.048C866.644 369.24 866.26 369.12 866.092 368.664L862.66 358.608L859.396 368.28C859.3 368.616 859.036 368.904 858.076 369.048C857.092 369.216 856.708 369.12 856.54 368.664L851.86 355.32C851.212 353.472 850.108 353.712 850.108 352.848C850.108 352.32 850.492 352.2 851.236 352.2H855.076C855.748 352.2 856.18 352.344 856.18 352.824C856.18 353.712 854.884 353.544 855.46 355.32L858.748 365.232L861.868 356.256L861.58 355.32C860.98 353.448 859.876 353.712 859.876 352.848C859.876 352.32 860.26 352.2 861.004 352.2H864.844C865.516 352.2 865.948 352.344 865.948 352.824C865.948 353.712 864.652 353.544 865.204 355.32L868.324 365.136L871.612 355.272C872.26 353.376 870.94 353.688 870.94 352.824C870.94 352.32 871.396 352.2 872.02 352.2ZM883.921 365.328C884.401 364.848 884.929 365.232 884.689 365.928C884.209 367.272 882.217 369.24 879.025 369.24C875.617 369.24 873.313 366.888 873.313 363.6C873.313 359.904 876.169 357.24 879.529 357.24C882.409 357.24 884.065 358.968 884.401 361.032C884.473 361.416 884.305 361.752 883.849 361.968C881.401 363.072 879.457 363.816 876.961 364.728C877.465 365.832 878.569 366.912 880.417 366.912C881.881 366.912 883.057 366.168 883.921 365.328ZM878.473 358.824C877.081 358.992 876.337 360.312 876.337 361.848C876.337 362.376 876.409 362.952 876.529 363.36C877.921 362.88 879.289 362.4 880.585 361.848C880.993 361.656 881.305 361.488 881.137 360.864C880.801 359.472 879.625 358.608 878.473 358.824ZM898.473 369.24C893.577 369.24 890.169 366.024 890.169 360.936C890.169 355.968 893.961 351.96 898.929 351.96C900.417 351.96 901.281 352.368 901.857 352.368C902.457 352.368 902.625 351.984 903.177 351.984C903.609 351.984 903.873 352.224 904.161 353.256C904.425 354.096 904.689 355.104 904.905 356.544C905.001 357.192 904.881 357.576 904.353 357.624C903.849 357.672 903.633 357.288 903.153 356.568C902.049 354.96 900.657 353.568 898.545 353.568C895.473 353.568 893.625 356.136 893.625 359.424C893.625 363.576 895.857 367.104 899.625 367.104C901.617 367.104 903.057 366.24 904.329 364.872C904.905 364.248 905.577 364.92 905.169 365.688C904.281 367.512 901.761 369.24 898.473 369.24ZM918.758 367.152C919.022 367.152 919.214 367.272 919.214 367.56C919.214 368.376 917.894 369.192 916.742 369.192C915.686 369.192 915.062 368.616 914.702 367.416C913.574 368.664 911.942 369.216 910.502 369.216C907.838 369.216 906.11 367.68 906.11 365.688C906.11 363.384 908.126 361.728 911.534 361.728C912.158 361.728 912.638 361.8 913.454 361.92C913.022 360.408 912.542 359.208 910.742 359.208C909.662 359.208 908.678 359.664 907.814 360.144C907.358 360.432 906.854 360.072 907.214 359.472C907.814 358.464 909.638 357.24 911.942 357.24C915.014 357.24 915.926 359.352 916.454 361.344L917.63 365.856C917.894 366.84 918.23 367.176 918.758 367.152ZM911.798 367.536C913.142 367.536 914.486 366.6 914.294 365.616C914.222 365.208 914.006 364.608 913.79 363.768C913.622 363.216 912.686 362.976 911.918 362.976C910.214 362.976 909.206 363.84 909.206 365.16C909.23 366.528 910.238 367.536 911.798 367.536ZM932.224 362.184L933.04 366.288C933.352 367.752 934.312 367.56 934.312 368.4C934.312 368.88 933.904 369 933.256 369H929.896C929.224 369 928.816 368.856 928.816 368.376C928.816 367.584 930.064 367.656 929.752 366.096L929.008 362.304C928.72 360.792 928.264 359.304 926.68 359.328C925.408 359.328 924.256 360.48 924.256 362.592V365.664C924.256 367.896 925.408 367.344 925.408 368.4C925.408 368.88 925.024 369 924.352 369H920.92C920.248 369 919.816 368.856 919.816 368.376C919.816 367.344 921.016 367.896 921.016 365.664V361.104C921.016 360.432 920.752 360 920.272 359.64C920.032 359.472 919.816 359.304 919.816 358.968C919.816 358.584 920.008 358.416 920.584 358.152C921.472 357.72 922.96 357.288 923.344 357.264C923.752 357.264 923.92 357.504 923.92 357.984V359.424C924.832 357.984 926.296 357.24 927.832 357.24C930.568 357.24 931.6 359.016 932.224 362.184ZM367.804 400.992V392.208C367.804 389.352 366.268 390.024 366.268 388.872C366.268 388.368 366.604 388.2 367.612 388.2H371.428C372.364 388.2 372.748 388.368 372.748 388.872C372.748 390.024 371.188 389.352 371.188 392.208V400.992C371.188 403.848 372.7 403.176 372.7 404.328C372.7 404.832 372.364 405 371.38 405H367.564C366.604 405 366.22 404.832 366.22 404.328C366.22 403.176 367.804 403.848 367.804 400.992ZM386.237 398.184L387.053 402.288C387.365 403.752 388.325 403.56 388.325 404.4C388.325 404.88 387.917 405 387.269 405H383.909C383.237 405 382.829 404.856 382.829 404.376C382.829 403.584 384.077 403.656 383.765 402.096L383.021 398.304C382.733 396.792 382.277 395.304 380.693 395.328C379.421 395.328 378.269 396.48 378.269 398.592V401.664C378.269 403.896 379.421 403.344 379.421 404.4C379.421 404.88 379.037 405 378.365 405H374.933C374.261 405 373.829 404.856 373.829 404.376C373.829 403.344 375.029 403.896 375.029 401.664V397.104C375.029 396.432 374.765 396 374.285 395.64C374.045 395.472 373.829 395.304 373.829 394.968C373.829 394.584 374.021 394.416 374.597 394.152C375.485 393.72 376.973 393.288 377.357 393.264C377.765 393.264 377.933 393.504 377.933 393.984V395.424C378.845 393.984 380.309 393.24 381.845 393.24C384.581 393.24 385.613 395.016 386.237 398.184ZM394.225 405.24C390.553 405.24 388.441 402.6 388.441 399.624C388.441 395.952 391.249 393.24 394.705 393.24C397.681 393.24 399.553 395.16 399.553 397.224C399.553 398.328 398.809 398.88 398.017 398.88C397.009 398.88 396.625 398.208 396.409 397.368C395.977 395.856 395.233 394.8 393.961 394.776C392.449 394.776 391.561 396.072 391.561 397.968C391.561 400.92 393.169 402.912 395.665 402.912C397.129 402.912 398.017 402.24 398.857 401.472C399.361 401.016 399.841 401.376 399.601 402.096C399.145 403.416 397.417 405.24 394.225 405.24ZM406.351 405.24C403.159 405.24 400.711 403.104 400.711 399.696C400.711 396.096 403.519 393.24 407.335 393.24C410.647 393.24 412.927 395.688 412.927 398.88C412.927 402.504 410.167 405.24 406.351 405.24ZM407.383 403.656C409.015 403.656 409.735 402.216 409.735 400.56C409.735 397.776 408.319 394.824 406.255 394.824C404.527 394.824 403.879 396.456 403.879 398.16C403.879 400.968 405.319 403.656 407.383 403.656ZM421.524 393.24C422.892 393.24 423.66 394.128 423.66 395.304C423.66 396.264 423.156 396.888 422.484 396.912C421.308 396.912 421.356 395.664 420.204 395.664C419.34 395.664 418.548 396.672 418.548 398.424V401.664C418.548 403.896 419.7 403.344 419.7 404.4C419.7 404.88 419.316 405 418.644 405H415.212C414.54 405 414.108 404.856 414.108 404.376C414.108 403.344 415.308 403.896 415.308 401.664V397.104C415.308 396.432 415.044 396 414.564 395.64C414.324 395.472 414.108 395.304 414.108 394.968C414.108 394.584 414.3 394.416 414.876 394.152C415.764 393.72 417.252 393.288 417.636 393.264C418.044 393.264 418.212 393.504 418.212 393.984V395.4C419.1 393.936 420.372 393.24 421.524 393.24ZM432.752 393.24C435.464 393.24 437.624 395.352 437.624 398.832C437.624 403.08 434.84 405.24 432.32 405.24C431.048 405.24 429.896 404.784 429.056 404.256V406.464C429.056 408.696 430.232 408.144 430.232 409.2C430.232 409.68 429.824 409.8 429.176 409.8H425.744C425.048 409.8 424.64 409.656 424.64 409.2C424.64 408.144 425.816 408.696 425.816 406.464V397.056C425.816 396.384 425.552 395.952 425.072 395.616C424.856 395.424 424.616 395.256 424.616 394.92C424.616 394.536 424.808 394.368 425.384 394.104C426.296 393.696 427.784 393.24 428.144 393.24C428.552 393.24 428.72 393.456 428.72 393.96V395.352C429.488 394.224 430.76 393.24 432.752 393.24ZM432.104 403.752C433.808 403.728 434.48 401.904 434.48 400.176C434.48 397.32 433.304 395.208 431.552 395.208C430.04 395.208 429.056 396.672 429.056 398.4V398.472L429.08 400.032C429.104 402.384 430.64 403.752 432.104 403.752ZM444.357 405.24C441.165 405.24 438.717 403.104 438.717 399.696C438.717 396.096 441.525 393.24 445.341 393.24C448.653 393.24 450.933 395.688 450.933 398.88C450.933 402.504 448.173 405.24 444.357 405.24ZM445.389 403.656C447.021 403.656 447.741 402.216 447.741 400.56C447.741 397.776 446.325 394.824 444.261 394.824C442.533 394.824 441.885 396.456 441.885 398.16C441.885 400.968 443.325 403.656 445.389 403.656ZM459.529 393.24C460.897 393.24 461.665 394.128 461.665 395.304C461.665 396.264 461.161 396.888 460.489 396.912C459.313 396.912 459.361 395.664 458.209 395.664C457.345 395.664 456.553 396.672 456.553 398.424V401.664C456.553 403.896 457.705 403.344 457.705 404.4C457.705 404.88 457.321 405 456.649 405H453.217C452.545 405 452.113 404.856 452.113 404.376C452.113 403.344 453.313 403.896 453.313 401.664V397.104C453.313 396.432 453.049 396 452.569 395.64C452.329 395.472 452.113 395.304 452.113 394.968C452.113 394.584 452.305 394.416 452.881 394.152C453.769 393.72 455.257 393.288 455.641 393.264C456.049 393.264 456.217 393.504 456.217 393.984V395.4C457.105 393.936 458.377 393.24 459.529 393.24ZM474.4 403.152C474.664 403.152 474.856 403.272 474.856 403.56C474.856 404.376 473.536 405.192 472.384 405.192C471.328 405.192 470.704 404.616 470.344 403.416C469.216 404.664 467.584 405.216 466.144 405.216C463.48 405.216 461.752 403.68 461.752 401.688C461.752 399.384 463.768 397.728 467.176 397.728C467.8 397.728 468.28 397.8 469.096 397.92C468.664 396.408 468.184 395.208 466.384 395.208C465.304 395.208 464.32 395.664 463.456 396.144C463 396.432 462.496 396.072 462.856 395.472C463.456 394.464 465.28 393.24 467.584 393.24C470.656 393.24 471.568 395.352 472.096 397.344L473.272 401.856C473.536 402.84 473.872 403.176 474.4 403.152ZM467.44 403.536C468.784 403.536 470.128 402.6 469.936 401.616C469.864 401.208 469.648 400.608 469.432 399.768C469.264 399.216 468.328 398.976 467.56 398.976C465.856 398.976 464.848 399.84 464.848 401.16C464.872 402.528 465.88 403.536 467.44 403.536ZM482.401 402.288C482.857 401.952 483.265 402.288 483.097 402.792C482.737 403.872 481.489 405.24 479.473 405.24C477.313 405.24 476.065 403.896 476.065 401.448V400.2C476.065 398.064 476.089 396.24 476.137 394.992H475.489C474.841 394.992 474.649 394.776 474.649 394.368C474.649 394.08 474.745 393.792 475.009 393.552C475.897 392.64 477.049 391.704 478.033 391.104C478.585 390.792 478.777 390.768 478.921 390.768C479.257 390.768 479.473 391.08 479.449 391.44C479.377 392.088 479.353 392.736 479.329 393.48H481.705C482.161 393.48 482.545 393.6 482.401 394.32C482.257 395.04 481.849 395.16 481.369 395.136L479.305 395.064C479.305 396.384 479.305 398.016 479.281 400.2C479.257 402.336 479.593 402.984 480.673 402.984C481.297 402.984 481.897 402.672 482.401 402.288ZM494.022 401.328C494.502 400.848 495.03 401.232 494.79 401.928C494.31 403.272 492.318 405.24 489.126 405.24C485.718 405.24 483.414 402.888 483.414 399.6C483.414 395.904 486.27 393.24 489.63 393.24C492.51 393.24 494.166 394.968 494.502 397.032C494.574 397.416 494.406 397.752 493.95 397.968C491.502 399.072 489.558 399.816 487.062 400.728C487.566 401.832 488.67 402.912 490.518 402.912C491.982 402.912 493.158 402.168 494.022 401.328ZM488.574 394.824C487.182 394.992 486.438 396.312 486.438 397.848C486.438 398.376 486.51 398.952 486.63 399.36C488.022 398.88 489.39 398.4 490.686 397.848C491.094 397.656 491.406 397.488 491.238 396.864C490.902 395.472 489.726 394.608 488.574 394.824ZM512.366 388.224H514.718C515.486 388.224 515.966 388.344 515.966 388.824C515.966 389.712 514.574 389.424 513.518 391.128L509.462 397.56V400.992C509.462 403.848 510.974 403.176 510.974 404.328C510.974 404.832 510.638 405 509.654 405H505.838C504.878 405 504.494 404.832 504.494 404.328C504.494 403.176 506.078 403.848 506.078 400.992V397.56L501.71 391.128C500.51 389.376 499.478 389.712 499.478 388.824C499.478 388.32 499.91 388.2 500.63 388.2H505.094C505.79 388.2 506.198 388.344 506.198 388.824C506.198 389.712 504.758 389.448 505.838 391.152L508.814 395.712L511.55 391.152C512.606 389.376 511.286 389.712 511.286 388.848C511.286 388.32 511.766 388.224 512.366 388.224ZM518.715 405.24C515.523 405.24 513.075 403.104 513.075 399.696C513.075 396.096 515.883 393.24 519.699 393.24C523.011 393.24 525.291 395.688 525.291 398.88C525.291 402.504 522.531 405.24 518.715 405.24ZM519.747 403.656C521.379 403.656 522.099 402.216 522.099 400.56C522.099 397.776 520.683 394.824 518.619 394.824C516.891 394.824 516.243 396.456 516.243 398.16C516.243 400.968 517.683 403.656 519.747 403.656ZM538.476 393.96L538.452 397.248V401.424C538.452 403.176 539.844 402.792 539.844 403.488C539.844 403.824 539.604 404.088 539.076 404.376C538.356 404.76 537.012 405.216 536.34 405.216C535.668 405.216 535.38 404.832 535.332 403.824L535.308 403.176C534.324 404.496 532.788 405.216 531.492 405.216C528.9 405.216 527.436 403.464 527.436 400.392V397.248C527.436 395.592 526.284 395.76 526.284 395.04C526.284 394.728 526.452 394.56 527.028 394.296C528.036 393.816 529.764 393.24 530.148 393.24C530.532 393.24 530.7 393.456 530.7 393.96L530.676 397.248V400.224C530.676 402.048 531.18 403.2 532.62 403.176C533.892 403.152 535.212 401.808 535.212 399.768V397.248C535.212 395.592 534.06 395.76 534.06 395.04C534.06 394.728 534.228 394.56 534.804 394.296C535.812 393.816 537.54 393.24 537.924 393.24C538.308 393.24 538.476 393.456 538.476 393.96ZM547.681 393.24C549.049 393.24 549.817 394.128 549.817 395.304C549.817 396.264 549.313 396.888 548.641 396.912C547.465 396.912 547.513 395.664 546.361 395.664C545.497 395.664 544.705 396.672 544.705 398.424V401.664C544.705 403.896 545.857 403.344 545.857 404.4C545.857 404.88 545.473 405 544.801 405H541.369C540.697 405 540.265 404.856 540.265 404.376C540.265 403.344 541.465 403.896 541.465 401.664V397.104C541.465 396.432 541.201 396 540.721 395.64C540.481 395.472 540.265 395.304 540.265 394.968C540.265 394.584 540.457 394.416 541.033 394.152C541.921 393.72 543.409 393.288 543.793 393.264C544.201 393.264 544.369 393.504 544.369 393.984V395.4C545.257 393.936 546.529 393.24 547.681 393.24ZM563.666 405.24C558.77 405.24 555.362 402.024 555.362 396.936C555.362 391.968 559.154 387.96 564.122 387.96C565.61 387.96 566.474 388.368 567.05 388.368C567.65 388.368 567.818 387.984 568.37 387.984C568.802 387.984 569.066 388.224 569.354 389.256C569.618 390.096 569.882 391.104 570.098 392.544C570.194 393.192 570.074 393.576 569.546 393.624C569.042 393.672 568.826 393.288 568.346 392.568C567.242 390.96 565.85 389.568 563.738 389.568C560.666 389.568 558.818 392.136 558.818 395.424C558.818 399.576 561.05 403.104 564.818 403.104C566.81 403.104 568.25 402.24 569.522 400.872C570.098 400.248 570.77 400.92 570.362 401.688C569.474 403.512 566.954 405.24 563.666 405.24ZM583.976 398.184L584.792 402.288C585.104 403.752 586.064 403.56 586.064 404.4C586.064 404.88 585.656 405 585.008 405H581.648C580.976 405 580.568 404.856 580.568 404.376C580.568 403.584 581.816 403.656 581.504 402.096L580.76 398.304C580.472 396.792 580.016 395.304 578.432 395.328C577.16 395.328 576.008 396.48 576.008 398.592V401.664C576.008 403.896 577.16 403.344 577.16 404.4C577.16 404.88 576.776 405 576.104 405H572.672C572 405 571.568 404.856 571.568 404.376C571.568 403.344 572.768 403.896 572.768 401.664L572.744 391.968C572.744 390.312 571.592 390.48 571.592 389.76C571.592 389.448 571.784 389.28 572.36 389.016C573.344 388.536 575.072 387.96 575.456 387.96C575.864 387.96 576.032 388.176 576.032 388.68L576.008 391.968V394.944C576.92 393.816 578.24 393.24 579.584 393.24C582.32 393.24 583.352 395.016 583.976 398.184ZM588.666 391.92C587.754 391.896 587.202 391.248 587.226 390.456C587.25 389.352 588.522 388.128 589.746 388.176C590.61 388.2 591.258 388.872 591.258 389.688C591.21 390.864 589.914 391.944 588.666 391.92ZM587.85 401.664V397.272C587.85 395.616 586.698 395.784 586.698 395.064C586.698 394.728 586.866 394.56 587.442 394.296C588.45 393.84 590.178 393.264 590.562 393.264C590.946 393.24 591.114 393.48 591.114 393.984L591.09 397.272V401.664C591.09 403.896 592.266 403.344 592.266 404.4C592.266 404.88 591.858 405 591.21 405H587.778C587.082 405 586.674 404.856 586.674 404.376C586.674 403.344 587.85 403.896 587.85 401.664ZM594.612 401.664L594.588 391.968C594.588 390.312 593.436 390.48 593.436 389.76C593.436 389.448 593.628 389.28 594.204 389.016C595.188 388.536 596.916 387.96 597.3 387.96C597.708 387.96 597.876 388.176 597.876 388.68L597.852 391.968V401.664C597.852 403.896 599.004 403.344 599.004 404.4C599.004 404.88 598.62 405 597.948 405H594.516C593.844 405 593.412 404.856 593.412 404.376C593.412 403.344 594.612 403.896 594.612 401.664ZM611.749 388.68L611.725 391.968L611.677 401.376C611.677 403.152 613.093 402.768 613.093 403.464C613.093 403.8 612.853 404.04 612.301 404.352C611.605 404.712 610.237 405.192 609.565 405.192C608.893 405.192 608.629 404.784 608.557 403.776L608.533 403.296C607.765 404.4 606.517 405.288 604.645 405.216C601.837 405.168 599.845 402.984 599.845 399.888C599.845 395.736 603.109 393.24 605.917 393.24C606.901 393.24 607.789 393.48 608.461 393.864V391.992C608.461 390.336 607.333 390.48 607.333 389.76C607.333 389.448 607.501 389.28 608.077 389.016C609.085 388.536 610.813 387.96 611.197 387.96C611.581 387.96 611.749 388.176 611.749 388.68ZM606.061 403.152C607.501 403.152 608.317 401.952 608.461 400.488V399.048C608.413 398.064 608.269 397.08 607.933 396.408C607.429 395.304 606.589 394.752 605.533 394.752C603.901 394.752 602.941 396.192 602.941 398.424C602.941 401.376 604.405 403.152 606.061 403.152ZM619.616 400.992V392.208C619.616 389.352 618.08 390.024 618.08 388.872C618.08 388.368 618.416 388.2 619.424 388.2H623.24C624.176 388.2 624.56 388.368 624.56 388.872C624.56 390.024 623 389.352 623 392.208V400.992C623 403.848 624.512 403.176 624.512 404.328C624.512 404.832 624.176 405 623.192 405H619.376C618.416 405 618.032 404.832 618.032 404.328C618.032 403.176 619.616 403.848 619.616 400.992ZM638.048 398.184L638.864 402.288C639.176 403.752 640.136 403.56 640.136 404.4C640.136 404.88 639.728 405 639.08 405H635.72C635.048 405 634.64 404.856 634.64 404.376C634.64 403.584 635.888 403.656 635.576 402.096L634.832 398.304C634.544 396.792 634.088 395.304 632.504 395.328C631.232 395.328 630.08 396.48 630.08 398.592V401.664C630.08 403.896 631.232 403.344 631.232 404.4C631.232 404.88 630.848 405 630.176 405H626.744C626.072 405 625.64 404.856 625.64 404.376C625.64 403.344 626.84 403.896 626.84 401.664V397.104C626.84 396.432 626.576 396 626.096 395.64C625.856 395.472 625.64 395.304 625.64 394.968C625.64 394.584 625.832 394.416 626.408 394.152C627.296 393.72 628.784 393.288 629.168 393.264C629.576 393.264 629.744 393.504 629.744 393.984V395.424C630.656 393.984 632.12 393.24 633.656 393.24C636.392 393.24 637.424 395.016 638.048 398.184ZM647.667 402.288C648.123 401.952 648.531 402.288 648.363 402.792C648.003 403.872 646.755 405.24 644.739 405.24C642.579 405.24 641.331 403.896 641.331 401.448V400.2C641.331 398.064 641.355 396.24 641.403 394.992H640.755C640.107 394.992 639.915 394.776 639.915 394.368C639.915 394.08 640.011 393.792 640.275 393.552C641.163 392.64 642.315 391.704 643.299 391.104C643.851 390.792 644.043 390.768 644.187 390.768C644.523 390.768 644.739 391.08 644.715 391.44C644.643 392.088 644.619 392.736 644.595 393.48H646.971C647.427 393.48 647.811 393.6 647.667 394.32C647.523 395.04 647.115 395.16 646.635 395.136L644.571 395.064C644.571 396.384 644.571 398.016 644.547 400.2C644.523 402.336 644.859 402.984 645.939 402.984C646.563 402.984 647.163 402.672 647.667 402.288ZM654.319 405.24C651.127 405.24 648.679 403.104 648.679 399.696C648.679 396.096 651.487 393.24 655.303 393.24C658.615 393.24 660.895 395.688 660.895 398.88C660.895 402.504 658.135 405.24 654.319 405.24ZM655.351 403.656C656.983 403.656 657.703 402.216 657.703 400.56C657.703 397.776 656.287 394.824 654.223 394.824C652.495 394.824 651.847 396.456 651.847 398.16C651.847 400.968 653.287 403.656 655.351 403.656ZM675.04 390.864V400.992C675.04 403.848 676.576 403.176 676.576 404.328C676.576 404.832 676.24 405 675.232 405H671.416C670.456 405 670.072 404.832 670.072 404.328C670.072 403.176 671.656 403.848 671.656 400.992V390.864C671.656 390.144 671.344 389.808 670.576 389.808C668.992 389.808 668.536 390.648 667.672 392.28C667.384 392.88 667.144 393.168 666.784 393.168C666.28 393.168 666.16 392.76 666.184 392.112C666.232 390.792 666.352 389.88 666.544 389.208C666.736 388.488 667.096 388.2 668.56 388.2H678.136C679.6 388.2 679.96 388.488 680.128 389.184C680.32 389.88 680.464 390.792 680.488 392.112C680.512 392.736 680.416 393.168 679.912 393.168C679.552 393.168 679.312 392.88 679 392.28C678.16 390.624 677.68 389.784 676.096 389.784C675.376 389.784 675.04 390.144 675.04 390.864ZM692.954 398.184L693.77 402.288C694.082 403.752 695.042 403.56 695.042 404.4C695.042 404.88 694.634 405 693.986 405H690.626C689.954 405 689.546 404.856 689.546 404.376C689.546 403.584 690.794 403.656 690.482 402.096L689.738 398.304C689.45 396.792 688.994 395.304 687.41 395.328C686.138 395.328 684.986 396.48 684.986 398.592V401.664C684.986 403.896 686.138 403.344 686.138 404.4C686.138 404.88 685.754 405 685.082 405H681.65C680.978 405 680.546 404.856 680.546 404.376C680.546 403.344 681.746 403.896 681.746 401.664L681.722 391.968C681.722 390.312 680.57 390.48 680.57 389.76C680.57 389.448 680.762 389.28 681.338 389.016C682.322 388.536 684.05 387.96 684.434 387.96C684.842 387.96 685.01 388.176 685.01 388.68L684.986 391.968V394.944C685.898 393.816 687.218 393.24 688.562 393.24C691.298 393.24 692.33 395.016 692.954 398.184ZM705.766 401.328C706.246 400.848 706.774 401.232 706.534 401.928C706.054 403.272 704.062 405.24 700.87 405.24C697.462 405.24 695.158 402.888 695.158 399.6C695.158 395.904 698.014 393.24 701.374 393.24C704.254 393.24 705.91 394.968 706.246 397.032C706.318 397.416 706.15 397.752 705.694 397.968C703.246 399.072 701.302 399.816 698.806 400.728C699.31 401.832 700.414 402.912 702.262 402.912C703.726 402.912 704.902 402.168 705.766 401.328ZM700.318 394.824C698.926 394.992 698.182 396.312 698.182 397.848C698.182 398.376 698.254 398.952 698.374 399.36C699.766 398.88 701.134 398.4 702.43 397.848C702.838 397.656 703.15 397.488 702.982 396.864C702.646 395.472 701.47 394.608 700.318 394.824ZM709.585 391.92C708.673 391.896 708.121 391.248 708.145 390.456C708.169 389.352 709.441 388.128 710.665 388.176C711.529 388.2 712.177 388.872 712.177 389.688C712.129 390.864 710.833 391.944 709.585 391.92ZM708.769 401.664V397.272C708.769 395.616 707.617 395.784 707.617 395.064C707.617 394.728 707.785 394.56 708.361 394.296C709.369 393.84 711.097 393.264 711.481 393.264C711.865 393.24 712.033 393.48 712.033 393.984L712.009 397.272V401.664C712.009 403.896 713.185 403.344 713.185 404.4C713.185 404.88 712.777 405 712.129 405H708.697C708.001 405 707.593 404.856 707.593 404.376C707.593 403.344 708.769 403.896 708.769 401.664ZM721.724 393.24C723.092 393.24 723.86 394.128 723.86 395.304C723.86 396.264 723.356 396.888 722.684 396.912C721.508 396.912 721.556 395.664 720.404 395.664C719.54 395.664 718.748 396.672 718.748 398.424V401.664C718.748 403.896 719.9 403.344 719.9 404.4C719.9 404.88 719.516 405 718.844 405H715.412C714.74 405 714.308 404.856 714.308 404.376C714.308 403.344 715.508 403.896 715.508 401.664V397.104C715.508 396.432 715.244 396 714.764 395.64C714.524 395.472 714.308 395.304 714.308 394.968C714.308 394.584 714.5 394.416 715.076 394.152C715.964 393.72 717.452 393.288 717.836 393.264C718.244 393.264 718.412 393.504 718.412 393.984V395.4C719.3 393.936 720.572 393.24 721.724 393.24ZM735.862 405.216C734.062 405.216 733.006 404.784 732.358 404.784C731.662 404.784 731.566 405.24 731.086 405.24C730.63 405.24 730.342 404.952 730.174 403.92C729.982 402.768 729.79 401.664 729.694 400.416C729.67 399.768 729.79 399.36 730.246 399.36C730.678 399.36 730.87 399.648 731.302 400.368C731.998 401.712 733.414 403.656 736.126 403.656C737.902 403.656 738.646 402.576 738.694 401.448C738.742 399.792 736.726 398.904 734.71 397.872C732.094 396.552 729.958 395.592 729.958 392.76C729.958 390.144 732.406 387.984 735.958 387.984C737.134 387.984 738.118 388.32 738.67 388.32C739.27 388.32 739.414 387.984 739.894 387.984C740.326 387.984 740.59 388.224 740.806 389.256C740.998 390.096 741.19 391.08 741.286 392.136C741.334 392.784 741.19 393.192 740.686 393.192C740.302 393.192 740.014 392.88 739.558 392.184C738.766 391.008 737.47 389.496 735.598 389.496C734.062 389.496 733.222 390.36 733.222 391.56C733.222 393.096 734.59 393.84 737.086 395.112C739.846 396.504 742.126 397.44 742.15 400.128C742.198 403.344 739.102 405.216 735.862 405.216ZM751.587 393.24C754.299 393.24 756.459 395.352 756.459 398.832C756.459 403.08 753.675 405.24 751.155 405.24C749.883 405.24 748.731 404.784 747.891 404.256V406.464C747.891 408.696 749.067 408.144 749.067 409.2C749.067 409.68 748.659 409.8 748.011 409.8H744.579C743.883 409.8 743.475 409.656 743.475 409.2C743.475 408.144 744.651 408.696 744.651 406.464V397.056C744.651 396.384 744.387 395.952 743.907 395.616C743.691 395.424 743.451 395.256 743.451 394.92C743.451 394.536 743.643 394.368 744.219 394.104C745.131 393.696 746.619 393.24 746.979 393.24C747.387 393.24 747.555 393.456 747.555 393.96V395.352C748.323 394.224 749.595 393.24 751.587 393.24ZM750.939 403.752C752.643 403.728 753.315 401.904 753.315 400.176C753.315 397.32 752.139 395.208 750.387 395.208C748.875 395.208 747.891 396.672 747.891 398.4V398.472L747.915 400.032C747.939 402.384 749.475 403.752 750.939 403.752ZM768.159 401.328C768.639 400.848 769.167 401.232 768.927 401.928C768.447 403.272 766.455 405.24 763.263 405.24C759.855 405.24 757.551 402.888 757.551 399.6C757.551 395.904 760.407 393.24 763.767 393.24C766.647 393.24 768.303 394.968 768.639 397.032C768.711 397.416 768.543 397.752 768.087 397.968C765.639 399.072 763.695 399.816 761.199 400.728C761.703 401.832 762.807 402.912 764.655 402.912C766.119 402.912 767.295 402.168 768.159 401.328ZM762.711 394.824C761.319 394.992 760.575 396.312 760.575 397.848C760.575 398.376 760.647 398.952 760.767 399.36C762.159 398.88 763.527 398.4 764.823 397.848C765.231 397.656 765.543 397.488 765.375 396.864C765.039 395.472 763.863 394.608 762.711 394.824ZM775.699 405.24C772.027 405.24 769.915 402.6 769.915 399.624C769.915 395.952 772.723 393.24 776.179 393.24C779.155 393.24 781.027 395.16 781.027 397.224C781.027 398.328 780.283 398.88 779.491 398.88C778.483 398.88 778.099 398.208 777.883 397.368C777.451 395.856 776.707 394.8 775.435 394.776C773.923 394.776 773.035 396.072 773.035 397.968C773.035 400.92 774.643 402.912 777.139 402.912C778.603 402.912 779.491 402.24 780.331 401.472C780.835 401.016 781.315 401.376 781.075 402.096C780.619 403.416 778.891 405.24 775.699 405.24ZM784.249 391.92C783.337 391.896 782.785 391.248 782.809 390.456C782.833 389.352 784.105 388.128 785.329 388.176C786.193 388.2 786.841 388.872 786.841 389.688C786.793 390.864 785.497 391.944 784.249 391.92ZM783.433 401.664V397.272C783.433 395.616 782.281 395.784 782.281 395.064C782.281 394.728 782.449 394.56 783.025 394.296C784.033 393.84 785.761 393.264 786.145 393.264C786.529 393.24 786.697 393.48 786.697 393.984L786.673 397.272V401.664C786.673 403.896 787.849 403.344 787.849 404.4C787.849 404.88 787.441 405 786.793 405H783.361C782.665 405 782.257 404.856 782.257 404.376C782.257 403.344 783.433 403.896 783.433 401.664ZM801.38 403.152C801.644 403.152 801.836 403.272 801.836 403.56C801.836 404.376 800.516 405.192 799.364 405.192C798.308 405.192 797.684 404.616 797.324 403.416C796.196 404.664 794.564 405.216 793.124 405.216C790.46 405.216 788.732 403.68 788.732 401.688C788.732 399.384 790.748 397.728 794.156 397.728C794.78 397.728 795.26 397.8 796.076 397.92C795.644 396.408 795.164 395.208 793.364 395.208C792.284 395.208 791.3 395.664 790.436 396.144C789.98 396.432 789.476 396.072 789.836 395.472C790.436 394.464 792.26 393.24 794.564 393.24C797.636 393.24 798.548 395.352 799.076 397.344L800.252 401.856C800.516 402.84 800.852 403.176 801.38 403.152ZM794.42 403.536C795.764 403.536 797.108 402.6 796.916 401.616C796.844 401.208 796.628 400.608 796.412 399.768C796.244 399.216 795.308 398.976 794.54 398.976C792.836 398.976 791.828 399.84 791.828 401.16C791.852 402.528 792.86 403.536 794.42 403.536ZM803.52 401.664L803.496 391.968C803.496 390.312 802.344 390.48 802.344 389.76C802.344 389.448 802.536 389.28 803.112 389.016C804.096 388.536 805.824 387.96 806.208 387.96C806.616 387.96 806.784 388.176 806.784 388.68L806.76 391.968V401.664C806.76 403.896 807.912 403.344 807.912 404.4C807.912 404.88 807.528 405 806.856 405H803.424C802.752 405 802.32 404.856 802.32 404.376C802.32 403.344 803.52 403.896 803.52 401.664ZM823.39 394.944C826.102 395.52 827.59 397.248 827.59 399.528C827.59 402.864 824.95 405 820.27 405H814.654C813.694 405 813.31 404.856 813.31 404.328C813.31 403.08 814.894 404.04 814.894 400.92V392.28C814.894 389.16 813.31 390.12 813.31 388.872C813.31 388.344 813.694 388.2 814.654 388.2H819.55C823.15 388.2 825.67 389.184 825.694 391.848C825.718 393.288 824.926 394.416 823.39 394.944ZM818.278 390.48V393.816C818.278 394.392 818.974 394.344 819.526 394.344C821.446 394.344 822.358 393.672 822.358 392.304C822.358 390.864 821.158 389.712 819.286 389.712C818.686 389.712 818.278 389.856 818.278 390.48ZM820.222 403.488C822.694 403.488 823.918 402.456 823.918 400.152C823.918 397.8 822.262 395.928 819.286 395.928C818.422 395.928 818.278 396.144 818.278 396.72V401.808C818.278 402.984 818.566 403.488 820.222 403.488ZM834.151 405.24C830.959 405.24 828.511 403.104 828.511 399.696C828.511 396.096 831.319 393.24 835.135 393.24C838.447 393.24 840.727 395.688 840.727 398.88C840.727 402.504 837.967 405.24 834.151 405.24ZM835.183 403.656C836.815 403.656 837.535 402.216 837.535 400.56C837.535 397.776 836.119 394.824 834.055 394.824C832.327 394.824 831.679 396.456 831.679 398.16C831.679 400.968 833.119 403.656 835.183 403.656ZM847.5 405.24C844.308 405.24 841.86 403.104 841.86 399.696C841.86 396.096 844.668 393.24 848.484 393.24C851.796 393.24 854.076 395.688 854.076 398.88C854.076 402.504 851.316 405.24 847.5 405.24ZM848.532 403.656C850.164 403.656 850.884 402.216 850.884 400.56C850.884 397.776 849.468 394.824 847.404 394.824C845.676 394.824 845.028 396.456 845.028 398.16C845.028 400.968 846.468 403.656 848.532 403.656ZM864.957 395.808L864.285 396.528L866.949 402.504C867.429 403.656 868.581 403.68 868.581 404.472C868.581 404.88 868.221 405 867.477 405H864.141C863.421 405 863.061 404.856 863.061 404.448C863.061 403.704 864.237 403.8 863.757 402.744L862.029 398.952L859.485 401.688C859.485 403.896 860.637 403.344 860.637 404.4C860.637 404.88 860.253 405 859.581 405H856.149C855.477 405 855.045 404.856 855.045 404.376C855.045 403.344 856.245 403.896 856.245 401.664L856.221 391.968C856.221 390.312 855.069 390.48 855.069 389.76C855.069 389.448 855.261 389.28 855.837 389.016C856.821 388.536 858.549 387.96 858.933 387.96C859.341 387.96 859.509 388.176 859.509 388.68L859.485 391.968V399.576L863.109 395.712C864.045 394.728 862.605 394.728 862.605 394.008C862.605 393.624 862.917 393.48 863.565 393.48H866.445C867.021 393.48 867.357 393.648 867.357 394.008C867.357 394.728 866.205 394.488 864.957 395.808ZM871.512 399.216C871.176 399.216 871.056 399.048 871.032 398.544C870.792 394.824 869.64 391.632 869.64 390.048C869.64 388.752 870.456 387.96 871.512 387.96C872.592 387.96 873.432 388.752 873.432 390.048C873.432 391.632 872.232 394.824 871.992 398.544C871.968 399.048 871.872 399.216 871.512 399.216ZM871.44 405.24C870.504 405.24 869.688 404.664 869.688 403.536C869.688 402.312 870.672 401.592 871.656 401.592C872.544 401.592 873.408 402.192 873.408 403.344C873.408 404.52 872.472 405.24 871.44 405.24Z" fill="#231F20"/>
<rect x="365" y="440" width="582" height="48" rx="5" fill="url(#paint0_linear_18249_2661)"/>
<path d="M567.648 470.16C566.176 470.16 565.045 469.728 564.256 468.864C563.467 468 563.072 466.768 563.072 465.168V458.48H564.768V465.36C564.768 466.459 565.019 467.296 565.52 467.872C566.021 468.437 566.731 468.72 567.648 468.72C568.587 468.72 569.307 468.437 569.808 467.872C570.309 467.307 570.56 466.469 570.56 465.36V458.48H572.256V465.2C572.256 466.779 571.856 468 571.056 468.864C570.267 469.728 569.131 470.16 567.648 470.16ZM578.848 470.144C578.08 470.144 577.44 469.963 576.928 469.6C576.427 469.227 576.096 468.709 575.936 468.048L576.16 468.016V473.28H574.496V461.84H576.08V463.712L575.92 463.664C576.091 463.045 576.453 462.56 577.008 462.208C577.563 461.856 578.213 461.68 578.96 461.68C579.696 461.68 580.331 461.856 580.864 462.208C581.408 462.56 581.824 463.051 582.112 463.68C582.411 464.309 582.56 465.045 582.56 465.888C582.56 466.741 582.405 467.488 582.096 468.128C581.787 468.768 581.355 469.264 580.8 469.616C580.245 469.968 579.595 470.144 578.848 470.144ZM578.496 468.768C579.221 468.768 579.797 468.512 580.224 468C580.651 467.488 580.864 466.784 580.864 465.888C580.864 465.003 580.651 464.315 580.224 463.824C579.797 463.323 579.216 463.072 578.48 463.072C577.755 463.072 577.173 463.328 576.736 463.84C576.309 464.341 576.096 465.04 576.096 465.936C576.096 466.811 576.309 467.504 576.736 468.016C577.173 468.517 577.76 468.768 578.496 468.768ZM584.309 470V458.48H585.973V470H584.309ZM591.861 470.16C591.029 470.16 590.298 469.979 589.669 469.616C589.039 469.243 588.549 468.736 588.197 468.096C587.845 467.445 587.669 466.709 587.669 465.888C587.669 465.056 587.845 464.325 588.197 463.696C588.559 463.067 589.05 462.576 589.669 462.224C590.298 461.861 591.029 461.68 591.861 461.68C592.703 461.68 593.439 461.861 594.069 462.224C594.698 462.576 595.183 463.067 595.525 463.696C595.877 464.325 596.053 465.056 596.053 465.888C596.053 466.709 595.877 467.445 595.525 468.096C595.183 468.736 594.698 469.243 594.069 469.616C593.439 469.979 592.703 470.16 591.861 470.16ZM591.861 468.8C592.362 468.8 592.794 468.677 593.157 468.432C593.53 468.187 593.823 467.845 594.037 467.408C594.25 466.971 594.357 466.459 594.357 465.872C594.357 464.997 594.122 464.309 593.653 463.808C593.194 463.296 592.597 463.04 591.861 463.04C591.135 463.04 590.538 463.296 590.069 463.808C589.61 464.32 589.381 465.008 589.381 465.872C589.381 466.459 589.482 466.971 589.685 467.408C589.898 467.845 590.191 468.187 590.565 468.432C590.949 468.677 591.381 468.8 591.861 468.8ZM602.802 470C602.749 469.797 602.711 469.573 602.69 469.328C602.679 469.083 602.674 468.784 602.674 468.432H602.594V464.544C602.594 464.021 602.461 463.632 602.194 463.376C601.938 463.109 601.527 462.976 600.962 462.976C600.418 462.976 599.981 463.083 599.65 463.296C599.33 463.509 599.143 463.813 599.09 464.208H597.506C597.581 463.44 597.927 462.827 598.546 462.368C599.165 461.909 599.991 461.68 601.026 461.68C602.093 461.68 602.893 461.931 603.426 462.432C603.959 462.923 604.226 463.648 604.226 464.608V468.432C604.226 468.677 604.242 468.928 604.274 469.184C604.306 469.44 604.354 469.712 604.418 470H602.802ZM599.986 470.16C599.154 470.16 598.493 469.957 598.002 469.552C597.511 469.136 597.266 468.576 597.266 467.872C597.266 467.147 597.522 466.576 598.034 466.16C598.557 465.733 599.303 465.445 600.274 465.296L602.962 464.864V466.032L600.53 466.416C599.986 466.501 599.575 466.645 599.298 466.848C599.031 467.051 598.898 467.344 598.898 467.728C598.898 468.101 599.021 468.384 599.266 468.576C599.522 468.757 599.89 468.848 600.37 468.848C601.01 468.848 601.538 468.693 601.954 468.384C602.381 468.075 602.594 467.685 602.594 467.216L602.802 468.4C602.61 468.965 602.269 469.403 601.778 469.712C601.287 470.011 600.69 470.16 599.986 470.16ZM612.306 470V468.128L612.466 468.176C612.295 468.784 611.943 469.269 611.41 469.632C610.877 469.984 610.237 470.16 609.49 470.16C608.754 470.16 608.109 469.984 607.554 469.632C607.01 469.28 606.583 468.789 606.274 468.16C605.975 467.531 605.826 466.795 605.826 465.952C605.826 465.099 605.981 464.352 606.29 463.712C606.599 463.072 607.031 462.576 607.586 462.224C608.141 461.872 608.791 461.696 609.538 461.696C610.317 461.696 610.957 461.883 611.458 462.256C611.97 462.619 612.306 463.131 612.466 463.792L612.242 463.824V458.48H613.89V470H612.306ZM609.906 468.768C610.642 468.768 611.223 468.517 611.65 468.016C612.077 467.504 612.29 466.8 612.29 465.904C612.29 465.029 612.071 464.341 611.634 463.84C611.207 463.328 610.626 463.072 609.89 463.072C609.165 463.072 608.589 463.328 608.162 463.84C607.746 464.341 607.538 465.045 607.538 465.952C607.538 466.837 607.746 467.531 608.162 468.032C608.589 468.523 609.17 468.768 609.906 468.768ZM622.875 470V464.976L618.539 458.48H620.587L624.251 464.208H623.371L627.035 458.48H628.907L624.571 464.976V470H622.875ZM632.329 470.16C631.497 470.16 630.767 469.979 630.137 469.616C629.508 469.243 629.017 468.736 628.665 468.096C628.313 467.445 628.137 466.709 628.137 465.888C628.137 465.056 628.313 464.325 628.665 463.696C629.028 463.067 629.519 462.576 630.137 462.224C630.767 461.861 631.497 461.68 632.329 461.68C633.172 461.68 633.908 461.861 634.537 462.224C635.167 462.576 635.652 463.067 635.993 463.696C636.345 464.325 636.521 465.056 636.521 465.888C636.521 466.709 636.345 467.445 635.993 468.096C635.652 468.736 635.167 469.243 634.537 469.616C633.908 469.979 633.172 470.16 632.329 470.16ZM632.329 468.8C632.831 468.8 633.263 468.677 633.625 468.432C633.999 468.187 634.292 467.845 634.505 467.408C634.719 466.971 634.825 466.459 634.825 465.872C634.825 464.997 634.591 464.309 634.121 463.808C633.663 463.296 633.065 463.04 632.329 463.04C631.604 463.04 631.007 463.296 630.537 463.808C630.079 464.32 629.849 465.008 629.849 465.872C629.849 466.459 629.951 466.971 630.153 467.408C630.367 467.845 630.66 468.187 631.033 468.432C631.417 468.677 631.849 468.8 632.329 468.8ZM640.887 470.16C640.343 470.16 639.863 470.048 639.447 469.824C639.031 469.589 638.705 469.269 638.471 468.864C638.247 468.459 638.135 467.995 638.135 467.472V461.84H639.799V467.088C639.799 467.653 639.937 468.075 640.215 468.352C640.492 468.629 640.887 468.768 641.399 468.768C641.857 468.768 642.263 468.661 642.615 468.448C642.977 468.235 643.26 467.941 643.463 467.568C643.676 467.184 643.783 466.741 643.783 466.24L643.991 468.192C643.724 468.789 643.313 469.269 642.759 469.632C642.215 469.984 641.591 470.16 640.887 470.16ZM643.847 470V468.08H643.783V461.84H645.431V470H643.847ZM647.762 470V461.84H649.346V463.872H649.426V470H647.762ZM649.426 465.744L649.218 463.808C649.41 463.115 649.74 462.587 650.21 462.224C650.679 461.861 651.239 461.68 651.89 461.68C652.135 461.68 652.306 461.701 652.402 461.744V463.312C652.348 463.291 652.274 463.28 652.178 463.28C652.082 463.269 651.964 463.264 651.826 463.264C651.026 463.264 650.423 463.472 650.018 463.888C649.623 464.304 649.426 464.923 649.426 465.744ZM657.059 470V458.48H661.939C662.771 458.48 663.48 458.619 664.067 458.896C664.654 459.173 665.102 459.568 665.411 460.08C665.731 460.592 665.891 461.2 665.891 461.904C665.891 462.619 665.731 463.237 665.411 463.76C665.102 464.272 664.648 464.672 664.051 464.96C663.464 465.248 662.76 465.392 661.939 465.392H658.355V463.984H661.859C662.616 463.984 663.192 463.803 663.587 463.44C663.992 463.077 664.195 462.571 664.195 461.92C664.195 461.259 663.998 460.752 663.603 460.4C663.208 460.048 662.627 459.872 661.859 459.872H658.755V470H657.059ZM667.481 470V461.84H669.145V470H667.481ZM667.401 460.24V458.368H669.241V460.24H667.401ZM674.841 470.16C674.063 470.16 673.369 469.979 672.761 469.616C672.153 469.243 671.673 468.736 671.321 468.096C670.98 467.456 670.809 466.725 670.809 465.904C670.809 465.083 670.98 464.357 671.321 463.728C671.673 463.088 672.153 462.587 672.761 462.224C673.369 461.861 674.057 461.68 674.825 461.68C675.476 461.68 676.057 461.803 676.569 462.048C677.081 462.293 677.503 462.635 677.833 463.072C678.164 463.509 678.377 464.027 678.473 464.624H676.905C676.799 464.144 676.564 463.76 676.201 463.472C675.849 463.184 675.401 463.04 674.857 463.04C674.388 463.04 673.977 463.157 673.625 463.392C673.273 463.627 673.001 463.957 672.809 464.384C672.617 464.811 672.521 465.317 672.521 465.904C672.521 466.48 672.617 466.987 672.809 467.424C673.001 467.861 673.273 468.203 673.625 468.448C673.977 468.683 674.393 468.8 674.873 468.8C675.396 468.8 675.839 468.661 676.201 468.384C676.575 468.096 676.815 467.712 676.921 467.232H678.489C678.383 467.819 678.159 468.331 677.817 468.768C677.487 469.205 677.065 469.547 676.553 469.792C676.041 470.037 675.471 470.16 674.841 470.16ZM683.546 470.16C682.597 470.16 681.898 469.941 681.45 469.504C681.013 469.056 680.794 468.4 680.794 467.536V459.968L682.442 459.344V467.552C682.442 467.979 682.554 468.293 682.778 468.496C683.002 468.699 683.365 468.8 683.866 468.8C684.058 468.8 684.229 468.784 684.378 468.752C684.528 468.72 684.656 468.683 684.762 468.64V469.984C684.645 470.037 684.48 470.08 684.266 470.112C684.053 470.144 683.813 470.16 683.546 470.16ZM679.162 463.168V461.84H684.762V463.168H679.162ZM688.887 470.16C688.343 470.16 687.863 470.048 687.447 469.824C687.031 469.589 686.705 469.269 686.471 468.864C686.247 468.459 686.135 467.995 686.135 467.472V461.84H687.799V467.088C687.799 467.653 687.937 468.075 688.215 468.352C688.492 468.629 688.887 468.768 689.399 468.768C689.857 468.768 690.263 468.661 690.615 468.448C690.977 468.235 691.26 467.941 691.463 467.568C691.676 467.184 691.783 466.741 691.783 466.24L691.991 468.192C691.724 468.789 691.313 469.269 690.759 469.632C690.215 469.984 689.591 470.16 688.887 470.16ZM691.847 470V468.08H691.783V461.84H693.431V470H691.847ZM695.762 470V461.84H697.346V463.872H697.426V470H695.762ZM697.426 465.744L697.218 463.808C697.41 463.115 697.74 462.587 698.21 462.224C698.679 461.861 699.239 461.68 699.89 461.68C700.135 461.68 700.306 461.701 700.402 461.744V463.312C700.348 463.291 700.274 463.28 700.178 463.28C700.082 463.269 699.964 463.264 699.826 463.264C699.026 463.264 698.423 463.472 698.018 463.888C697.623 464.304 697.426 464.923 697.426 465.744ZM705.172 470.16C704.351 470.16 703.626 469.979 702.996 469.616C702.378 469.253 701.892 468.752 701.54 468.112C701.188 467.472 701.012 466.736 701.012 465.904C701.012 465.061 701.183 464.325 701.524 463.696C701.876 463.056 702.367 462.56 702.996 462.208C703.626 461.856 704.346 461.68 705.156 461.68C705.946 461.68 706.628 461.851 707.204 462.192C707.791 462.523 708.239 462.987 708.548 463.584C708.868 464.181 709.028 464.891 709.028 465.712C709.028 465.84 709.023 465.963 709.012 466.08C709.012 466.187 709.002 466.299 708.98 466.416H702.132V465.168H707.812L707.396 465.664C707.396 464.789 707.199 464.123 706.804 463.664C706.41 463.205 705.86 462.976 705.156 462.976C704.399 462.976 703.796 463.237 703.348 463.76C702.911 464.272 702.692 464.987 702.692 465.904C702.692 466.832 702.911 467.557 703.348 468.08C703.796 468.603 704.415 468.864 705.204 468.864C705.684 468.864 706.1 468.768 706.452 468.576C706.804 468.373 707.066 468.08 707.236 467.696H708.804C708.538 468.464 708.084 469.067 707.444 469.504C706.815 469.941 706.058 470.16 705.172 470.16Z" fill="white"/>
<path d="M736 454C733.352 454 731.051 455.238 729.406 457.062C729.27 457.047 729.148 457 729 457C726.801 457 725 458.801 725 461C723.27 462.055 722 463.836 722 466C722 469.301 724.699 472 728 472H733V470H728C725.781 470 724 468.219 724 466C724 464.34 725.008 462.922 726.438 462.312L727.125 462.031L727.031 461.281C727.012 461.117 727 461.023 727 461C727 459.883 727.883 459 729 459C729.141 459 729.297 459.02 729.469 459.062L730.094 459.219L730.469 458.719C731.75 457.074 733.75 456 736 456C739.277 456 742.012 458.254 742.781 461.281L742.969 462.062L743.812 462.031C744.023 462.02 744.07 462 744 462C746.219 462 748 463.781 748 466C748 468.219 746.219 470 744 470H739V472H744C747.301 472 750 469.301 750 466C750 462.844 747.512 460.316 744.406 460.094C743.184 456.574 739.926 454 736 454ZM736 462L732 466H735V474H737V466H740L736 462Z" fill="white"/>
<rect x="365" y="512" width="582" height="48" rx="5" fill="white"/>
<rect x="365.5" y="512.5" width="581" height="47" rx="4.5" stroke="black" stroke-opacity="0.2"/>
<path d="M603.684 542V530.48H605.652L611.764 540.336L611.38 540.416V530.48H613.012V542H611.044L604.932 532.144L605.316 532.064V542H603.684ZM618.923 542.16C618.091 542.16 617.36 541.979 616.731 541.616C616.102 541.243 615.611 540.736 615.259 540.096C614.907 539.445 614.731 538.709 614.731 537.888C614.731 537.056 614.907 536.325 615.259 535.696C615.622 535.067 616.112 534.576 616.731 534.224C617.36 533.861 618.091 533.68 618.923 533.68C619.766 533.68 620.502 533.861 621.131 534.224C621.76 534.576 622.246 535.067 622.587 535.696C622.939 536.325 623.115 537.056 623.115 537.888C623.115 538.709 622.939 539.445 622.587 540.096C622.246 540.736 621.76 541.243 621.131 541.616C620.502 541.979 619.766 542.16 618.923 542.16ZM618.923 540.8C619.424 540.8 619.856 540.677 620.219 540.432C620.592 540.187 620.886 539.845 621.099 539.408C621.312 538.971 621.419 538.459 621.419 537.872C621.419 536.997 621.184 536.309 620.715 535.808C620.256 535.296 619.659 535.04 618.923 535.04C618.198 535.04 617.6 535.296 617.131 535.808C616.672 536.32 616.443 537.008 616.443 537.872C616.443 538.459 616.544 538.971 616.747 539.408C616.96 539.845 617.254 540.187 617.627 540.432C618.011 540.677 618.443 540.8 618.923 540.8ZM624.105 544.432V543.6C624.478 543.472 624.734 543.275 624.873 543.008C625.022 542.752 625.097 542.379 625.097 541.888L625.753 542H624.089V540.032H626.057V541.52C626.057 542.256 625.902 542.875 625.593 543.376C625.294 543.877 624.798 544.229 624.105 544.432ZM634.744 542V531.872H630.856V530.48H640.328V531.872H636.44V542H634.744ZM642.012 542V530.48H643.676V542H642.012ZM647.804 542V536.752C647.804 536.187 647.66 535.765 647.372 535.488C647.094 535.211 646.678 535.072 646.124 535.072C645.644 535.072 645.217 535.179 644.844 535.392C644.481 535.605 644.193 535.899 643.98 536.272C643.777 536.645 643.676 537.088 643.676 537.6L643.468 535.648C643.734 535.04 644.145 534.56 644.7 534.208C645.254 533.856 645.9 533.68 646.636 533.68C647.51 533.68 648.198 533.925 648.7 534.416C649.201 534.907 649.452 535.557 649.452 536.368V542H647.804ZM656.677 542C656.624 541.797 656.586 541.573 656.565 541.328C656.554 541.083 656.549 540.784 656.549 540.432H656.469V536.544C656.469 536.021 656.336 535.632 656.069 535.376C655.813 535.109 655.402 534.976 654.837 534.976C654.293 534.976 653.856 535.083 653.525 535.296C653.205 535.509 653.018 535.813 652.965 536.208H651.381C651.456 535.44 651.802 534.827 652.421 534.368C653.04 533.909 653.866 533.68 654.901 533.68C655.968 533.68 656.768 533.931 657.301 534.432C657.834 534.923 658.101 535.648 658.101 536.608V540.432C658.101 540.677 658.117 540.928 658.149 541.184C658.181 541.44 658.229 541.712 658.293 542H656.677ZM653.861 542.16C653.029 542.16 652.368 541.957 651.877 541.552C651.386 541.136 651.141 540.576 651.141 539.872C651.141 539.147 651.397 538.576 651.909 538.16C652.432 537.733 653.178 537.445 654.149 537.296L656.837 536.864V538.032L654.405 538.416C653.861 538.501 653.45 538.645 653.173 538.848C652.906 539.051 652.773 539.344 652.773 539.728C652.773 540.101 652.896 540.384 653.141 540.576C653.397 540.757 653.765 540.848 654.245 540.848C654.885 540.848 655.413 540.693 655.829 540.384C656.256 540.075 656.469 539.685 656.469 539.216L656.677 540.4C656.485 540.965 656.144 541.403 655.653 541.712C655.162 542.011 654.565 542.16 653.861 542.16ZM660.356 542V533.84H661.94V535.76H662.02V542H660.356ZM666.148 542V536.752C666.148 536.187 666.004 535.765 665.716 535.488C665.438 535.211 665.022 535.072 664.468 535.072C663.988 535.072 663.561 535.179 663.188 535.392C662.825 535.605 662.537 535.899 662.324 536.272C662.121 536.645 662.02 537.088 662.02 537.6L661.812 535.648C662.078 535.04 662.489 534.56 663.044 534.208C663.598 533.856 664.244 533.68 664.98 533.68C665.854 533.68 666.542 533.925 667.044 534.416C667.545 534.907 667.796 535.557 667.796 536.368V542H666.148ZM670.059 542V530.272H671.723V542H670.059ZM675.355 542L671.339 537.76L675.227 533.84H677.323L672.907 538.128L672.987 537.376L677.483 542H675.355ZM685.437 542V536.976L681.101 530.48H683.149L686.813 536.208H685.933L689.597 530.48H691.469L687.133 536.976V542H685.437ZM694.892 542.16C694.06 542.16 693.329 541.979 692.7 541.616C692.071 541.243 691.58 540.736 691.228 540.096C690.876 539.445 690.7 538.709 690.7 537.888C690.7 537.056 690.876 536.325 691.228 535.696C691.591 535.067 692.081 534.576 692.7 534.224C693.329 533.861 694.06 533.68 694.892 533.68C695.735 533.68 696.471 533.861 697.1 534.224C697.729 534.576 698.215 535.067 698.556 535.696C698.908 536.325 699.084 537.056 699.084 537.888C699.084 538.709 698.908 539.445 698.556 540.096C698.215 540.736 697.729 541.243 697.1 541.616C696.471 541.979 695.735 542.16 694.892 542.16ZM694.892 540.8C695.393 540.8 695.825 540.677 696.188 540.432C696.561 540.187 696.855 539.845 697.068 539.408C697.281 538.971 697.388 538.459 697.388 537.872C697.388 536.997 697.153 536.309 696.684 535.808C696.225 535.296 695.628 535.04 694.892 535.04C694.167 535.04 693.569 535.296 693.1 535.808C692.641 536.32 692.412 537.008 692.412 537.872C692.412 538.459 692.513 538.971 692.716 539.408C692.929 539.845 693.223 540.187 693.596 540.432C693.98 540.677 694.412 540.8 694.892 540.8ZM703.449 542.16C702.905 542.16 702.425 542.048 702.009 541.824C701.593 541.589 701.268 541.269 701.033 540.864C700.809 540.459 700.697 539.995 700.697 539.472V533.84H702.361V539.088C702.361 539.653 702.5 540.075 702.777 540.352C703.054 540.629 703.449 540.768 703.961 540.768C704.42 540.768 704.825 540.661 705.177 540.448C705.54 540.235 705.822 539.941 706.025 539.568C706.238 539.184 706.345 538.741 706.345 538.24L706.553 540.192C706.286 540.789 705.876 541.269 705.321 541.632C704.777 541.984 704.153 542.16 703.449 542.16ZM706.409 542V540.08H706.345V533.84H707.993V542H706.409Z" fill="black"/>
<rect x="47.5" y="40.5" width="68" height="68" rx="34" stroke="#747474"/>
<g clip-path="url(#clip0_18249_2661)">
<path d="M61.8699 75.4824C61.3273 74.9398 61.3273 74.0602 61.8699 73.5176L70.7116 64.6759C71.2542 64.1333 72.1338 64.1333 72.6764 64.6759C73.219 65.2184 73.219 66.0981 72.6764 66.6407L64.8171 74.5L72.6764 82.3593C73.219 82.9019 73.219 83.7816 72.6764 84.3241C72.1338 84.8667 71.2542 84.8667 70.7116 84.3241L61.8699 75.4824ZM101.754 75.8893H62.8523V73.1107H101.754V75.8893Z" fill="url(#paint1_linear_18249_2661)"/>
</g>
<defs>
<linearGradient id="paint0_linear_18249_2661" x1="365" y1="464" x2="947" y2="464" gradientUnits="userSpaceOnUse">
<stop stop-color="#650B9B"/>
<stop offset="1" stop-color="#300C96"/>
</linearGradient>
<linearGradient id="paint1_linear_18249_2661" x1="101.754" y1="75" x2="62.8523" y2="75" gradientUnits="userSpaceOnUse">
<stop stop-color="#650B9B"/>
<stop offset="1" stop-color="#300C96"/>
</linearGradient>
<clipPath id="clip0_18249_2661">
<rect width="40.7541" height="40.7541" fill="white" transform="matrix(-1 0 0 1 101.754 54.1229)"/>
</clipPath>
</defs>
</svg>
