<svg width="58" height="64" viewBox="0 0 58 64" fill="none" xmlns="http://www.w3.org/2000/svg">
<path d="M28.9549 0C12.9653 0 0 12.9565 0 28.937V34.1817C0 36.5719 1.94153 38.5123 4.33328 38.5123H8.94076L6.04306 28.4376L7.35834 28.3536C8.29329 28.2979 9.22203 28.2767 10.1366 28.3041L9.84739 23.1231L11.1494 23.3335C11.4369 23.383 11.7261 23.4316 12.0145 23.4882L12.2533 19.0939L13.519 19.4457C18.5838 20.8592 22.6774 23.2707 25.7025 26.5962C27.2221 28.2696 28.264 29.9492 28.9743 31.4263C29.6846 29.9492 30.7257 28.2696 32.2453 26.5962C35.2633 23.2707 39.3648 20.8663 44.4287 19.4457L45.6953 19.0939L45.9342 23.4882C46.2225 23.4316 46.5109 23.383 46.7992 23.3335L48.1003 23.1231L47.812 28.3041C48.7195 28.2829 49.6545 28.2979 50.5903 28.3536L51.9056 28.4376L48.9725 38.5123H53.58C55.9717 38.5123 57.9132 36.5719 57.9132 34.1817V28.937C57.9097 12.9565 44.9453 0 28.9549 0ZM8.54007 20.1556L7.13279 20.3951C7.02753 20.4164 6.9497 20.4941 6.92847 20.5993L6.68965 22.0049C6.64011 22.2798 6.24562 22.2798 6.20404 22.0049L5.96522 20.5993C5.94399 20.4941 5.86704 20.4164 5.76178 20.3951L4.35451 20.1556C4.0803 20.1061 4.0803 19.7127 4.35451 19.6712L5.76178 19.4325C5.86704 19.4113 5.94399 19.3335 5.96522 19.2283L6.20404 17.8219C6.25358 17.5478 6.64807 17.5478 6.68965 17.8219L6.92847 19.2283C6.9497 19.3335 7.02753 19.4113 7.13279 19.4325L8.54007 19.6712C8.81427 19.7198 8.81427 20.114 8.54007 20.1556ZM16.3699 9.70961L15.35 9.88552C15.2731 9.89967 15.2164 9.95536 15.2023 10.0331L15.0263 11.0515C14.9918 11.2486 14.7025 11.2486 14.6751 11.0515L14.4991 10.0331C14.4849 9.95536 14.4283 9.89967 14.3514 9.88552L13.3306 9.70961C13.1334 9.67425 13.1334 9.38608 13.3306 9.35779L14.3514 9.18188C14.4283 9.16773 14.4841 9.11116 14.4991 9.03425L14.6751 8.01503C14.7096 7.8179 14.9989 7.8179 15.0263 8.01503L15.2023 9.03425C15.2164 9.11116 15.2731 9.16773 15.35 9.18188L16.3699 9.35779C16.5671 9.38608 16.5671 9.67425 16.3699 9.70961ZM24.8675 21.0979L23.8476 21.2738C23.7707 21.288 23.7149 21.3445 23.6999 21.4214L23.5239 22.4407C23.4894 22.6378 23.2001 22.6378 23.1727 22.4407L22.9967 21.4214C22.9826 21.3445 22.9259 21.2888 22.849 21.2738L21.8291 21.0979C21.6319 21.0634 21.6319 20.7744 21.8291 20.747L22.849 20.571C22.9259 20.5578 22.9817 20.5003 22.9967 20.4234L23.1727 19.4042C23.2072 19.2071 23.4965 19.2071 23.5239 19.4042L23.6999 20.4234C23.7141 20.5003 23.7707 20.5569 23.8476 20.571L24.8675 20.747C25.0647 20.7814 25.0647 21.0625 24.8675 21.0979ZM28.6523 14.004L26.6117 14.3558C26.464 14.3841 26.3446 14.4972 26.3163 14.651L25.9643 16.6904C25.8935 17.0908 25.3248 17.0908 25.254 16.6904L24.902 14.651C24.8745 14.5034 24.7613 14.3841 24.6065 14.3558L22.5668 14.004C22.1653 13.9341 22.1653 13.3649 22.5668 13.2941L24.6065 12.9432C24.7543 12.9149 24.8745 12.8018 24.902 12.6471L25.254 10.6086C25.3248 10.2082 25.8935 10.2082 25.9643 10.6086L26.3163 12.6471C26.3446 12.7956 26.457 12.9149 26.6117 12.9432L28.6523 13.2941C29.053 13.3649 29.053 13.9341 28.6523 14.004ZM33.1616 5.51867L32.1418 5.69458C32.0648 5.70873 32.0082 5.7653 31.9941 5.84221L31.8181 6.86144C31.7836 7.05856 31.4943 7.05856 31.466 6.86144L31.29 5.84221C31.2758 5.7653 31.2201 5.70873 31.1423 5.69458L30.1224 5.51867C29.9252 5.4842 29.9252 5.19514 30.1224 5.16685L31.1423 4.99094C31.2201 4.97679 31.2758 4.9211 31.29 4.84331L31.466 3.82497C31.5014 3.62784 31.7897 3.62784 31.8181 3.82497L31.9941 4.84331C32.0082 4.9211 32.0648 4.97679 32.1418 4.99094L33.1616 5.16685C33.3589 5.20221 33.3589 5.49039 33.1616 5.51867ZM36.7846 20.0928L35.7648 20.2687C35.6878 20.2829 35.6312 20.3394 35.6171 20.4164L35.4411 21.4356C35.4066 21.6327 35.1173 21.6327 35.089 21.4356L34.9139 20.4164C34.8988 20.3394 34.8431 20.2829 34.7653 20.2687L33.7463 20.0928C33.5491 20.0583 33.5491 19.7693 33.7463 19.741L34.7653 19.566C34.8431 19.5518 34.8988 19.4952 34.9139 19.4175L35.089 18.3982C35.1244 18.2011 35.4128 18.2011 35.4411 18.3982L35.6171 19.4175C35.6312 19.4952 35.6878 19.5509 35.7648 19.566L36.7846 19.741C36.9819 19.7693 36.9819 20.0583 36.7846 20.0928ZM44.9453 12.8796L42.9047 13.2305C42.7569 13.2588 42.6375 13.3719 42.6092 13.5266L42.2572 15.5651C42.1864 15.9655 41.6177 15.9655 41.5469 15.5651L41.1949 13.5266C41.1675 13.3781 41.0542 13.2588 40.8994 13.2305L38.8597 12.8796C38.4582 12.8088 38.4582 12.2396 38.8597 12.1697L40.8994 11.8179C41.0472 11.7896 41.1675 11.6765 41.1949 11.5227L41.5469 9.48331C41.6177 9.08287 42.1864 9.08287 42.2572 9.48331L42.6092 11.5227C42.6375 11.6703 42.7499 11.7896 42.9047 11.8179L44.9453 12.1697C45.3459 12.2396 45.3459 12.8088 44.9453 12.8796ZM54.0691 22.1666L53.0493 22.3425C52.9723 22.3567 52.9157 22.4133 52.9015 22.4902L52.7255 23.5094C52.691 23.7065 52.4018 23.7065 52.3735 23.5094L52.1975 22.4902C52.1833 22.4133 52.1276 22.3567 52.0497 22.3425L51.0308 22.1666C50.8335 22.1322 50.8335 21.8431 51.0308 21.8148L52.0497 21.6389C52.1276 21.6247 52.1833 21.5691 52.1975 21.4913L52.3735 20.472C52.4089 20.2749 52.6972 20.2749 52.7255 20.472L52.9015 21.4913C52.9157 21.5691 52.9723 21.6247 53.0493 21.6389L54.0691 21.8148C54.2664 21.8502 54.2664 22.1322 54.0691 22.1666Z" fill="#0209AA"/>
<path d="M46.6683 29.4081L46.9496 24.3747C46.2455 24.487 45.5777 24.6205 44.924 24.7752L44.6914 20.4587C33.4854 23.6013 29.9818 30.9621 28.9548 34.2877C27.9208 30.9621 24.4243 23.5942 13.2183 20.4587L12.9866 24.7752C12.3391 24.6276 11.6642 24.4941 10.961 24.3747L11.2423 29.4081C10.0464 29.3312 8.76561 29.3241 7.41495 29.4081L10.0322 38.5131H11.735L10.3772 32.2139C10.3772 32.2139 19.2481 31.5323 25.9448 37.8527C26.395 38.2815 27 38.5131 27.6201 38.5131C26.8603 37.1845 22.8145 30.9763 13.2059 29.6123L13.2271 27.7701C13.2271 27.7701 22.0273 29.0775 27.1478 36.7266C27.4927 37.2393 28.0279 37.6052 28.6329 37.7387C28.1614 36.1918 25.3265 28.5082 14.9431 25.302L15.0908 24.0777C15.0908 24.0777 23.8989 26.3982 28.0916 34.8066C28.2676 35.1575 28.563 35.4253 28.9363 35.5518L28.9504 35.5588L28.9646 35.5518C29.3299 35.4253 29.6324 35.1513 29.8084 34.8066C34.001 26.3911 42.8091 24.0777 42.8091 24.0777L42.9568 25.302C32.5734 28.5073 29.7376 36.1909 29.2671 37.7387C29.8721 37.5982 30.4072 37.2393 30.7522 36.7266C35.8798 29.0704 44.6737 27.7701 44.6737 27.7701L44.6949 29.6123C35.0996 30.9692 31.0556 37.1845 30.2958 38.5131C30.9141 38.5131 31.5191 38.2815 31.9693 37.8527C38.6731 31.5323 47.5378 32.2139 47.5378 32.2139L46.18 38.5131H47.8827L50.5062 29.4081C49.1485 29.3241 47.8757 29.3312 46.6727 29.4081H46.6683Z" fill="#0209AA"/>
<path d="M1.22159 43.9064V47.4767C1.22159 48.6038 0.991612 50.0535 0.351218 50.5556C0.260997 50.6299 0.183159 50.6635 0.183159 50.7979C0.183159 50.9198 0.29107 51.0277 0.429056 51.0277H3.02248C3.14454 51.0277 3.23388 50.9198 3.23388 50.7979C3.23388 50.6635 3.17461 50.6299 3.08086 50.5556C2.50061 50.0527 2.28832 48.6029 2.28832 47.4767V42.9322L5.5071 50.6785C5.59909 50.8907 5.78219 51.0286 6.01039 51.0286H6.63487C6.86573 51.0286 7.07801 50.8756 7.15585 50.6644L10.5268 41.9395V47.4767C10.5268 48.6038 10.2968 50.0535 9.6564 50.5556C9.56618 50.6299 9.48834 50.6635 9.48834 50.7979C9.48834 50.9198 9.59625 51.0277 9.73423 51.0277H13.9278C14.0657 51.0277 14.1737 50.9198 14.1737 50.7979C14.1737 50.6635 14.0958 50.6299 14.0056 50.5556C13.3661 50.0527 13.1202 48.6029 13.1202 47.4767V43.9064C13.1202 42.7802 13.3475 41.3296 13.9914 40.8275C14.0808 40.7532 14.1586 40.7196 14.1586 40.5826C14.1586 40.4624 14.0516 40.3545 13.9136 40.3545H11.0743C10.3596 40.3545 9.76431 40.7824 9.50426 41.4374L7.12578 47.6138L4.57747 41.4666C4.28734 40.7824 3.66199 40.3545 2.91368 40.3545H0.414019C0.276034 40.3545 0.169006 40.4624 0.169006 40.5826C0.169006 40.7196 0.246844 40.7523 0.336181 40.8275C0.976576 41.3304 1.22159 42.7802 1.22159 43.9064ZM23.5257 51.0286H27.5521C27.6458 51.0286 27.7228 50.9685 27.7228 50.8907C27.7228 50.8129 27.675 50.7828 27.6157 50.7386C27.1576 50.4487 26.488 49.6708 26.243 49.0317L23.4956 41.6345C23.2064 40.8416 22.4873 40.3545 21.6505 40.3545H19.5445C19.4224 40.3545 19.3322 40.4474 19.3322 40.5525C19.3322 40.6896 19.3923 40.7055 19.4843 40.7824C19.6816 40.9353 19.9239 41.1775 20.1698 41.4516L17.3632 49.0308C17.1173 49.6699 16.4628 50.4478 16.0046 50.7377C15.9418 50.7819 15.8826 50.8155 15.8826 50.8898C15.8826 50.964 15.9569 51.0277 16.0648 51.0277H18.5688C18.6891 51.0277 18.7811 50.9198 18.7811 50.7979C18.7811 50.6635 18.721 50.6299 18.629 50.5556C18.0479 50.0527 18.6732 48.7559 19.0721 47.703L19.1164 47.5952H22.9605L23.0083 47.703C23.4028 48.755 24.0467 50.0527 23.4664 50.5556C23.3736 50.6299 23.3134 50.6635 23.3134 50.7979C23.3134 50.9198 23.4036 51.0277 23.5257 51.0277V51.0286ZM19.3322 46.987L20.9951 42.5503C21.1481 42.8253 21.3003 43.1002 21.3905 43.3601L22.7482 46.987H19.3322ZM34.8166 51.1815C35.3376 51.1815 35.825 51.1364 36.2832 51.0286H39.655C39.7142 51.0286 39.7771 50.9685 39.7771 50.9057C39.7771 50.8465 39.7293 50.8314 39.6851 50.7837C39.3649 50.5415 39.2419 49.8096 39.2419 49.2447V47.4776C39.2419 46.9119 39.364 46.18 39.6851 45.9201C39.7293 45.89 39.762 45.875 39.762 45.7998C39.762 45.738 39.7142 45.692 39.6399 45.692H35.5207C35.3199 45.692 35.1678 45.7998 35.1678 45.9192C35.1678 46.0562 35.2757 46.0898 35.4128 46.164C36.3133 46.667 36.6485 48.1167 36.6485 49.2438V49.273C36.6485 49.9015 36.2832 50.3886 35.5207 50.3886C33.6119 50.3886 32.5885 48.7117 32.3462 45.8891C32.0711 42.9172 33.2174 40.9954 34.9997 40.9954C36.8794 40.9954 36.101 41.7724 36.101 42.5503C36.101 43.3282 36.7706 43.848 37.5489 43.848C38.2822 43.848 38.9518 43.3601 38.9518 42.3983C38.9518 41.4365 37.9611 40.2034 34.8175 40.2034C31.6739 40.2034 29.4334 42.1861 29.4334 45.6779C29.4334 48.9875 31.3688 51.1824 34.8175 51.1824L34.8166 51.1815ZM42.5368 43.9064V47.4767C42.5368 48.6038 42.3068 50.0535 41.6664 50.5556C41.5744 50.6299 41.4992 50.6635 41.4992 50.7979C41.4992 50.9198 41.6062 51.0277 41.7442 51.0277H45.9378C46.0757 51.0277 46.1837 50.9198 46.1837 50.7979C46.1837 50.6635 46.1058 50.6299 46.0156 50.5556C45.3725 50.0527 45.1311 48.6029 45.1311 47.4767V43.9064C45.1311 42.7802 45.3584 41.3296 45.9979 40.8275C46.0908 40.7532 46.166 40.7196 46.166 40.5826C46.166 40.4624 46.0616 40.3545 45.9236 40.3545H41.7265C41.5921 40.3545 41.4842 40.4624 41.4842 40.5826C41.4842 40.7196 41.5585 40.7523 41.6522 40.8275C42.2917 41.3304 42.5368 42.7802 42.5368 43.9064ZM54.5574 42.5503C54.5574 43.3274 55.2305 43.848 56.008 43.848C56.7413 43.848 57.4109 43.3601 57.4109 42.3983C57.4109 41.4365 56.4202 40.2034 53.2775 40.2034C50.1348 40.2034 47.8925 42.1861 47.8925 45.6779C47.8925 48.9875 49.8305 51.1824 53.2775 51.1824C55.4128 51.1824 57.0615 50.2975 57.9319 48.6648C58.0062 48.5305 57.962 48.3775 57.824 48.2847C57.6869 48.2078 57.5188 48.2706 57.4268 48.4226C56.407 50.0553 54.8953 50.3895 53.9798 50.3895C52.071 50.3895 51.0485 48.7126 50.8062 45.89C50.5302 42.9181 51.6765 40.9963 53.4597 40.9963C55.3385 40.9963 54.5574 41.7733 54.5574 42.5512V42.5503Z" fill="#0209AA"/>
<path d="M4.91983 56.7241V60.2936C4.91983 61.4215 4.68897 62.8713 4.04857 63.3725C3.95924 63.4476 3.8814 63.4803 3.8814 63.6147C3.8814 63.7367 3.98843 63.8454 4.12641 63.8454H8.24564C8.36858 63.8454 8.45792 63.7376 8.45792 63.6147C8.45792 63.4803 8.39777 63.4476 8.3049 63.3725C7.72465 62.8704 7.51237 61.4207 7.51237 60.2936V59.6987H7.93959C11.1743 59.6987 12.7744 58.2489 12.7744 56.4341C12.7744 54.6193 11.1743 53.1723 8.24475 53.1723H4.11138C3.97339 53.1723 3.86548 53.2801 3.86548 53.3994C3.86548 53.5373 3.94332 53.5692 4.03354 53.6452C4.67305 54.1473 4.91895 55.597 4.91895 56.7241H4.91983ZM7.51413 58.9358V56.4341C7.51413 55.2478 7.68131 53.9342 8.03158 53.9342H8.09438C9.55738 53.9342 9.87758 55.109 9.87758 56.4341C9.87758 57.7592 9.4194 58.9358 7.94136 58.9358H7.51413Z" fill="#0209AA"/>
<path d="M20.0292 63.8454H24.0564C24.1484 63.8454 24.2245 63.7853 24.2245 63.7075C24.2245 63.6297 24.1794 63.6005 24.1201 63.5555C23.6619 63.2664 22.9888 62.4885 22.7465 61.8485L20.0009 54.4514C19.7117 53.6593 18.9925 53.1723 18.1523 53.1723H16.0497C15.9268 53.1723 15.8339 53.2642 15.8339 53.3694C15.8339 53.5073 15.8976 53.5223 15.9869 53.6001C16.1877 53.7521 16.4301 53.9944 16.6751 54.2693L13.8659 61.8485C13.6235 62.4876 12.9654 63.2664 12.5072 63.5555C12.448 63.6005 12.3878 63.6333 12.3878 63.7075C12.3878 63.7818 12.4621 63.8454 12.57 63.8454H15.0706C15.1935 63.8454 15.2864 63.7376 15.2864 63.6147C15.2864 63.4803 15.2236 63.4476 15.1334 63.3725C14.5522 62.8704 15.1776 61.5727 15.5765 60.5199L15.6207 60.4129H19.4649L19.5091 60.5199C19.9071 61.5727 20.5475 62.8704 19.9673 63.3725C19.8771 63.4476 19.8152 63.4803 19.8152 63.6147C19.8152 63.7367 19.9071 63.8454 20.0301 63.8454H20.0292ZM15.4934 59.803L17.1572 55.3663C17.3102 55.6421 17.4623 55.917 17.5552 56.1769L18.9129 59.803H15.4934Z" fill="#0209AA"/>
<path d="M29.1735 63.9972C29.6909 63.9972 30.1783 63.9531 30.6365 63.8452H34.0074C34.0702 63.8452 34.1294 63.7851 34.1294 63.7232C34.1294 63.6613 34.0852 63.6481 34.0392 63.6012C33.7164 63.359 33.597 62.6262 33.597 62.0613V60.2943C33.597 59.7294 33.7164 58.9966 34.0392 58.7367C34.0843 58.7066 34.1144 58.6925 34.1144 58.6174C34.1144 58.5546 34.0693 58.5095 33.9915 58.5095H29.8722C29.675 58.5095 29.5228 58.6174 29.5228 58.7367C29.5228 58.8746 29.6299 58.9073 29.7679 58.9824C30.6656 59.4845 31.0035 60.9343 31.0035 62.0613V62.0914C31.0035 62.719 30.6365 63.207 29.8731 63.207C27.9679 63.207 26.9445 61.5292 26.6994 58.7066C26.427 55.7356 27.5698 53.8129 29.3557 53.8129C31.2317 53.8129 30.4534 54.59 30.4534 55.3679C30.4534 56.1458 31.1229 56.6655 31.904 56.6655C32.6337 56.6655 33.3068 56.1785 33.3068 55.2158C33.3068 54.2532 32.3135 53.0218 29.1726 53.0218C26.0316 53.0218 23.7849 55.0037 23.7849 58.4954C23.7849 61.8059 25.7229 63.9999 29.1726 63.9999L29.1735 63.9972Z" fill="#0209AA"/>
<path d="M36.2124 63.8453H44.9391C45.1991 63.8453 45.4114 63.6331 45.4114 63.3723V61.6327C45.4114 61.3745 45.2911 61.1924 45.139 61.1924C44.9683 61.1924 44.9382 61.3268 44.8489 61.4983C44.2394 62.6404 42.4978 63.0824 41.1392 63.0824H40.1202C39.7664 63.0824 39.5992 61.7706 39.5992 60.5834V58.8879H40.6819C41.37 58.8879 42.2404 59.0886 42.5279 59.6685C42.5756 59.7586 42.6057 59.8205 42.68 59.8205C42.7543 59.8205 42.818 59.7286 42.818 59.6057V57.5487C42.818 57.4267 42.7578 57.333 42.68 57.333C42.6022 57.333 42.5756 57.3957 42.5279 57.485C42.2404 58.0658 41.37 58.278 40.6819 58.278H39.5992V56.4331C39.5992 55.2468 39.7664 53.9332 40.1202 53.9332C42.7287 53.9332 42.4686 56.0238 43.7034 56.0238C44.5747 56.0238 45.2593 55.3812 45.2593 54.5882C45.2593 53.7953 44.5738 53.1712 43.7034 53.1712H36.1982C36.0602 53.1712 35.9523 53.2791 35.9523 53.3984C35.9523 53.5363 36.0302 53.5681 36.1204 53.6441C36.7634 54.1462 37.0058 55.596 37.0058 56.723V60.2925C37.0058 61.4205 36.7776 62.8702 36.1381 63.3714C36.0461 63.4466 35.9683 63.4793 35.9683 63.6136C35.9683 63.7356 36.0762 63.8444 36.2133 63.8444L36.2124 63.8453Z" fill="#0209AA"/>
<path d="M51.2486 53.8412C52.5913 53.8412 51.9482 54.4662 51.9482 55.0947C51.9482 55.7232 52.4834 56.113 53.1087 56.113C53.6899 56.113 54.4373 55.8381 54.4373 55.0752C54.4373 54.3123 53.6421 53.0191 51.1407 53.0191C49.4468 53.0191 47.0064 53.7961 47.1585 55.93C47.1585 58.7048 51.9182 60.1846 51.9182 62.1515C51.9182 62.5793 51.5387 63.2043 50.8656 63.2043C49.752 63.2043 49.798 62.4264 49.798 61.6494C49.798 60.8723 49.1284 60.3517 48.35 60.3517C47.6167 60.3517 46.9471 60.8387 46.9471 61.8023C46.9471 62.7658 47.6919 63.9963 50.8364 63.9963C52.7266 63.9963 54.8176 62.8215 54.8176 61.1915C54.8176 58.6297 50.0589 57.0907 50.0589 55.3979C50.0589 54.5731 50.5905 53.8403 51.2495 53.8403L51.2486 53.8412Z" fill="#0209AA"/>
</svg>
