<svg width="88" height="98" viewBox="0 0 88 98" fill="none" xmlns="http://www.w3.org/2000/svg">
<path d="M43.9561 -0.000244141C19.6825 -0.000244141 0 19.6688 0 43.9287V51.8906C0 55.5192 2.94741 58.4648 6.5783 58.4648H13.5729L9.17391 43.1705L11.1706 43.0431C12.59 42.9585 13.9999 42.9263 15.3883 42.9679L14.9492 35.1027L16.9258 35.4221C17.3622 35.4972 17.8013 35.571 18.239 35.6569L18.6016 28.986L20.5231 29.5201C28.2119 31.6659 34.4263 35.3268 39.0186 40.3752C41.3256 42.9156 42.9074 45.4653 43.9856 47.7077C45.0639 45.4653 46.6443 42.9156 48.9512 40.3752C53.5328 35.3268 59.7593 31.6767 67.4468 29.5201L69.3696 28.986L69.7322 35.6569C70.1699 35.571 70.6077 35.4972 71.0454 35.4221L73.0207 35.1027L72.5829 42.9679C73.9606 42.9357 75.3799 42.9585 76.8006 43.0431L78.7973 43.1705L74.3446 58.4648H81.3392C84.9701 58.4648 87.9175 55.5192 87.9175 51.8906V43.9287C87.9121 19.6688 68.2309 -0.000244141 43.9561 -0.000244141ZM12.9646 30.5977L10.8282 30.9614C10.6684 30.9936 10.5503 31.1117 10.518 31.2714L10.1555 33.4051C10.0803 33.8225 9.48141 33.8225 9.41829 33.4051L9.05574 31.2714C9.02352 31.1117 8.90669 30.9936 8.7469 30.9614L6.61053 30.5977C6.19427 30.5226 6.19427 29.9254 6.61053 29.8623L8.7469 29.5C8.90669 29.4678 9.02352 29.3497 9.05574 29.19L9.41829 27.055C9.49349 26.639 10.0924 26.639 10.1555 27.055L10.518 29.19C10.5503 29.3497 10.6684 29.4678 10.8282 29.5L12.9646 29.8623C13.3809 29.9362 13.3809 30.5347 12.9646 30.5977ZM24.8509 14.7398L23.3027 15.0069C23.1859 15.0283 23.0999 15.1129 23.0784 15.231L22.8112 16.7769C22.7589 17.0762 22.3198 17.0762 22.2781 16.7769L22.0109 15.231C21.9894 15.1129 21.9035 15.0283 21.7867 15.0069L20.2371 14.7398C19.9377 14.6861 19.9377 14.2487 20.2371 14.2057L21.7867 13.9387C21.9035 13.9172 21.9881 13.8313 22.0109 13.7146L22.2781 12.1673C22.3305 11.868 22.7696 11.868 22.8112 12.1673L23.0784 13.7146C23.0999 13.8313 23.1859 13.9172 23.3027 13.9387L24.8509 14.2057C25.1504 14.2487 25.1504 14.6861 24.8509 14.7398ZM37.7511 32.0283L36.2028 32.2953C36.086 32.3168 36.0014 32.4027 35.9786 32.5194L35.7114 34.0667C35.659 34.366 35.2199 34.366 35.1783 34.0667L34.9111 32.5194C34.8896 32.4027 34.8036 32.3181 34.6868 32.2953L33.1386 32.0283C32.8391 31.9759 32.8391 31.5371 33.1386 31.4955L34.6868 31.2285C34.8036 31.2083 34.8882 31.1211 34.9111 31.0044L35.1783 29.4571C35.2307 29.1578 35.6697 29.1578 35.7114 29.4571L35.9786 31.0044C36.0001 31.1211 36.086 31.207 36.2028 31.2285L37.7511 31.4955C38.0505 31.5478 38.0505 31.9746 37.7511 32.0283ZM43.4968 21.2591L40.399 21.7932C40.1748 21.8361 39.9935 22.0079 39.9505 22.2414L39.4161 25.3373C39.3087 25.9452 38.4453 25.9452 38.3379 25.3373L37.8034 22.2414C37.7618 22.0173 37.5899 21.8361 37.3549 21.7932L34.2585 21.2591C33.6489 21.153 33.6489 20.2888 34.2585 20.1815L37.3549 19.6487C37.5792 19.6058 37.7618 19.434 37.8034 19.1991L38.3379 16.1046C38.4453 15.4967 39.3087 15.4967 39.4161 16.1046L39.9505 19.1991C39.9935 19.4246 40.164 19.6058 40.399 19.6487L43.4968 20.1815C44.1051 20.2888 44.1051 21.153 43.4968 21.2591ZM50.3424 8.3776L48.7941 8.64465C48.6773 8.66612 48.5914 8.752 48.5699 8.86876L48.3027 10.416C48.2503 10.7153 47.8112 10.7153 47.7682 10.416L47.501 8.86876C47.4795 8.752 47.3949 8.66612 47.2768 8.64465L45.7285 8.3776C45.4291 8.32526 45.4291 7.88644 45.7285 7.8435L47.2768 7.57645C47.3949 7.55498 47.4795 7.47044 47.501 7.35234L47.7682 5.80641C47.8219 5.50715 48.2597 5.50715 48.3027 5.80641L48.5699 7.35234C48.5914 7.47044 48.6773 7.55498 48.7941 7.57645L50.3424 7.8435C50.6418 7.89718 50.6418 8.33466 50.3424 8.3776ZM55.8424 30.5025L54.2942 30.7695C54.1773 30.791 54.0914 30.8769 54.0699 30.9936L53.8027 32.5409C53.7503 32.8401 53.3113 32.8401 53.2683 32.5409L53.0024 30.9936C52.9796 30.8769 52.895 30.791 52.7768 30.7695L51.2299 30.5025C50.9305 30.4501 50.9305 30.0113 51.2299 29.9684L52.7768 29.7027C52.895 29.6812 52.9796 29.5953 53.0024 29.4772L53.2683 27.9299C53.322 27.6307 53.7597 27.6307 53.8027 27.9299L54.0699 29.4772C54.0914 29.5953 54.1773 29.6798 54.2942 29.7027L55.8424 29.9684C56.1418 30.0113 56.1418 30.4501 55.8424 30.5025ZM68.2309 19.5521L65.1331 20.0848C64.9089 20.1278 64.7276 20.2996 64.6846 20.5344L64.1502 23.629C64.0428 24.2369 63.1794 24.2369 63.072 23.629L62.5375 20.5344C62.4959 20.3089 62.324 20.1278 62.089 20.0848L58.9926 19.5521C58.3829 19.4447 58.3829 18.5805 58.9926 18.4745L62.089 17.9404C62.3133 17.8974 62.4959 17.7257 62.5375 17.4922L63.072 14.3963C63.1794 13.7884 64.0428 13.7884 64.1502 14.3963L64.6846 17.4922C64.7276 17.7163 64.8981 17.8974 65.1331 17.9404L68.2309 18.4745C68.8392 18.5805 68.8392 19.4447 68.2309 19.5521ZM82.0818 33.6507L80.5335 33.9177C80.4167 33.9392 80.3308 34.0251 80.3093 34.1418L80.0421 35.6891C79.9897 35.9884 79.5506 35.9884 79.5076 35.6891L79.2404 34.1418C79.2189 34.0251 79.1344 33.9392 79.0162 33.9177L77.4693 33.6507C77.1699 33.5984 77.1699 33.1595 77.4693 33.1166L79.0162 32.8495C79.1344 32.8281 79.2189 32.7435 79.2404 32.6254L79.5076 31.0782C79.5614 30.7789 79.9991 30.7789 80.0421 31.0782L80.3093 32.6254C80.3308 32.7435 80.4167 32.8281 80.5335 32.8495L82.0818 33.1166C82.3812 33.1703 82.3812 33.5984 82.0818 33.6507Z" fill="white"/>
<path d="M70.845 44.6436L71.272 37.0025C70.2031 37.1729 69.1893 37.3756 68.197 37.6104L67.8439 31.0576C50.8321 35.8283 45.5134 47.0028 43.9544 52.0512C42.3847 47.0028 37.0766 35.8175 20.0649 31.0576L19.7131 37.6104C18.7302 37.3863 17.7056 37.1837 16.6381 37.0025L17.0651 44.6436C15.2497 44.5268 13.3053 44.5161 11.2549 44.6436L15.2282 58.4658H17.813L15.7519 48.903C15.7519 48.903 29.2187 47.8683 39.3849 57.4633C40.0684 58.1142 40.9868 58.4658 41.9281 58.4658C40.7747 56.4488 34.6328 47.0242 20.0461 44.9536L20.0783 42.1569C20.0783 42.1569 33.4377 44.1417 41.2111 55.7537C41.7348 56.532 42.5471 57.0876 43.4656 57.2902C42.7499 54.9418 38.4463 43.2775 22.6833 38.4102L22.9076 36.5516C22.9076 36.5516 36.279 40.0742 42.6438 52.8389C42.911 53.3717 43.3595 53.7783 43.9262 53.9702L43.9477 53.9809L43.9692 53.9702C44.5237 53.7783 44.983 53.3623 45.2502 52.8389C51.615 40.0635 64.9864 36.5516 64.9864 36.5516L65.2107 38.4102C49.4477 43.2761 45.1427 54.9404 44.4284 57.2902C45.3469 57.0768 46.1592 56.532 46.6829 55.7537C54.4671 44.131 67.817 42.1569 67.817 42.1569L67.8492 44.9536C53.2827 47.0135 47.1435 56.4488 45.99 58.4658C46.9287 58.4658 47.8471 58.1142 48.5306 57.4633C58.7076 47.8683 72.165 48.903 72.165 48.903L70.1038 58.4658H72.6886L76.6713 44.6436C74.6102 44.5161 72.6779 44.5268 70.8517 44.6436H70.845Z" fill="white"/>
<path d="M1.85475 66.6536V72.0737C1.85475 73.7847 1.50563 75.9855 0.53345 76.7478C0.396486 76.8605 0.27832 76.9115 0.27832 77.1155C0.27832 77.3007 0.44214 77.4644 0.651615 77.4644H4.58866C4.77396 77.4644 4.90959 77.3007 4.90959 77.1155C4.90959 76.9115 4.81962 76.8605 4.67728 76.7478C3.79642 75.9842 3.47415 73.7834 3.47415 72.0737V65.1747L8.36054 76.9343C8.50019 77.2564 8.77815 77.4657 9.12459 77.4657H10.0726C10.4231 77.4657 10.7453 77.2336 10.8635 76.9128L15.9808 63.6677V72.0737C15.9808 73.7847 15.6317 75.9855 14.6595 76.7478C14.5226 76.8605 14.4044 76.9115 14.4044 77.1155C14.4044 77.3007 14.5682 77.4644 14.7777 77.4644H21.1439C21.3533 77.4644 21.5172 77.3007 21.5172 77.1155C21.5172 76.9115 21.399 76.8605 21.262 76.7478C20.2912 75.9842 19.9179 73.7834 19.9179 72.0737V66.6536C19.9179 64.9439 20.263 62.7418 21.2405 61.9795C21.3762 61.8668 21.4943 61.8158 21.4943 61.6078C21.4943 61.4253 21.3318 61.2616 21.1224 61.2616H16.812C15.7271 61.2616 14.8234 61.9111 14.4286 62.9055L10.8178 72.2817L6.94928 62.9498C6.50884 61.9111 5.55949 61.2616 4.4235 61.2616H0.628787C0.419313 61.2616 0.256836 61.4253 0.256836 61.6078C0.256836 61.8158 0.375001 61.8655 0.510622 61.9795C1.4828 62.7431 1.85475 64.9439 1.85475 66.6536ZM35.7144 77.4657H41.8268C41.9691 77.4657 42.0859 77.3745 42.0859 77.2564C42.0859 77.1383 42.0134 77.0927 41.9235 77.0256C41.2279 76.5854 40.2114 75.4045 39.8395 74.4342L35.6688 63.2047C35.2297 62.001 34.138 61.2616 32.8677 61.2616H29.6705C29.4852 61.2616 29.3483 61.4025 29.3483 61.5622C29.3483 61.7702 29.4396 61.7943 29.5792 61.9111C29.8787 62.1432 30.2466 62.5109 30.6199 62.927L26.3592 74.4329C25.9859 75.4031 24.9923 76.5841 24.2967 77.0242C24.2014 77.0913 24.1114 77.1423 24.1114 77.255C24.1114 77.3678 24.2242 77.4644 24.388 77.4644H28.1894C28.3721 77.4644 28.5117 77.3007 28.5117 77.1155C28.5117 76.9115 28.4204 76.8605 28.2808 76.7478C27.3986 75.9842 28.3479 74.0156 28.9535 72.4173L29.0206 72.2536H34.8564L34.9289 72.4173C35.5278 74.0142 36.5053 75.9842 35.6245 76.7478C35.4835 76.8605 35.3922 76.9115 35.3922 77.1155C35.3922 77.3007 35.5291 77.4644 35.7144 77.4644V77.4657ZM29.3483 71.3303L31.8727 64.595C32.105 65.0124 32.336 65.4297 32.4729 65.8242L34.5341 71.3303H29.3483ZM52.8551 77.6979C53.646 77.6979 54.3858 77.6294 55.0814 77.4657H60.2001C60.2901 77.4657 60.3854 77.3745 60.3854 77.2792C60.3854 77.1893 60.3129 77.1665 60.2458 77.094C59.7597 76.7263 59.573 75.6152 59.573 74.7577V72.0751C59.573 71.2162 59.7583 70.1051 60.2458 69.7105C60.3129 69.6649 60.3626 69.6421 60.3626 69.528C60.3626 69.4341 60.2901 69.3643 60.1773 69.3643H53.9239C53.6191 69.3643 53.3882 69.528 53.3882 69.7092C53.3882 69.9172 53.552 69.9682 53.7601 70.0809C55.1271 70.8445 55.636 73.0453 55.636 74.7563V74.8006C55.636 75.7547 55.0814 76.4941 53.9239 76.4941C51.0262 76.4941 49.4726 73.9485 49.1047 69.6636C48.6871 65.1519 50.4273 62.2345 53.133 62.2345C55.9864 62.2345 54.8048 63.4141 54.8048 64.595C54.8048 65.7759 55.8213 66.565 57.0029 66.565C58.1161 66.565 59.1326 65.8242 59.1326 64.3642C59.1326 62.9041 57.6287 61.0321 52.8564 61.0321C48.0842 61.0321 44.6829 64.0421 44.6829 69.3428C44.6829 74.3671 47.6209 77.6992 52.8564 77.6992L52.8551 77.6979ZM64.5749 66.6536V72.0737C64.5749 73.7847 64.2258 75.9855 63.2536 76.7478C63.1139 76.8605 62.9998 76.9115 62.9998 77.1155C62.9998 77.3007 63.1623 77.4644 63.3718 77.4644H69.7379C69.9474 77.4644 70.1112 77.3007 70.1112 77.1155C70.1112 76.9115 69.993 76.8605 69.8561 76.7478C68.8799 75.9842 68.5133 73.7834 68.5133 72.0737V66.6536C68.5133 64.9439 68.8584 62.7418 69.8292 61.9795C69.9702 61.8668 70.0844 61.8158 70.0844 61.6078C70.0844 61.4253 69.9259 61.2616 69.7164 61.2616H63.3449C63.1408 61.2616 62.977 61.4253 62.977 61.6078C62.977 61.8158 63.0898 61.8655 63.2321 61.9795C64.2029 62.7431 64.5749 64.9439 64.5749 66.6536ZM82.8233 64.595C82.8233 65.7746 83.8452 66.565 85.0255 66.565C86.1387 66.565 87.1552 65.8242 87.1552 64.3642C87.1552 62.9041 85.6513 61.0321 80.8803 61.0321C76.1094 61.0321 72.7055 64.0421 72.7055 69.3428C72.7055 74.3671 75.6475 77.6992 80.8803 77.6992C84.1218 77.6992 86.6248 76.3559 87.9461 73.8773C88.0589 73.6734 87.9917 73.4412 87.7822 73.3003C87.5741 73.1835 87.319 73.2788 87.1793 73.5096C85.6311 75.9882 83.3363 76.4955 81.9465 76.4955C79.0488 76.4955 77.4965 73.9498 77.1286 69.6649C76.7096 65.1533 78.4499 62.2358 81.157 62.2358C84.009 62.2358 82.8233 63.4154 82.8233 64.5963V64.595Z" fill="white"/>
<path d="M7.46779 86.1121V91.5309C7.46779 93.2432 7.11732 95.4441 6.14514 96.2049C6.00952 96.319 5.89136 96.3687 5.89136 96.5726C5.89136 96.7578 6.05383 96.9229 6.26331 96.9229H12.5167C12.7033 96.9229 12.8389 96.7592 12.8389 96.5726C12.8389 96.3687 12.7476 96.319 12.6066 96.2049C11.7258 95.4427 11.4035 93.2419 11.4035 91.5309V90.6278H12.0521C16.9626 90.6278 19.3917 88.427 19.3917 85.6719C19.3917 82.9169 16.9626 80.7201 12.5153 80.7201H6.24048C6.03101 80.7201 5.86719 80.8838 5.86719 81.065C5.86719 81.2743 5.98535 81.3226 6.12232 81.438C7.09315 82.2003 7.46644 84.4011 7.46644 86.1121H7.46779ZM11.4062 89.4697V85.6719C11.4062 83.871 11.66 81.8769 12.1917 81.8769H12.287C14.508 81.8769 14.9941 83.6603 14.9941 85.6719C14.9941 87.6835 14.2985 89.4697 12.0547 89.4697H11.4062Z" fill="white"/>
<path d="M30.407 96.9229H36.5207C36.6603 96.9229 36.7758 96.8316 36.7758 96.7135C36.7758 96.5955 36.7073 96.5512 36.6173 96.4827C35.9218 96.0439 34.8999 94.863 34.532 93.8914L30.364 82.6619C29.9249 81.4595 28.8332 80.7201 27.5576 80.7201H24.3658C24.1791 80.7201 24.0381 80.8597 24.0381 81.0193C24.0381 81.2287 24.1348 81.2515 24.2704 81.3696C24.5752 81.6004 24.9432 81.9681 25.3151 82.3855L21.0504 93.8914C20.6825 94.8616 19.6835 96.0439 18.9879 96.4827C18.8979 96.5512 18.8066 96.6008 18.8066 96.7135C18.8066 96.8263 18.9194 96.9229 19.0833 96.9229H22.8793C23.066 96.9229 23.2069 96.7592 23.2069 96.5726C23.2069 96.3687 23.1116 96.319 22.9746 96.2049C22.0924 95.4427 23.0418 93.4727 23.6474 91.8744L23.7145 91.7121H29.5503L29.6174 91.8744C30.2217 93.4727 31.1938 95.4427 30.313 96.2049C30.176 96.319 30.082 96.3687 30.082 96.5726C30.082 96.7578 30.2217 96.9229 30.4083 96.9229H30.407ZM23.5212 90.7861L26.0469 84.0508C26.2792 84.4695 26.5102 84.8869 26.6512 85.2814L28.7124 90.7861H23.5212Z" fill="white"/>
<path d="M44.2847 97.1538C45.0703 97.1538 45.8101 97.0867 46.5057 96.923H51.6231C51.7184 96.923 51.8084 96.8317 51.8084 96.7378C51.8084 96.6439 51.7412 96.6237 51.6714 96.5526C51.1813 96.1849 51 95.0724 51 94.2149V91.5324C51 90.6748 51.1813 89.5624 51.6714 89.1678C51.7399 89.1222 51.7855 89.1007 51.7855 88.9867C51.7855 88.8914 51.7171 88.8229 51.5989 88.8229H45.3455C45.0461 88.8229 44.8151 88.9867 44.8151 89.1678C44.8151 89.3772 44.9776 89.4268 45.1871 89.5409C46.55 90.3031 47.063 92.5039 47.063 94.2149V94.2606C47.063 95.2133 46.5057 95.9541 45.3469 95.9541C42.4545 95.9541 40.9009 93.4071 40.529 89.1222C40.1154 84.6119 41.8503 81.6931 44.5614 81.6931C47.4094 81.6931 46.2278 82.8727 46.2278 84.0536C46.2278 85.2345 47.2442 86.0236 48.4299 86.0236C49.5377 86.0236 50.5596 85.2842 50.5596 83.8228C50.5596 82.3614 49.0516 80.4921 44.2834 80.4921C39.5152 80.4921 36.1045 83.5007 36.1045 88.8015C36.1045 93.8271 39.0465 97.1578 44.2834 97.1578L44.2847 97.1538Z" fill="white"/>
<path d="M54.971 96.9219H68.2189C68.6136 96.9219 68.9359 96.5998 68.9359 96.204V93.563C68.9359 93.1711 68.7533 92.8947 68.5223 92.8947C68.2632 92.8947 68.2175 93.0987 68.0819 93.359C67.1567 95.0928 64.5128 95.7638 62.4503 95.7638H60.9034C60.3663 95.7638 60.1125 93.7723 60.1125 91.9701V89.3962H61.756C62.8007 89.3962 64.122 89.7008 64.5584 90.5812C64.6309 90.718 64.6766 90.812 64.7894 90.812C64.9022 90.812 64.9989 90.6724 64.9989 90.4859V87.3632C64.9989 87.178 64.9076 87.0357 64.7894 87.0357C64.6712 87.0357 64.6309 87.131 64.5584 87.2665C64.122 88.1482 62.8007 88.4703 61.756 88.4703H60.1125V85.6696C60.1125 83.8687 60.3663 81.8745 60.9034 81.8745C64.8632 81.8745 64.4685 85.0483 66.343 85.0483C67.6656 85.0483 68.705 84.0727 68.705 82.8689C68.705 81.6652 67.6643 80.7178 66.343 80.7178H54.9495C54.74 80.7178 54.5762 80.8815 54.5762 81.0627C54.5762 81.272 54.6943 81.3203 54.8313 81.4357C55.8075 82.1979 56.1754 84.3988 56.1754 86.1098V91.5286C56.1754 93.2409 55.829 95.4417 54.8582 96.2026C54.7185 96.3167 54.6003 96.3663 54.6003 96.5703C54.6003 96.7555 54.7642 96.9206 54.9723 96.9206L54.971 96.9219Z" fill="white"/>
<path d="M77.7995 81.7354C79.8378 81.7354 78.8616 82.6842 78.8616 83.6383C78.8616 84.5925 79.674 85.1843 80.6234 85.1843C81.5056 85.1843 82.6402 84.7669 82.6402 83.6088C82.6402 82.4507 81.4331 80.4874 77.6357 80.4874C75.0642 80.4874 71.3595 81.667 71.5905 84.9065C71.5905 89.1189 78.816 91.3653 78.816 94.3512C78.816 95.0007 78.2399 95.9495 77.2181 95.9495C75.5275 95.9495 75.5973 94.7685 75.5973 93.589C75.5973 92.4094 74.5808 91.619 73.3992 91.619C72.286 91.619 71.2695 92.3584 71.2695 93.8211C71.2695 95.2839 72.4002 97.1519 77.1738 97.1519C80.0433 97.1519 83.2176 95.3684 83.2176 92.8938C83.2176 89.0048 75.9934 86.6685 75.9934 84.0986C75.9934 82.8466 76.8005 81.7341 77.8008 81.7341L77.7995 81.7354Z" fill="white"/>
</svg>
