<svg width="88" height="98" viewBox="0 0 88 98" fill="none" xmlns="http://www.w3.org/2000/svg">
<path d="M43.9561 0C19.6825 0 0 19.6691 0 43.929V51.8908C0 55.5195 2.94741 58.4651 6.5783 58.4651H13.5729L9.17391 43.1708L11.1706 43.0433C12.59 42.9588 13.9999 42.9265 15.3883 42.9682L14.9492 35.1029L16.9258 35.4223C17.3622 35.4975 17.8013 35.5713 18.239 35.6572L18.6016 28.9863L20.5231 29.5204C28.2119 31.6662 34.4263 35.327 39.0186 40.3755C41.3256 42.9158 42.9074 45.4655 43.9856 47.7079C45.0639 45.4655 46.6443 42.9158 48.9512 40.3755C53.5328 35.327 59.7593 31.6769 67.4468 29.5204L69.3696 28.9863L69.7322 35.6572C70.1699 35.5713 70.6077 35.4975 71.0454 35.4223L73.0207 35.1029L72.5829 42.9682C73.9606 42.9359 75.3799 42.9588 76.8006 43.0433L78.7973 43.1708L74.3446 58.4651H81.3392C84.9701 58.4651 87.9175 55.5195 87.9175 51.8908V43.929C87.9121 19.6691 68.2309 0 43.9561 0ZM12.9646 30.598L10.8282 30.9617C10.6684 30.9939 10.5503 31.112 10.518 31.2716L10.1555 33.4054C10.0803 33.8227 9.48141 33.8227 9.41829 33.4054L9.05574 31.2716C9.02352 31.112 8.90669 30.9939 8.7469 30.9617L6.61053 30.598C6.19427 30.5228 6.19427 29.9257 6.61053 29.8626L8.7469 29.5003C8.90669 29.4681 9.02352 29.35 9.05574 29.1903L9.41829 27.0552C9.49349 26.6392 10.0924 26.6392 10.1555 27.0552L10.518 29.1903C10.5503 29.35 10.6684 29.4681 10.8282 29.5003L12.9646 29.8626C13.3809 29.9364 13.3809 30.5349 12.9646 30.598ZM24.8509 14.7401L23.3027 15.0071C23.1859 15.0286 23.0999 15.1131 23.0784 15.2312L22.8112 16.7772C22.7589 17.0764 22.3198 17.0764 22.2781 16.7772L22.0109 15.2312C21.9894 15.1131 21.9035 15.0286 21.7867 15.0071L20.2371 14.7401C19.9377 14.6864 19.9377 14.2489 20.2371 14.206L21.7867 13.9389C21.9035 13.9174 21.9881 13.8316 22.0109 13.7148L22.2781 12.1675C22.3305 11.8683 22.7696 11.8683 22.8112 12.1675L23.0784 13.7148C23.0999 13.8316 23.1859 13.9174 23.3027 13.9389L24.8509 14.206C25.1504 14.2489 25.1504 14.6864 24.8509 14.7401ZM37.7511 32.0285L36.2028 32.2956C36.086 32.317 36.0014 32.4029 35.9786 32.5197L35.7114 34.0669C35.659 34.3662 35.2199 34.3662 35.1783 34.0669L34.9111 32.5197C34.8896 32.4029 34.8036 32.3184 34.6868 32.2956L33.1386 32.0285C32.8391 31.9762 32.8391 31.5374 33.1386 31.4958L34.6868 31.2287C34.8036 31.2086 34.8882 31.1213 34.9111 31.0046L35.1783 29.4573C35.2307 29.1581 35.6697 29.1581 35.7114 29.4573L35.9786 31.0046C36.0001 31.1213 36.086 31.2072 36.2028 31.2287L37.7511 31.4958C38.0505 31.5481 38.0505 31.9748 37.7511 32.0285ZM43.4968 21.2593L40.399 21.7934C40.1748 21.8363 39.9935 22.0081 39.9505 22.2416L39.4161 25.3375C39.3087 25.9454 38.4453 25.9454 38.3379 25.3375L37.8034 22.2416C37.7618 22.0175 37.5899 21.8363 37.3549 21.7934L34.2585 21.2593C33.6489 21.1533 33.6489 20.2891 34.2585 20.1817L37.3549 19.6489C37.5792 19.606 37.7618 19.4342 37.8034 19.1994L38.3379 16.1048C38.4453 15.4969 39.3087 15.4969 39.4161 16.1048L39.9505 19.1994C39.9935 19.4248 40.164 19.606 40.399 19.6489L43.4968 20.1817C44.1051 20.2891 44.1051 21.1533 43.4968 21.2593ZM50.3424 8.37784L48.7941 8.64489C48.6773 8.66636 48.5914 8.75225 48.5699 8.869L48.3027 10.4163C48.2503 10.7155 47.8112 10.7155 47.7682 10.4163L47.501 8.869C47.4795 8.75225 47.3949 8.66636 47.2768 8.64489L45.7285 8.37784C45.4291 8.32551 45.4291 7.88669 45.7285 7.84374L47.2768 7.57669C47.3949 7.55522 47.4795 7.47068 47.501 7.35259L47.7682 5.80665C47.8219 5.5074 48.2597 5.5074 48.3027 5.80665L48.5699 7.35259C48.5914 7.47068 48.6773 7.55522 48.7941 7.57669L50.3424 7.84374C50.6418 7.89742 50.6418 8.3349 50.3424 8.37784ZM55.8424 30.5027L54.2942 30.7698C54.1773 30.7912 54.0914 30.8771 54.0699 30.9939L53.8027 32.5411C53.7503 32.8404 53.3113 32.8404 53.2683 32.5411L53.0024 30.9939C52.9796 30.8771 52.895 30.7912 52.7768 30.7698L51.2299 30.5027C50.9305 30.4504 50.9305 30.0115 51.2299 29.9686L52.7768 29.7029C52.895 29.6814 52.9796 29.5955 53.0024 29.4774L53.2683 27.9302C53.322 27.6309 53.7597 27.6309 53.8027 27.9302L54.0699 29.4774C54.0914 29.5955 54.1773 29.6801 54.2942 29.7029L55.8424 29.9686C56.1418 30.0115 56.1418 30.4504 55.8424 30.5027ZM68.2309 19.5523L65.1331 20.0851C64.9089 20.128 64.7276 20.2998 64.6846 20.5346L64.1502 23.6292C64.0428 24.2371 63.1794 24.2371 63.072 23.6292L62.5375 20.5346C62.4959 20.3092 62.324 20.128 62.089 20.0851L58.9926 19.5523C58.3829 19.445 58.3829 18.5807 58.9926 18.4747L62.089 17.9406C62.3133 17.8977 62.4959 17.7259 62.5375 17.4924L63.072 14.3965C63.1794 13.7886 64.0428 13.7886 64.1502 14.3965L64.6846 17.4924C64.7276 17.7165 64.8981 17.8977 65.1331 17.9406L68.2309 18.4747C68.8392 18.5807 68.8392 19.445 68.2309 19.5523ZM82.0818 33.6509L80.5335 33.918C80.4167 33.9395 80.3308 34.0253 80.3093 34.1421L80.0421 35.6894C79.9897 35.9886 79.5506 35.9886 79.5076 35.6894L79.2404 34.1421C79.2189 34.0253 79.1344 33.9395 79.0162 33.918L77.4693 33.6509C77.1699 33.5986 77.1699 33.1598 77.4693 33.1168L79.0162 32.8498C79.1344 32.8283 79.2189 32.7438 79.2404 32.6257L79.5076 31.0784C79.5614 30.7791 79.9991 30.7791 80.0421 31.0784L80.3093 32.6257C80.3308 32.7438 80.4167 32.8283 80.5335 32.8498L82.0818 33.1168C82.3812 33.1705 82.3812 33.5986 82.0818 33.6509Z" fill="white"/>
<path d="M70.8452 44.6441L71.2722 37.003C70.2034 37.1734 69.1896 37.376 68.1973 37.6109L67.8441 31.0581C50.8324 35.8288 45.5136 47.0033 43.9546 52.0517C42.3849 47.0033 37.0769 35.818 20.0651 31.0581L19.7133 37.6109C18.7304 37.3868 17.7059 37.1841 16.6384 37.003L17.0654 44.6441C15.2499 44.5273 13.3056 44.5166 11.2551 44.6441L15.2284 58.4663H17.8133L15.7521 48.9035C15.7521 48.9035 29.2189 47.8688 39.3851 57.4638C40.0686 58.1147 40.9871 58.4663 41.9284 58.4663C40.7749 56.4493 34.633 47.0247 20.0463 44.9541L20.0786 42.1574C20.0786 42.1574 33.4379 44.1422 41.2113 55.7542C41.735 56.5325 42.5474 57.0881 43.4659 57.2907C42.7501 54.9423 38.4465 43.278 22.6836 38.4107L22.9078 36.5521C22.9078 36.5521 36.2793 40.0747 42.6441 52.8394C42.9113 53.3722 43.3598 53.7788 43.9264 53.9707L43.9479 53.9814L43.9694 53.9707C44.524 53.7788 44.9832 53.3628 45.2504 52.8394C51.6152 40.064 64.9867 36.5521 64.9867 36.5521L65.2109 38.4107C49.448 43.2766 45.143 54.9409 44.4286 57.2907C45.3471 57.0773 46.1595 56.5325 46.6832 55.7542C54.4673 44.1315 67.8173 42.1574 67.8173 42.1574L67.8495 44.9541C53.283 47.014 47.1437 56.4493 45.9903 58.4663C46.9289 58.4663 47.8474 58.1147 48.5308 57.4638C58.7078 47.8688 72.1652 48.9035 72.1652 48.9035L70.104 58.4663H72.6889L76.6716 44.6441C74.6104 44.5166 72.6781 44.5273 70.852 44.6441H70.8452Z" fill="white"/>
<path d="M1.85451 66.6537V72.0739C1.85451 73.7849 1.50538 75.9857 0.533206 76.7479C0.396241 76.8606 0.278076 76.9116 0.278076 77.1156C0.278076 77.3008 0.441896 77.4645 0.651371 77.4645H4.58842C4.77372 77.4645 4.90934 77.3008 4.90934 77.1156C4.90934 76.9116 4.81938 76.8606 4.67704 76.7479C3.79617 75.9843 3.4739 73.7835 3.4739 72.0739V65.1749L8.3603 76.9344C8.49995 77.2565 8.7779 77.4658 9.12434 77.4658H10.0724C10.4228 77.4658 10.7451 77.2337 10.8633 76.913L15.9806 63.6678V72.0739C15.9806 73.7849 15.6315 75.9857 14.6593 76.7479C14.5223 76.8606 14.4042 76.9116 14.4042 77.1156C14.4042 77.3008 14.568 77.4645 14.7775 77.4645H21.1436C21.3531 77.4645 21.5169 77.3008 21.5169 77.1156C21.5169 76.9116 21.3987 76.8606 21.2618 76.7479C20.2909 75.9843 19.9177 73.7835 19.9177 72.0739V66.6537C19.9177 64.944 20.2627 62.7419 21.2403 61.9796C21.3759 61.8669 21.4941 61.8159 21.4941 61.6079C21.4941 61.4254 21.3316 61.2617 21.1221 61.2617H16.8118C15.7268 61.2617 14.8231 61.9112 14.4283 62.9056L10.8176 72.2819L6.94903 62.9499C6.5086 61.9112 5.55925 61.2617 4.42325 61.2617H0.628543C0.419069 61.2617 0.256592 61.4254 0.256592 61.6079C0.256592 61.8159 0.374757 61.8656 0.510378 61.9796C1.48255 62.7432 1.85451 64.944 1.85451 66.6537ZM35.7142 77.4658H41.8265C41.9689 77.4658 42.0857 77.3746 42.0857 77.2565C42.0857 77.1384 42.0132 77.0928 41.9232 77.0257C41.2276 76.5855 40.2112 75.4046 39.8392 74.4344L35.6685 63.2049C35.2294 62.0011 34.1377 61.2617 32.8675 61.2617H29.6703C29.485 61.2617 29.348 61.4026 29.348 61.5623C29.348 61.7703 29.4393 61.7945 29.579 61.9112C29.8784 62.1434 30.2464 62.5111 30.6196 62.9271L26.359 74.433C25.9857 75.4033 24.992 76.5842 24.2965 77.0243C24.2011 77.0914 24.1112 77.1424 24.1112 77.2552C24.1112 77.3679 24.224 77.4645 24.3878 77.4645H28.1892C28.3718 77.4645 28.5115 77.3008 28.5115 77.1156C28.5115 76.9116 28.4202 76.8606 28.2805 76.7479C27.3983 75.9843 28.3477 74.0157 28.9533 72.4174L29.0204 72.2537H34.8561L34.9286 72.4174C35.5275 74.0143 36.5051 75.9843 35.6242 76.7479C35.4832 76.8606 35.3919 76.9116 35.3919 77.1156C35.3919 77.3008 35.5289 77.4645 35.7142 77.4645V77.4658ZM29.348 71.3304L31.8725 64.5951C32.1048 65.0125 32.3357 65.4298 32.4727 65.8244L34.5339 71.3304H29.348ZM52.8548 77.698C53.6457 77.698 54.3856 77.6296 55.0812 77.4658H60.1999C60.2898 77.4658 60.3852 77.3746 60.3852 77.2793C60.3852 77.1894 60.3127 77.1666 60.2455 77.0941C59.7594 76.7264 59.5728 75.6153 59.5728 74.7578V72.0752C59.5728 71.2164 59.7581 70.1052 60.2455 69.7107C60.3127 69.665 60.3623 69.6422 60.3623 69.5282C60.3623 69.4342 60.2898 69.3644 60.177 69.3644H53.9237C53.6189 69.3644 53.3879 69.5282 53.3879 69.7093C53.3879 69.9173 53.5517 69.9683 53.7599 70.081C55.1268 70.8446 55.6357 73.0454 55.6357 74.7564V74.8007C55.6357 75.7549 55.0812 76.4943 53.9237 76.4943C51.026 76.4943 49.4724 73.9486 49.1044 69.6637C48.6868 65.152 50.4271 62.2346 53.1328 62.2346C55.9862 62.2346 54.8046 63.4142 54.8046 64.5951C54.8046 65.7761 55.821 66.5651 57.0027 66.5651C58.1159 66.5651 59.1323 65.8244 59.1323 64.3643C59.1323 62.9043 57.6284 61.0322 52.8562 61.0322C48.0839 61.0322 44.6826 64.0422 44.6826 69.343C44.6826 74.3673 47.6206 77.6993 52.8562 77.6993L52.8548 77.698ZM64.5747 66.6537V72.0739C64.5747 73.7849 64.2255 75.9857 63.2534 76.7479C63.1137 76.8606 62.9996 76.9116 62.9996 77.1156C62.9996 77.3008 63.162 77.4645 63.3715 77.4645H69.7377C69.9471 77.4645 70.111 77.3008 70.111 77.1156C70.111 76.9116 69.9928 76.8606 69.8558 76.7479C68.8796 75.9843 68.513 73.7835 68.513 72.0739V66.6537C68.513 64.944 68.8581 62.7419 69.829 61.9796C69.97 61.8669 70.0841 61.8159 70.0841 61.6079C70.0841 61.4254 69.9257 61.2617 69.7162 61.2617H63.3447C63.1406 61.2617 62.9767 61.4254 62.9767 61.6079C62.9767 61.8159 63.0895 61.8656 63.2319 61.9796C64.2027 62.7432 64.5747 64.944 64.5747 66.6537ZM82.8231 64.5951C82.8231 65.7747 83.845 66.5651 85.0253 66.5651C86.1384 66.5651 87.1549 65.8244 87.1549 64.3643C87.1549 62.9043 85.651 61.0322 80.8801 61.0322C76.1092 61.0322 72.7052 64.0422 72.7052 69.343C72.7052 74.3673 75.6473 77.6993 80.8801 77.6993C84.1216 77.6993 86.6245 76.356 87.9458 73.8775C88.0586 73.6735 87.9915 73.4413 87.782 73.3004C87.5739 73.1837 87.3187 73.2789 87.1791 73.5098C85.6309 75.9884 83.3361 76.4956 81.9463 76.4956C79.0485 76.4956 77.4963 73.9499 77.1284 69.665C76.7094 65.1534 78.4497 62.236 81.1567 62.236C84.0088 62.236 82.8231 63.4155 82.8231 64.5965V64.5951Z" fill="white"/>
<path d="M7.4673 86.1122V91.531C7.4673 93.2434 7.11683 95.4442 6.14466 96.2051C6.00903 96.3191 5.89087 96.3688 5.89087 96.5728C5.89087 96.758 6.05335 96.923 6.26282 96.923H12.5162C12.7028 96.923 12.8384 96.7593 12.8384 96.5728C12.8384 96.3688 12.7471 96.3191 12.6061 96.2051C11.7253 95.4428 11.403 93.242 11.403 91.531V90.6279H12.0516C16.9621 90.6279 19.3912 88.4271 19.3912 85.672C19.3912 82.917 16.9621 80.7202 12.5148 80.7202H6.23999C6.03052 80.7202 5.8667 80.8839 5.8667 81.0651C5.8667 81.2744 5.98486 81.3228 6.12183 81.4382C7.09266 82.2004 7.46596 84.4012 7.46596 86.1122H7.4673ZM11.4057 89.4698V85.672C11.4057 83.8711 11.6595 81.877 12.1912 81.877H12.2866C14.5075 81.877 14.9936 83.6604 14.9936 85.672C14.9936 87.6836 14.298 89.4698 12.0543 89.4698H11.4057Z" fill="white"/>
<path d="M30.4065 96.923H36.5202C36.6598 96.923 36.7753 96.8318 36.7753 96.7137C36.7753 96.5956 36.7068 96.5513 36.6169 96.4828C35.9213 96.044 34.8994 94.8631 34.5315 93.8915L30.3635 82.662C29.9244 81.4596 28.8327 80.7202 27.5571 80.7202H24.3653C24.1786 80.7202 24.0376 80.8598 24.0376 81.0195C24.0376 81.2288 24.1343 81.2516 24.2699 81.3697C24.5748 81.6005 24.9427 81.9682 25.3146 82.3856L21.0499 93.8915C20.682 94.8618 19.683 96.044 18.9874 96.4828C18.8975 96.5513 18.8062 96.6009 18.8062 96.7137C18.8062 96.8264 18.9189 96.923 19.0828 96.923H22.8788C23.0655 96.923 23.2065 96.7593 23.2065 96.5728C23.2065 96.3688 23.1111 96.3191 22.9742 96.2051C22.0919 95.4428 23.0413 93.4728 23.6469 91.8746L23.714 91.7122H29.5498L29.6169 91.8746C30.2212 93.4728 31.1933 95.4428 30.3125 96.2051C30.1755 96.3191 30.0815 96.3688 30.0815 96.5728C30.0815 96.758 30.2212 96.923 30.4078 96.923H30.4065ZM23.5207 90.7862L26.0465 84.051C26.2788 84.4696 26.5097 84.887 26.6507 85.2815L28.7119 90.7862H23.5207Z" fill="white"/>
<path d="M44.2843 97.1539C45.0698 97.1539 45.8097 97.0868 46.5052 96.9231H51.6226C51.7179 96.9231 51.8079 96.8319 51.8079 96.7379C51.8079 96.644 51.7407 96.6239 51.6709 96.5527C51.1808 96.185 50.9995 95.0726 50.9995 94.2151V91.5325C50.9995 90.675 51.1808 89.5625 51.6709 89.1679C51.7394 89.1223 51.785 89.1008 51.785 88.9868C51.785 88.8915 51.7166 88.8231 51.5984 88.8231H45.3451C45.0456 88.8231 44.8147 88.9868 44.8147 89.1679C44.8147 89.3773 44.9771 89.4269 45.1866 89.541C46.5495 90.3032 47.0625 92.5041 47.0625 94.2151V94.2607C47.0625 95.2135 46.5052 95.9542 45.3464 95.9542C42.454 95.9542 40.9004 93.4072 40.5285 89.1223C40.1149 84.612 41.8498 81.6932 44.5609 81.6932C47.4089 81.6932 46.2273 82.8728 46.2273 84.0537C46.2273 85.2347 47.2438 86.0237 48.4294 86.0237C49.5372 86.0237 50.5591 85.2843 50.5591 83.8229C50.5591 82.3615 49.0511 80.4922 44.2829 80.4922C39.5147 80.4922 36.104 83.5009 36.104 88.8016C36.104 93.8272 39.046 97.158 44.2829 97.158L44.2843 97.1539Z" fill="white"/>
<path d="M54.971 96.9219H68.2189C68.6136 96.9219 68.9359 96.5998 68.9359 96.204V93.563C68.9359 93.1711 68.7533 92.8947 68.5223 92.8947C68.2632 92.8947 68.2175 93.0987 68.0819 93.359C67.1567 95.0928 64.5128 95.7638 62.4503 95.7638H60.9034C60.3663 95.7638 60.1125 93.7723 60.1125 91.9701V89.3962H61.756C62.8007 89.3962 64.122 89.7008 64.5584 90.5812C64.6309 90.718 64.6766 90.812 64.7894 90.812C64.9022 90.812 64.9989 90.6724 64.9989 90.4859V87.3632C64.9989 87.178 64.9076 87.0357 64.7894 87.0357C64.6712 87.0357 64.6309 87.131 64.5584 87.2665C64.122 88.1482 62.8007 88.4703 61.756 88.4703H60.1125V85.6696C60.1125 83.8687 60.3663 81.8745 60.9034 81.8745C64.8632 81.8745 64.4685 85.0483 66.343 85.0483C67.6656 85.0483 68.705 84.0727 68.705 82.8689C68.705 81.6652 67.6643 80.7178 66.343 80.7178H54.9495C54.74 80.7178 54.5762 80.8815 54.5762 81.0627C54.5762 81.272 54.6943 81.3203 54.8313 81.4357C55.8075 82.1979 56.1754 84.3988 56.1754 86.1098V91.5286C56.1754 93.2409 55.829 95.4417 54.8582 96.2026C54.7185 96.3167 54.6003 96.3663 54.6003 96.5703C54.6003 96.7555 54.7642 96.9206 54.9723 96.9206L54.971 96.9219Z" fill="white"/>
<path d="M77.799 81.7353C79.8374 81.7353 78.8611 82.6841 78.8611 83.6382C78.8611 84.5924 79.6735 85.1842 80.6229 85.1842C81.5051 85.1842 82.6397 84.7668 82.6397 83.6087C82.6397 82.4506 81.4326 80.4873 77.6352 80.4873C75.0638 80.4873 71.359 81.6669 71.59 84.9064C71.59 89.1188 78.8155 91.3652 78.8155 94.3511C78.8155 95.0006 78.2394 95.9493 77.2176 95.9493C75.527 95.9493 75.5968 94.7684 75.5968 93.5888C75.5968 92.4093 74.5803 91.6188 73.3987 91.6188C72.2855 91.6188 71.269 92.3583 71.269 93.821C71.269 95.2837 72.3997 97.1517 77.1733 97.1517C80.0428 97.1517 83.2171 95.3683 83.2171 92.8937C83.2171 89.0047 75.993 86.6684 75.993 84.0985C75.993 82.8465 76.8 81.734 77.8004 81.734L77.799 81.7353Z" fill="white"/>
</svg>
