<svg width="88" height="98" viewBox="0 0 88 98" fill="none" xmlns="http://www.w3.org/2000/svg">
<path d="M43.9561 0C19.6825 0 0 19.6691 0 43.929V51.8908C0 55.5195 2.94741 58.4651 6.5783 58.4651H13.5729L9.17391 43.1708L11.1706 43.0433C12.59 42.9588 13.9999 42.9265 15.3883 42.9682L14.9492 35.1029L16.9258 35.4223C17.3622 35.4975 17.8013 35.5713 18.239 35.6572L18.6016 28.9863L20.5231 29.5204C28.2119 31.6662 34.4263 35.327 39.0186 40.3755C41.3256 42.9158 42.9074 45.4655 43.9856 47.7079C45.0639 45.4655 46.6443 42.9158 48.9512 40.3755C53.5328 35.327 59.7593 31.6769 67.4468 29.5204L69.3696 28.9863L69.7322 35.6572C70.1699 35.5713 70.6077 35.4975 71.0454 35.4223L73.0207 35.1029L72.5829 42.9682C73.9606 42.9359 75.3799 42.9588 76.8006 43.0433L78.7973 43.1708L74.3446 58.4651H81.3392C84.9701 58.4651 87.9175 55.5195 87.9175 51.8908V43.929C87.9121 19.6691 68.2309 0 43.9561 0ZM12.9646 30.598L10.8282 30.9617C10.6684 30.9939 10.5503 31.112 10.518 31.2716L10.1555 33.4054C10.0803 33.8227 9.48141 33.8227 9.41829 33.4054L9.05574 31.2716C9.02352 31.112 8.90669 30.9939 8.7469 30.9617L6.61053 30.598C6.19427 30.5228 6.19427 29.9257 6.61053 29.8626L8.7469 29.5003C8.90669 29.4681 9.02352 29.35 9.05574 29.1903L9.41829 27.0552C9.49349 26.6392 10.0924 26.6392 10.1555 27.0552L10.518 29.1903C10.5503 29.35 10.6684 29.4681 10.8282 29.5003L12.9646 29.8626C13.3809 29.9364 13.3809 30.5349 12.9646 30.598ZM24.8509 14.7401L23.3027 15.0071C23.1859 15.0286 23.0999 15.1131 23.0784 15.2312L22.8112 16.7772C22.7589 17.0764 22.3198 17.0764 22.2781 16.7772L22.0109 15.2312C21.9894 15.1131 21.9035 15.0286 21.7867 15.0071L20.2371 14.7401C19.9377 14.6864 19.9377 14.2489 20.2371 14.206L21.7867 13.9389C21.9035 13.9174 21.9881 13.8316 22.0109 13.7148L22.2781 12.1675C22.3305 11.8683 22.7696 11.8683 22.8112 12.1675L23.0784 13.7148C23.0999 13.8316 23.1859 13.9174 23.3027 13.9389L24.8509 14.206C25.1504 14.2489 25.1504 14.6864 24.8509 14.7401ZM37.7511 32.0285L36.2028 32.2956C36.086 32.317 36.0014 32.4029 35.9786 32.5197L35.7114 34.0669C35.659 34.3662 35.2199 34.3662 35.1783 34.0669L34.9111 32.5197C34.8896 32.4029 34.8036 32.3184 34.6868 32.2956L33.1386 32.0285C32.8391 31.9762 32.8391 31.5374 33.1386 31.4958L34.6868 31.2287C34.8036 31.2086 34.8882 31.1213 34.9111 31.0046L35.1783 29.4573C35.2307 29.1581 35.6697 29.1581 35.7114 29.4573L35.9786 31.0046C36.0001 31.1213 36.086 31.2072 36.2028 31.2287L37.7511 31.4958C38.0505 31.5481 38.0505 31.9748 37.7511 32.0285ZM43.4968 21.2593L40.399 21.7934C40.1748 21.8363 39.9935 22.0081 39.9505 22.2416L39.4161 25.3375C39.3087 25.9454 38.4453 25.9454 38.3379 25.3375L37.8034 22.2416C37.7618 22.0175 37.5899 21.8363 37.3549 21.7934L34.2585 21.2593C33.6489 21.1533 33.6489 20.2891 34.2585 20.1817L37.3549 19.6489C37.5792 19.606 37.7618 19.4342 37.8034 19.1994L38.3379 16.1048C38.4453 15.4969 39.3087 15.4969 39.4161 16.1048L39.9505 19.1994C39.9935 19.4248 40.164 19.606 40.399 19.6489L43.4968 20.1817C44.1051 20.2891 44.1051 21.1533 43.4968 21.2593ZM50.3424 8.37784L48.7941 8.64489C48.6773 8.66636 48.5914 8.75225 48.5699 8.869L48.3027 10.4163C48.2503 10.7155 47.8112 10.7155 47.7682 10.4163L47.501 8.869C47.4795 8.75225 47.3949 8.66636 47.2768 8.64489L45.7285 8.37784C45.4291 8.32551 45.4291 7.88669 45.7285 7.84374L47.2768 7.57669C47.3949 7.55522 47.4795 7.47068 47.501 7.35259L47.7682 5.80665C47.8219 5.5074 48.2597 5.5074 48.3027 5.80665L48.5699 7.35259C48.5914 7.47068 48.6773 7.55522 48.7941 7.57669L50.3424 7.84374C50.6418 7.89742 50.6418 8.3349 50.3424 8.37784ZM55.8424 30.5027L54.2942 30.7698C54.1773 30.7912 54.0914 30.8771 54.0699 30.9939L53.8027 32.5411C53.7503 32.8404 53.3113 32.8404 53.2683 32.5411L53.0024 30.9939C52.9796 30.8771 52.895 30.7912 52.7768 30.7698L51.2299 30.5027C50.9305 30.4504 50.9305 30.0115 51.2299 29.9686L52.7768 29.7029C52.895 29.6814 52.9796 29.5955 53.0024 29.4774L53.2683 27.9302C53.322 27.6309 53.7597 27.6309 53.8027 27.9302L54.0699 29.4774C54.0914 29.5955 54.1773 29.6801 54.2942 29.7029L55.8424 29.9686C56.1418 30.0115 56.1418 30.4504 55.8424 30.5027ZM68.2309 19.5523L65.1331 20.0851C64.9089 20.128 64.7276 20.2998 64.6846 20.5346L64.1502 23.6292C64.0428 24.2371 63.1794 24.2371 63.072 23.6292L62.5375 20.5346C62.4959 20.3092 62.324 20.128 62.089 20.0851L58.9926 19.5523C58.3829 19.445 58.3829 18.5807 58.9926 18.4747L62.089 17.9406C62.3133 17.8977 62.4959 17.7259 62.5375 17.4924L63.072 14.3965C63.1794 13.7886 64.0428 13.7886 64.1502 14.3965L64.6846 17.4924C64.7276 17.7165 64.8981 17.8977 65.1331 17.9406L68.2309 18.4747C68.8392 18.5807 68.8392 19.445 68.2309 19.5523ZM82.0818 33.6509L80.5335 33.918C80.4167 33.9395 80.3308 34.0253 80.3093 34.1421L80.0421 35.6894C79.9897 35.9886 79.5506 35.9886 79.5076 35.6894L79.2404 34.1421C79.2189 34.0253 79.1344 33.9395 79.0162 33.918L77.4693 33.6509C77.1699 33.5986 77.1699 33.1598 77.4693 33.1168L79.0162 32.8498C79.1344 32.8283 79.2189 32.7438 79.2404 32.6257L79.5076 31.0784C79.5614 30.7791 79.9991 30.7791 80.0421 31.0784L80.3093 32.6257C80.3308 32.7438 80.4167 32.8283 80.5335 32.8498L82.0818 33.1168C82.3812 33.1705 82.3812 33.5986 82.0818 33.6509Z" fill="white"/>
<path d="M70.8453 44.6436L71.2723 37.0025C70.2035 37.1729 69.1897 37.3756 68.1974 37.6104L67.8442 31.0576C50.8325 35.8283 45.5137 47.0028 43.9547 52.0512C42.385 47.0028 37.077 35.8175 20.0652 31.0576L19.7134 37.6104C18.7305 37.3863 17.706 37.1837 16.6384 37.0025L17.0654 44.6436C15.25 44.5268 13.3057 44.5161 11.2552 44.6436L15.2285 58.4658H17.8134L15.7522 48.903C15.7522 48.903 29.219 47.8683 39.3852 57.4633C40.0687 58.1142 40.9872 58.4658 41.9285 58.4658C40.775 56.4488 34.6331 47.0242 20.0464 44.9536L20.0787 42.1569C20.0787 42.1569 33.438 44.1417 41.2114 55.7537C41.7351 56.532 42.5475 57.0876 43.4659 57.2902C42.7502 54.9418 38.4466 43.2775 22.6837 38.4102L22.9079 36.5516C22.9079 36.5516 36.2794 40.0742 42.6442 52.8389C42.9114 53.3717 43.3599 53.7783 43.9265 53.9702L43.948 53.9809L43.9695 53.9702C44.5241 53.7783 44.9833 53.3623 45.2505 52.8389C51.6153 40.0635 64.9868 36.5516 64.9868 36.5516L65.211 38.4102C49.4481 43.2761 45.1431 54.9404 44.4287 57.2902C45.3472 57.0768 46.1596 56.532 46.6833 55.7537C54.4674 44.131 67.8174 42.1569 67.8174 42.1569L67.8496 44.9536C53.283 47.0135 47.1438 56.4488 45.9904 58.4658C46.929 58.4658 47.8475 58.1142 48.5309 57.4633C58.7079 47.8683 72.1653 48.903 72.1653 48.903L70.1041 58.4658H72.689L76.6717 44.6436C74.6105 44.5161 72.6782 44.5268 70.852 44.6436H70.8453Z" fill="white"/>
<path d="M1.85441 66.6537V72.0739C1.85441 73.7849 1.50529 75.9857 0.533114 76.7479C0.39615 76.8606 0.277985 76.9116 0.277985 77.1156C0.277985 77.3008 0.441805 77.4645 0.651279 77.4645H4.58832C4.77363 77.4645 4.90925 77.3008 4.90925 77.1156C4.90925 76.9116 4.81928 76.8606 4.67695 76.7479C3.79608 75.9843 3.47381 73.7835 3.47381 72.0739V65.1749L8.36021 76.9344C8.49986 77.2565 8.77781 77.4658 9.12425 77.4658H10.0723C10.4227 77.4658 10.745 77.2337 10.8632 76.913L15.9805 63.6678V72.0739C15.9805 73.7849 15.6314 75.9857 14.6592 76.7479C14.5222 76.8606 14.4041 76.9116 14.4041 77.1156C14.4041 77.3008 14.5679 77.4645 14.7774 77.4645H21.1435C21.353 77.4645 21.5168 77.3008 21.5168 77.1156C21.5168 76.9116 21.3986 76.8606 21.2617 76.7479C20.2909 75.9843 19.9176 73.7835 19.9176 72.0739V66.6537C19.9176 64.944 20.2627 62.7419 21.2402 61.9796C21.3758 61.8669 21.494 61.8159 21.494 61.6079C21.494 61.4254 21.3315 61.2617 21.122 61.2617H16.8117C15.7267 61.2617 14.823 61.9112 14.4283 62.9056L10.8175 72.2819L6.94894 62.9499C6.50851 61.9112 5.55916 61.2617 4.42316 61.2617H0.628452C0.418977 61.2617 0.2565 61.4254 0.2565 61.6079C0.2565 61.8159 0.374665 61.8656 0.510287 61.9796C1.48246 62.7432 1.85441 64.944 1.85441 66.6537ZM35.7141 77.4658H41.8264C41.9688 77.4658 42.0856 77.3746 42.0856 77.2565C42.0856 77.1384 42.0131 77.0928 41.9231 77.0257C41.2276 76.5855 40.2111 75.4046 39.8391 74.4344L35.6684 63.2049C35.2293 62.0011 34.1377 61.2617 32.8674 61.2617H29.6702C29.4849 61.2617 29.3479 61.4026 29.3479 61.5623C29.3479 61.7703 29.4392 61.7945 29.5789 61.9112C29.8783 62.1434 30.2463 62.5111 30.6196 62.9271L26.3589 74.433C25.9856 75.4033 24.9919 76.5842 24.2964 77.0243C24.201 77.0914 24.1111 77.1424 24.1111 77.2552C24.1111 77.3679 24.2239 77.4645 24.3877 77.4645H28.1891C28.3717 77.4645 28.5114 77.3008 28.5114 77.1156C28.5114 76.9116 28.4201 76.8606 28.2804 76.7479C27.3982 75.9843 28.3476 74.0157 28.9532 72.4174L29.0203 72.2537H34.856L34.9286 72.4174C35.5274 74.0143 36.505 75.9843 35.6241 76.7479C35.4831 76.8606 35.3918 76.9116 35.3918 77.1156C35.3918 77.3008 35.5288 77.4645 35.7141 77.4645V77.4658ZM29.3479 71.3304L31.8724 64.5951C32.1047 65.0125 32.3356 65.4298 32.4726 65.8244L34.5338 71.3304H29.3479ZM52.8547 77.698C53.6456 77.698 54.3855 77.6296 55.0811 77.4658H60.1998C60.2897 77.4658 60.3851 77.3746 60.3851 77.2793C60.3851 77.1894 60.3126 77.1666 60.2454 77.0941C59.7593 76.7264 59.5727 75.6153 59.5727 74.7578V72.0752C59.5727 71.2164 59.758 70.1052 60.2454 69.7107C60.3126 69.665 60.3622 69.6422 60.3622 69.5282C60.3622 69.4342 60.2897 69.3644 60.1769 69.3644H53.9236C53.6188 69.3644 53.3878 69.5282 53.3878 69.7093C53.3878 69.9173 53.5516 69.9683 53.7598 70.081C55.1267 70.8446 55.6356 73.0454 55.6356 74.7564V74.8007C55.6356 75.7549 55.0811 76.4943 53.9236 76.4943C51.0259 76.4943 49.4723 73.9486 49.1043 69.6637C48.6867 65.152 50.427 62.2346 53.1327 62.2346C55.9861 62.2346 54.8045 63.4142 54.8045 64.5951C54.8045 65.7761 55.8209 66.5651 57.0026 66.5651C58.1158 66.5651 59.1323 65.8244 59.1323 64.3643C59.1323 62.9043 57.6283 61.0322 52.8561 61.0322C48.0838 61.0322 44.6825 64.0422 44.6825 69.343C44.6825 74.3673 47.6206 77.6993 52.8561 77.6993L52.8547 77.698ZM64.5746 66.6537V72.0739C64.5746 73.7849 64.2254 75.9857 63.2533 76.7479C63.1136 76.8606 62.9995 76.9116 62.9995 77.1156C62.9995 77.3008 63.162 77.4645 63.3714 77.4645H69.7376C69.947 77.4645 70.1109 77.3008 70.1109 77.1156C70.1109 76.9116 69.9927 76.8606 69.8557 76.7479C68.8795 75.9843 68.513 73.7835 68.513 72.0739V66.6537C68.513 64.944 68.8581 62.7419 69.8289 61.9796C69.9699 61.8669 70.084 61.8159 70.084 61.6079C70.084 61.4254 69.9256 61.2617 69.7161 61.2617H63.3446C63.1405 61.2617 62.9766 61.4254 62.9766 61.6079C62.9766 61.8159 63.0894 61.8656 63.2318 61.9796C64.2026 62.7432 64.5746 64.944 64.5746 66.6537ZM82.823 64.5951C82.823 65.7747 83.8449 66.5651 85.0252 66.5651C86.1384 66.5651 87.1548 65.8244 87.1548 64.3643C87.1548 62.9043 85.6509 61.0322 80.88 61.0322C76.1091 61.0322 72.7051 64.0422 72.7051 69.343C72.7051 74.3673 75.6472 77.6993 80.88 77.6993C84.1215 77.6993 86.6244 76.356 87.9457 73.8775C88.0585 73.6735 87.9914 73.4413 87.7819 73.3004C87.5738 73.1837 87.3187 73.2789 87.179 73.5098C85.6308 75.9884 83.336 76.4956 81.9462 76.4956C79.0484 76.4956 77.4962 73.9499 77.1283 69.665C76.7093 65.1534 78.4496 62.236 81.1566 62.236C84.0087 62.236 82.823 63.4155 82.823 64.5965V64.5951Z" fill="white"/>
<path d="M7.46715 86.1117V91.5305C7.46715 93.2429 7.11668 95.4437 6.1445 96.2046C6.00888 96.3186 5.89072 96.3683 5.89072 96.5723C5.89072 96.7575 6.05319 96.9225 6.26267 96.9225H12.516C12.7027 96.9225 12.8383 96.7588 12.8383 96.5723C12.8383 96.3683 12.747 96.3186 12.606 96.2046C11.7251 95.4423 11.4028 93.2415 11.4028 91.5305V90.6274H12.0514C16.962 90.6274 19.3911 88.4266 19.3911 85.6715C19.3911 82.9165 16.962 80.7197 12.5147 80.7197H6.23984C6.03037 80.7197 5.86655 80.8834 5.86655 81.0646C5.86655 81.274 5.98471 81.3223 6.12168 81.4377C7.09251 82.1999 7.4658 84.4007 7.4658 86.1117H7.46715ZM11.4055 89.4693V85.6715C11.4055 83.8706 11.6593 81.8765 12.1911 81.8765H12.2864C14.5074 81.8765 14.9935 83.66 14.9935 85.6715C14.9935 87.6831 14.2979 89.4693 12.0541 89.4693H11.4055Z" fill="white"/>
<path d="M30.4062 96.9225H36.5199C36.6596 96.9225 36.7751 96.8313 36.7751 96.7132C36.7751 96.5951 36.7066 96.5508 36.6166 96.4824C35.921 96.0435 34.8992 94.8626 34.5313 93.891L30.3633 82.6615C29.9242 81.4591 28.8325 80.7197 27.5568 80.7197H24.365C24.1784 80.7197 24.0374 80.8593 24.0374 81.019C24.0374 81.2283 24.1341 81.2511 24.2697 81.3692C24.5745 81.6 24.9424 81.9677 25.3144 82.3851L21.0497 93.891C20.6818 94.8613 19.6827 96.0435 18.9872 96.4824C18.8972 96.5508 18.8059 96.6005 18.8059 96.7132C18.8059 96.8259 18.9187 96.9225 19.0825 96.9225H22.8786C23.0652 96.9225 23.2062 96.7588 23.2062 96.5723C23.2062 96.3683 23.1109 96.3186 22.9739 96.2046C22.0917 95.4423 23.0411 93.4724 23.6466 91.8741L23.7138 91.7117H29.5495L29.6167 91.8741C30.2209 93.4724 31.1931 95.4423 30.3122 96.2046C30.1753 96.3186 30.0813 96.3683 30.0813 96.5723C30.0813 96.7575 30.2209 96.9225 30.4076 96.9225H30.4062ZM23.5204 90.7858L26.0462 84.0505C26.2785 84.4692 26.5095 84.8865 26.6505 85.281L28.7116 90.7858H23.5204Z" fill="white"/>
<path d="M44.2841 97.1539C45.0696 97.1539 45.8095 97.0868 46.505 96.9231H51.6224C51.7177 96.9231 51.8077 96.8319 51.8077 96.7379C51.8077 96.644 51.7406 96.6239 51.6707 96.5527C51.1806 96.185 50.9993 95.0726 50.9993 94.2151V91.5325C50.9993 90.675 51.1806 89.5625 51.6707 89.1679C51.7392 89.1223 51.7849 89.1008 51.7849 88.9868C51.7849 88.8915 51.7164 88.8231 51.5982 88.8231H45.3449C45.0454 88.8231 44.8145 88.9868 44.8145 89.1679C44.8145 89.3773 44.9769 89.4269 45.1864 89.541C46.5493 90.3032 47.0623 92.5041 47.0623 94.2151V94.2607C47.0623 95.2135 46.505 95.9542 45.3462 95.9542C42.4539 95.9542 40.9003 93.4072 40.5283 89.1223C40.1147 84.612 41.8496 81.6932 44.5607 81.6932C47.4087 81.6932 46.2271 82.8728 46.2271 84.0537C46.2271 85.2347 47.2436 86.0237 48.4292 86.0237C49.537 86.0237 50.5589 85.2843 50.5589 83.8229C50.5589 82.3615 49.051 80.4922 44.2827 80.4922C39.5145 80.4922 36.1038 83.5009 36.1038 88.8016C36.1038 93.8272 39.0459 97.158 44.2827 97.158L44.2841 97.1539Z" fill="white"/>
<path d="M54.9707 96.9219H68.2186C68.6134 96.9219 68.9356 96.5998 68.9356 96.204V93.563C68.9356 93.1711 68.753 92.8947 68.5221 92.8947C68.2629 92.8947 68.2173 93.0987 68.0816 93.359C67.1565 95.0928 64.5125 95.7638 62.45 95.7638H60.9031C60.366 95.7638 60.1122 93.7723 60.1122 91.9701V89.3962H61.7558C62.8005 89.3962 64.1218 89.7008 64.5582 90.5812C64.6307 90.718 64.6763 90.812 64.7891 90.812C64.9019 90.812 64.9986 90.6724 64.9986 90.4859V87.3632C64.9986 87.178 64.9073 87.0357 64.7891 87.0357C64.671 87.0357 64.6307 87.131 64.5582 87.2665C64.1218 88.1482 62.8005 88.4703 61.7558 88.4703H60.1122V85.6696C60.1122 83.8687 60.366 81.8745 60.9031 81.8745C64.863 81.8745 64.4682 85.0483 66.3427 85.0483C67.6654 85.0483 68.7047 84.0727 68.7047 82.8689C68.7047 81.6652 67.664 80.7178 66.3427 80.7178H54.9492C54.7397 80.7178 54.5759 80.8815 54.5759 81.0627C54.5759 81.272 54.6941 81.3203 54.831 81.4357C55.8072 82.1979 56.1752 84.3988 56.1752 86.1098V91.5286C56.1752 93.2409 55.8287 95.4417 54.8579 96.2026C54.7182 96.3167 54.6001 96.3663 54.6001 96.5703C54.6001 96.7555 54.7639 96.9206 54.972 96.9206L54.9707 96.9219Z" fill="white"/>
<path d="M77.7989 81.7353C79.8373 81.7353 78.8611 82.6841 78.8611 83.6382C78.8611 84.5924 79.6735 85.1842 80.6228 85.1842C81.505 85.1842 82.6397 84.7668 82.6397 83.6087C82.6397 82.4506 81.4325 80.4873 77.6351 80.4873C75.0637 80.4873 71.359 81.6669 71.5899 84.9064C71.5899 89.1188 78.8154 91.3652 78.8154 94.3511C78.8154 95.0006 78.2394 95.9493 77.2175 95.9493C75.527 95.9493 75.5968 94.7684 75.5968 93.5888C75.5968 92.4093 74.5803 91.6188 73.3986 91.6188C72.2855 91.6188 71.269 92.3583 71.269 93.821C71.269 95.2837 72.3996 97.1517 77.1732 97.1517C80.0427 97.1517 83.2171 95.3683 83.2171 92.8937C83.2171 89.0047 75.9929 86.6684 75.9929 84.0985C75.9929 82.8465 76.7999 81.734 77.8003 81.734L77.7989 81.7353Z" fill="white"/>
</svg>
