<svg width="88" height="98" viewBox="0 0 88 98" fill="none" xmlns="http://www.w3.org/2000/svg">
<path d="M43.9561 -0.000244141C19.6825 -0.000244141 0 19.6688 0 43.9287V51.8906C0 55.5192 2.94741 58.4648 6.5783 58.4648H13.5729L9.17391 43.1705L11.1706 43.0431C12.59 42.9585 13.9999 42.9263 15.3883 42.9679L14.9492 35.1027L16.9258 35.4221C17.3622 35.4972 17.8013 35.571 18.239 35.6569L18.6016 28.986L20.5231 29.5201C28.2119 31.6659 34.4263 35.3268 39.0186 40.3752C41.3256 42.9156 42.9074 45.4653 43.9856 47.7077C45.0639 45.4653 46.6443 42.9156 48.9512 40.3752C53.5328 35.3268 59.7593 31.6767 67.4468 29.5201L69.3696 28.986L69.7322 35.6569C70.1699 35.571 70.6077 35.4972 71.0454 35.4221L73.0207 35.1027L72.5829 42.9679C73.9606 42.9357 75.3799 42.9585 76.8006 43.0431L78.7973 43.1705L74.3446 58.4648H81.3392C84.9701 58.4648 87.9175 55.5192 87.9175 51.8906V43.9287C87.9121 19.6688 68.2309 -0.000244141 43.9561 -0.000244141ZM12.9646 30.5977L10.8282 30.9614C10.6684 30.9936 10.5503 31.1117 10.518 31.2714L10.1555 33.4051C10.0803 33.8225 9.48141 33.8225 9.41829 33.4051L9.05574 31.2714C9.02352 31.1117 8.90669 30.9936 8.7469 30.9614L6.61053 30.5977C6.19427 30.5226 6.19427 29.9254 6.61053 29.8623L8.7469 29.5C8.90669 29.4678 9.02352 29.3497 9.05574 29.19L9.41829 27.055C9.49349 26.639 10.0924 26.639 10.1555 27.055L10.518 29.19C10.5503 29.3497 10.6684 29.4678 10.8282 29.5L12.9646 29.8623C13.3809 29.9362 13.3809 30.5347 12.9646 30.5977ZM24.8509 14.7398L23.3027 15.0069C23.1859 15.0283 23.0999 15.1129 23.0784 15.231L22.8112 16.7769C22.7589 17.0762 22.3198 17.0762 22.2781 16.7769L22.0109 15.231C21.9894 15.1129 21.9035 15.0283 21.7867 15.0069L20.2371 14.7398C19.9377 14.6861 19.9377 14.2487 20.2371 14.2057L21.7867 13.9387C21.9035 13.9172 21.9881 13.8313 22.0109 13.7146L22.2781 12.1673C22.3305 11.868 22.7696 11.868 22.8112 12.1673L23.0784 13.7146C23.0999 13.8313 23.1859 13.9172 23.3027 13.9387L24.8509 14.2057C25.1504 14.2487 25.1504 14.6861 24.8509 14.7398ZM37.7511 32.0283L36.2028 32.2953C36.086 32.3168 36.0014 32.4027 35.9786 32.5194L35.7114 34.0667C35.659 34.366 35.2199 34.366 35.1783 34.0667L34.9111 32.5194C34.8896 32.4027 34.8036 32.3181 34.6868 32.2953L33.1386 32.0283C32.8391 31.9759 32.8391 31.5371 33.1386 31.4955L34.6868 31.2285C34.8036 31.2083 34.8882 31.1211 34.9111 31.0044L35.1783 29.4571C35.2307 29.1578 35.6697 29.1578 35.7114 29.4571L35.9786 31.0044C36.0001 31.1211 36.086 31.207 36.2028 31.2285L37.7511 31.4955C38.0505 31.5478 38.0505 31.9746 37.7511 32.0283ZM43.4968 21.2591L40.399 21.7932C40.1748 21.8361 39.9935 22.0079 39.9505 22.2414L39.4161 25.3373C39.3087 25.9452 38.4453 25.9452 38.3379 25.3373L37.8034 22.2414C37.7618 22.0173 37.5899 21.8361 37.3549 21.7932L34.2585 21.2591C33.6489 21.153 33.6489 20.2888 34.2585 20.1815L37.3549 19.6487C37.5792 19.6058 37.7618 19.434 37.8034 19.1991L38.3379 16.1046C38.4453 15.4967 39.3087 15.4967 39.4161 16.1046L39.9505 19.1991C39.9935 19.4246 40.164 19.6058 40.399 19.6487L43.4968 20.1815C44.1051 20.2888 44.1051 21.153 43.4968 21.2591ZM50.3424 8.3776L48.7941 8.64465C48.6773 8.66612 48.5914 8.752 48.5699 8.86876L48.3027 10.416C48.2503 10.7153 47.8112 10.7153 47.7682 10.416L47.501 8.86876C47.4795 8.752 47.3949 8.66612 47.2768 8.64465L45.7285 8.3776C45.4291 8.32526 45.4291 7.88644 45.7285 7.8435L47.2768 7.57645C47.3949 7.55498 47.4795 7.47044 47.501 7.35234L47.7682 5.80641C47.8219 5.50715 48.2597 5.50715 48.3027 5.80641L48.5699 7.35234C48.5914 7.47044 48.6773 7.55498 48.7941 7.57645L50.3424 7.8435C50.6418 7.89718 50.6418 8.33466 50.3424 8.3776ZM55.8424 30.5025L54.2942 30.7695C54.1773 30.791 54.0914 30.8769 54.0699 30.9936L53.8027 32.5409C53.7503 32.8401 53.3113 32.8401 53.2683 32.5409L53.0024 30.9936C52.9796 30.8769 52.895 30.791 52.7768 30.7695L51.2299 30.5025C50.9305 30.4501 50.9305 30.0113 51.2299 29.9684L52.7768 29.7027C52.895 29.6812 52.9796 29.5953 53.0024 29.4772L53.2683 27.9299C53.322 27.6307 53.7597 27.6307 53.8027 27.9299L54.0699 29.4772C54.0914 29.5953 54.1773 29.6798 54.2942 29.7027L55.8424 29.9684C56.1418 30.0113 56.1418 30.4501 55.8424 30.5025ZM68.2309 19.5521L65.1331 20.0848C64.9089 20.1278 64.7276 20.2996 64.6846 20.5344L64.1502 23.629C64.0428 24.2369 63.1794 24.2369 63.072 23.629L62.5375 20.5344C62.4959 20.3089 62.324 20.1278 62.089 20.0848L58.9926 19.5521C58.3829 19.4447 58.3829 18.5805 58.9926 18.4745L62.089 17.9404C62.3133 17.8974 62.4959 17.7257 62.5375 17.4922L63.072 14.3963C63.1794 13.7884 64.0428 13.7884 64.1502 14.3963L64.6846 17.4922C64.7276 17.7163 64.8981 17.8974 65.1331 17.9404L68.2309 18.4745C68.8392 18.5805 68.8392 19.4447 68.2309 19.5521ZM82.0818 33.6507L80.5335 33.9177C80.4167 33.9392 80.3308 34.0251 80.3093 34.1418L80.0421 35.6891C79.9897 35.9884 79.5506 35.9884 79.5076 35.6891L79.2404 34.1418C79.2189 34.0251 79.1344 33.9392 79.0162 33.9177L77.4693 33.6507C77.1699 33.5984 77.1699 33.1595 77.4693 33.1166L79.0162 32.8495C79.1344 32.8281 79.2189 32.7435 79.2404 32.6254L79.5076 31.0782C79.5614 30.7789 79.9991 30.7789 80.0421 31.0782L80.3093 32.6254C80.3308 32.7435 80.4167 32.8281 80.5335 32.8495L82.0818 33.1166C82.3812 33.1703 82.3812 33.5984 82.0818 33.6507Z" fill="white"/>
<path d="M70.8455 44.6436L71.2725 37.0025C70.2036 37.1729 69.1898 37.3756 68.1975 37.6104L67.8444 31.0576C50.8326 35.8283 45.5138 47.0028 43.9549 52.0512C42.3852 47.0028 37.0771 35.8175 20.0654 31.0576L19.7136 37.6104C18.7307 37.3863 17.7061 37.1837 16.6386 37.0025L17.0656 44.6436C15.2502 44.5268 13.3058 44.5161 11.2554 44.6436L15.2287 58.4658H17.8135L15.7524 48.903C15.7524 48.903 29.2192 47.8683 39.3854 57.4633C40.0689 58.1142 40.9873 58.4658 41.9286 58.4658C40.7752 56.4488 34.6333 47.0242 20.0466 44.9536L20.0788 42.1569C20.0788 42.1569 33.4382 44.1417 41.2116 55.7537C41.7353 56.532 42.5476 57.0876 43.4661 57.2902C42.7504 54.9418 38.4468 43.2775 22.6838 38.4102L22.9081 36.5516C22.9081 36.5516 36.2795 40.0742 42.6443 52.8389C42.9115 53.3717 43.36 53.7783 43.9267 53.9702L43.9482 53.9809L43.9696 53.9702C44.5242 53.7783 44.9834 53.3623 45.2507 52.8389C51.6155 40.0635 64.9869 36.5516 64.9869 36.5516L65.2112 38.4102C49.4482 43.2761 45.1432 54.9404 44.4289 57.2902C45.3473 57.0768 46.1597 56.532 46.6834 55.7537C54.4675 44.131 67.8175 42.1569 67.8175 42.1569L67.8497 44.9536C53.2832 47.0135 47.144 56.4488 45.9905 58.4658C46.9291 58.4658 47.8476 58.1142 48.5311 57.4633C58.708 47.8683 72.1654 48.903 72.1654 48.903L70.1043 58.4658H72.6891L76.6718 44.6436C74.6107 44.5161 72.6784 44.5268 70.8522 44.6436H70.8455Z" fill="white"/>
<path d="M1.85426 66.6537V72.0739C1.85426 73.7849 1.50514 75.9857 0.532961 76.7479C0.395997 76.8606 0.277832 76.9116 0.277832 77.1156C0.277832 77.3008 0.441652 77.4645 0.651126 77.4645H4.58817C4.77348 77.4645 4.9091 77.3008 4.9091 77.1156C4.9091 76.9116 4.81913 76.8606 4.6768 76.7479C3.79593 75.9843 3.47366 73.7835 3.47366 72.0739V65.1749L8.36005 76.9344C8.49971 77.2565 8.77766 77.4658 9.1241 77.4658H10.0721C10.4226 77.4658 10.7448 77.2337 10.863 76.913L15.9804 63.6678V72.0739C15.9804 73.7849 15.6312 75.9857 14.6591 76.7479C14.5221 76.8606 14.4039 76.9116 14.4039 77.1156C14.4039 77.3008 14.5678 77.4645 14.7772 77.4645H21.1434C21.3528 77.4645 21.5167 77.3008 21.5167 77.1156C21.5167 76.9116 21.3985 76.8606 21.2615 76.7479C20.2907 75.9843 19.9174 73.7835 19.9174 72.0739V66.6537C19.9174 64.944 20.2625 62.7419 21.24 61.9796C21.3757 61.8669 21.4938 61.8159 21.4938 61.6079C21.4938 61.4254 21.3314 61.2617 21.1219 61.2617H16.8115C15.7266 61.2617 14.8229 61.9112 14.4281 62.9056L10.8174 72.2819L6.94879 62.9499C6.50836 61.9112 5.55901 61.2617 4.42301 61.2617H0.628299C0.418825 61.2617 0.256348 61.4254 0.256348 61.6079C0.256348 61.8159 0.374513 61.8656 0.510134 61.9796C1.48231 62.7432 1.85426 64.944 1.85426 66.6537ZM35.7139 77.4658H41.8263C41.9686 77.4658 42.0854 77.3746 42.0854 77.2565C42.0854 77.1384 42.0129 77.0928 41.923 77.0257C41.2274 76.5855 40.2109 75.4046 39.839 74.4344L35.6683 63.2049C35.2292 62.0011 34.1375 61.2617 32.8672 61.2617H29.6701C29.4848 61.2617 29.3478 61.4026 29.3478 61.5623C29.3478 61.7703 29.4391 61.7945 29.5787 61.9112C29.8782 62.1434 30.2461 62.5111 30.6194 62.9271L26.3587 74.433C25.9855 75.4033 24.9918 76.5842 24.2962 77.0243C24.2009 77.0914 24.1109 77.1424 24.1109 77.2552C24.1109 77.3679 24.2237 77.4645 24.3875 77.4645H28.189C28.3716 77.4645 28.5112 77.3008 28.5112 77.1156C28.5112 76.9116 28.4199 76.8606 28.2803 76.7479C27.3981 75.9843 28.3474 74.0157 28.953 72.4174L29.0201 72.2537H34.8559L34.9284 72.4174C35.5273 74.0143 36.5048 75.9843 35.624 76.7479C35.483 76.8606 35.3917 76.9116 35.3917 77.1156C35.3917 77.3008 35.5286 77.4645 35.7139 77.4645V77.4658ZM29.3478 71.3304L31.8722 64.5951C32.1045 65.0125 32.3355 65.4298 32.4724 65.8244L34.5336 71.3304H29.3478ZM52.8546 77.698C53.6455 77.698 54.3854 77.6296 55.0809 77.4658H60.1996C60.2896 77.4658 60.3849 77.3746 60.3849 77.2793C60.3849 77.1894 60.3124 77.1666 60.2453 77.0941C59.7592 76.7264 59.5725 75.6153 59.5725 74.7578V72.0752C59.5725 71.2164 59.7578 70.1052 60.2453 69.7107C60.3124 69.665 60.3621 69.6422 60.3621 69.5282C60.3621 69.4342 60.2896 69.3644 60.1768 69.3644H53.9234C53.6186 69.3644 53.3877 69.5282 53.3877 69.7093C53.3877 69.9173 53.5515 69.9683 53.7596 70.081C55.1266 70.8446 55.6355 73.0454 55.6355 74.7564V74.8007C55.6355 75.7549 55.0809 76.4943 53.9234 76.4943C51.0257 76.4943 49.4721 73.9486 49.1042 69.6637C48.6866 65.152 50.4268 62.2346 53.1325 62.2346C55.986 62.2346 54.8043 63.4142 54.8043 64.5951C54.8043 65.7761 55.8208 66.5651 57.0024 66.5651C58.1156 66.5651 59.1321 65.8244 59.1321 64.3643C59.1321 62.9043 57.6282 61.0322 52.8559 61.0322C48.0837 61.0322 44.6824 64.0422 44.6824 69.343C44.6824 74.3673 47.6204 77.6993 52.8559 77.6993L52.8546 77.698ZM64.5744 66.6537V72.0739C64.5744 73.7849 64.2253 75.9857 63.2531 76.7479C63.1135 76.8606 62.9993 76.9116 62.9993 77.1156C62.9993 77.3008 63.1618 77.4645 63.3713 77.4645H69.7374C69.9469 77.4645 70.1107 77.3008 70.1107 77.1156C70.1107 76.9116 69.9925 76.8606 69.8556 76.7479C68.8794 75.9843 68.5128 73.7835 68.5128 72.0739V66.6537C68.5128 64.944 68.8579 62.7419 69.8287 61.9796C69.9697 61.8669 70.0839 61.8159 70.0839 61.6079C70.0839 61.4254 69.9254 61.2617 69.7159 61.2617H63.3444C63.1403 61.2617 62.9765 61.4254 62.9765 61.6079C62.9765 61.8159 63.0893 61.8656 63.2316 61.9796C64.2025 62.7432 64.5744 64.944 64.5744 66.6537ZM82.8229 64.5951C82.8229 65.7747 83.8447 66.5651 85.025 66.5651C86.1382 66.5651 87.1547 65.8244 87.1547 64.3643C87.1547 62.9043 85.6508 61.0322 80.8799 61.0322C76.1089 61.0322 72.705 64.0422 72.705 69.343C72.705 74.3673 75.647 77.6993 80.8799 77.6993C84.1213 77.6993 86.6243 76.356 87.9456 73.8775C88.0584 73.6735 87.9912 73.4413 87.7818 73.3004C87.5736 73.1837 87.3185 73.2789 87.1789 73.5098C85.6306 75.9884 83.3358 76.4956 81.946 76.4956C79.0483 76.4956 77.496 73.9499 77.1281 69.665C76.7092 65.1534 78.4494 62.236 81.1565 62.236C84.0085 62.236 82.8229 63.4155 82.8229 64.5965V64.5951Z" fill="white"/>
<path d="M7.46681 86.1124V91.5313C7.46681 93.2436 7.11634 95.4444 6.14417 96.2053C6.00855 96.3194 5.89038 96.369 5.89038 96.573C5.89038 96.7582 6.05286 96.9233 6.26233 96.9233H12.5157C12.7023 96.9233 12.838 96.7595 12.838 96.573C12.838 96.369 12.7466 96.3194 12.6056 96.2053C11.7248 95.4431 11.4025 93.2423 11.4025 91.5313V90.6281H12.0511C16.9616 90.6281 19.3907 88.4273 19.3907 85.6723C19.3907 82.9172 16.9616 80.7205 12.5143 80.7205H6.23951C6.03003 80.7205 5.86621 80.8842 5.86621 81.0653C5.86621 81.2747 5.98438 81.323 6.12134 81.4384C7.09217 82.2006 7.46547 84.4014 7.46547 86.1124H7.46681ZM11.4052 89.47V85.6723C11.4052 83.8714 11.659 81.8772 12.1907 81.8772H12.2861C14.507 81.8772 14.9931 83.6607 14.9931 85.6723C14.9931 87.6839 14.2976 89.47 12.0538 89.47H11.4052Z" fill="white"/>
<path d="M30.406 96.9233H36.5197C36.6593 96.9233 36.7748 96.832 36.7748 96.7139C36.7748 96.5958 36.7063 96.5515 36.6164 96.4831C35.9208 96.0443 34.8989 94.8633 34.531 93.8918L30.363 82.6623C29.9239 81.4599 28.8322 80.7205 27.5566 80.7205H24.3648C24.1781 80.7205 24.0372 80.86 24.0372 81.0197C24.0372 81.2291 24.1338 81.2519 24.2695 81.37C24.5743 81.6008 24.9422 81.9685 25.3141 82.3858L21.0495 93.8918C20.6815 94.862 19.6825 96.0443 18.9869 96.4831C18.897 96.5515 18.8057 96.6012 18.8057 96.7139C18.8057 96.8266 18.9185 96.9233 19.0823 96.9233H22.8783C23.065 96.9233 23.206 96.7595 23.206 96.573C23.206 96.369 23.1106 96.3194 22.9737 96.2053C22.0915 95.4431 23.0408 93.4731 23.6464 91.8748L23.7135 91.7124H29.5493L29.6164 91.8748C30.2207 93.4731 31.1929 95.4431 30.312 96.2053C30.175 96.3194 30.081 96.369 30.081 96.573C30.081 96.7582 30.2207 96.9233 30.4073 96.9233H30.406ZM23.5202 90.7865L26.046 84.0512C26.2783 84.4699 26.5092 84.8872 26.6502 85.2818L28.7114 90.7865H23.5202Z" fill="white"/>
<path d="M44.2838 97.1539C45.0693 97.1539 45.8092 97.0868 46.5047 96.9231H51.6221C51.7174 96.9231 51.8074 96.8319 51.8074 96.7379C51.8074 96.644 51.7402 96.6239 51.6704 96.5527C51.1803 96.185 50.999 95.0726 50.999 94.2151V91.5325C50.999 90.675 51.1803 89.5625 51.6704 89.1679C51.7389 89.1223 51.7846 89.1008 51.7846 88.9868C51.7846 88.8915 51.7161 88.8231 51.5979 88.8231H45.3446C45.0451 88.8231 44.8142 88.9868 44.8142 89.1679C44.8142 89.3773 44.9766 89.4269 45.1861 89.541C46.549 90.3032 47.062 92.5041 47.062 94.2151V94.2607C47.062 95.2135 46.5047 95.9542 45.3459 95.9542C42.4535 95.9542 40.8999 93.4072 40.528 89.1223C40.1144 84.612 41.8493 81.6932 44.5604 81.6932C47.4084 81.6932 46.2268 82.8728 46.2268 84.0537C46.2268 85.2347 47.2433 86.0237 48.4289 86.0237C49.5367 86.0237 50.5586 85.2843 50.5586 83.8229C50.5586 82.3615 49.0507 80.4922 44.2824 80.4922C39.5142 80.4922 36.1035 83.5009 36.1035 88.8016C36.1035 93.8272 39.0456 97.158 44.2824 97.158L44.2838 97.1539Z" fill="white"/>
<path d="M54.9705 96.9222H68.2184C68.6132 96.9222 68.9354 96.6001 68.9354 96.2042V93.5632C68.9354 93.1714 68.7528 92.8949 68.5219 92.8949C68.2627 92.8949 68.217 93.0989 68.0814 93.3593C67.1562 95.0931 64.5123 95.764 62.4498 95.764H60.9029C60.3658 95.764 60.112 93.7726 60.112 91.9703V89.3965H61.7556C62.8002 89.3965 64.1215 89.7011 64.5579 90.5814C64.6305 90.7183 64.6761 90.8122 64.7889 90.8122C64.9017 90.8122 64.9984 90.6727 64.9984 90.4861V87.3634C64.9984 87.1782 64.9071 87.036 64.7889 87.036C64.6707 87.036 64.6305 87.1312 64.5579 87.2668C64.1215 88.1484 62.8002 88.4705 61.7556 88.4705H60.112V85.6698C60.112 83.8689 60.3658 81.8748 60.9029 81.8748C64.8628 81.8748 64.468 85.0485 66.3425 85.0485C67.6652 85.0485 68.7045 84.0729 68.7045 82.8692C68.7045 81.6654 67.6638 80.718 66.3425 80.718H54.949C54.7395 80.718 54.5757 80.8817 54.5757 81.0629C54.5757 81.2722 54.6938 81.3206 54.8308 81.436C55.807 82.1982 56.1749 84.399 56.1749 86.11V91.5288C56.1749 93.2412 55.8285 95.442 54.8577 96.2029C54.718 96.3169 54.5999 96.3666 54.5999 96.5706C54.5999 96.7558 54.7637 96.9208 54.9718 96.9208L54.9705 96.9222Z" fill="white"/>
<path d="M77.7985 81.7358C79.8369 81.7358 78.8607 82.6846 78.8607 83.6387C78.8607 84.5928 79.673 85.1846 80.6224 85.1846C81.5046 85.1846 82.6393 84.7673 82.6393 83.6092C82.6393 82.4511 81.4321 80.4878 77.6347 80.4878C75.0633 80.4878 71.3585 81.6674 71.5895 84.9069C71.5895 89.1193 78.815 91.3657 78.815 94.3516C78.815 95.0011 78.239 95.9498 77.2171 95.9498C75.5265 95.9498 75.5963 94.7689 75.5963 93.5893C75.5963 92.4097 74.5799 91.6193 73.3982 91.6193C72.285 91.6193 71.2686 92.3587 71.2686 93.8215C71.2686 95.2842 72.3992 97.1522 77.1728 97.1522C80.0423 97.1522 83.2167 95.3688 83.2167 92.8942C83.2167 89.0052 75.9925 86.6688 75.9925 84.099C75.9925 82.847 76.7995 81.7345 77.7999 81.7345L77.7985 81.7358Z" fill="white"/>
</svg>
